<svg width="28" height="28" viewBox="0 0 28 28" fill="none" xmlns="http://www.w3.org/2000/svg">
<path d="M14 28C21.732 28 28 21.732 28 14C28 6.26801 21.732 0 14 0C6.26801 0 0 6.26801 0 14C0 21.732 6.26801 28 14 28Z" fill="#44454B"/>
<path d="M12.6404 16.0399L18.9673 20.8168L22.161 7.18372L5.83899 13.604L10.8056 15.2491L19.8698 9.16911L12.6404 16.0399Z" fill="white"/>
<path d="M10.8057 15.249L12.1659 20.1438L12.6405 16.0398L19.8698 9.16901L10.8057 15.249Z" fill="#D2D2D7"/>
<path d="M14.6968 17.5925L12.166 20.144L12.6405 16.04L14.6968 17.5925Z" fill="#B9B9BE"/>
</svg>
