<svg width="28" height="28" viewBox="0 0 28 28" fill="none" xmlns="http://www.w3.org/2000/svg">
<path d="M14 28C21.732 28 28 21.732 28 14C28 6.26801 21.732 0 14 0C6.26801 0 0 6.26801 0 14C0 21.732 6.26801 28 14 28Z" fill="#44454B"/>
<path d="M20.2754 9.78965L21.467 8.64972V8.40021H17.3391L14.3972 15.7226L11.0502 8.40021H6.72198V8.64972L8.11391 10.3254C8.24956 10.4492 8.32049 10.6303 8.30245 10.8126V17.3976C8.34538 17.6347 8.26822 17.8786 8.10147 18.051L6.53345 19.9513V20.1977H10.9793V19.9482L9.41126 18.051C9.24139 17.878 9.16112 17.6385 9.19535 17.3976V11.7018L13.098 20.2008H13.5516L16.9073 11.7018V18.4722C16.9073 18.6508 16.9073 18.6875 16.7903 18.8045L15.5832 19.9724V20.2226H21.4396V19.9731L20.276 18.8338C20.174 18.7566 20.1211 18.6272 20.1429 18.5015V10.1219C20.1211 9.9956 20.1733 9.86618 20.2754 9.78965Z" fill="white"/>
</svg>
