<svg width="28" height="28" viewBox="0 0 28 28" fill="none" xmlns="http://www.w3.org/2000/svg">
<path d="M28 14C28 21.7321 21.7321 28 14 28C6.26791 28 0 21.7321 0 14C0 6.26791 6.26791 0 14 0C21.7321 0 28 6.26791 28 14Z" fill="#44454B"/>
<path d="M28 14C28 21.7321 21.7321 28 14 28C6.26791 28 0 21.7321 0 14C0 6.26791 6.26791 0 14 0C21.7321 0 28 6.26791 28 14Z" fill="#44454B"/>
<path d="M10.5034 21.659C17.6162 21.659 21.5059 15.7662 21.5059 10.6566C21.5059 10.4891 21.5025 10.3227 21.4948 10.1569C22.2497 9.6109 22.906 8.92987 23.4238 8.15463C22.7308 8.46246 21.9853 8.66989 21.203 8.76324C22.0015 8.28473 22.6144 7.52722 22.9036 6.62424C22.1562 7.06729 21.329 7.38922 20.4482 7.5629C19.7424 6.81137 18.7375 6.34119 17.6256 6.34119C15.4898 6.34119 13.758 8.07303 13.758 10.2078C13.758 10.5113 13.792 10.8063 13.8582 11.0896C10.6447 10.9279 7.79471 9.38895 5.8877 7.04935C5.5553 7.62079 5.36411 8.28473 5.36411 8.99289C5.36411 10.3344 6.04684 11.519 7.08484 12.2118C6.45059 12.1923 5.85458 12.0178 5.33356 11.7279C5.3327 11.7441 5.3327 11.7604 5.3327 11.7773C5.3327 13.6503 6.66571 15.2138 8.43494 15.5682C8.11023 15.6566 7.76843 15.7043 7.41553 15.7043C7.16644 15.7043 6.92419 15.6795 6.68857 15.6346C7.18097 17.1708 8.6084 18.2889 10.3011 18.3205C8.97733 19.3577 7.31021 19.9757 5.49847 19.9757C5.18658 19.9757 4.87875 19.9579 4.57605 19.9221C6.28738 21.0188 8.31937 21.659 10.5034 21.659Z" fill="white"/>
</svg>
