<svg width="14" height="14" viewBox="0 0 14 14" fill="none" xmlns="http://www.w3.org/2000/svg">
<g clip-path="url(#clip0)">
<path d="M11.4998 6.99992C11.2237 6.99992 10.9998 7.22377 10.9998 7.49992V12.4998C10.9998 12.776 10.776 12.9998 10.4998 12.9998H1.49998C1.22383 12.9998 0.999977 12.776 0.999977 12.4998V2.49998C0.999977 2.22383 1.22383 1.99998 1.49998 1.99998H7.4999C7.77605 1.99998 7.9999 1.77612 7.9999 1.49997C7.9999 1.22383 7.77605 1 7.4999 1H1.49998C0.671564 1 0 1.67156 0 2.49998V12.4998C0 13.3283 0.671564 13.9998 1.49998 13.9998H10.4999C11.3283 13.9998 11.9998 13.3283 11.9998 12.4998V7.49989C11.9998 7.22377 11.776 6.99992 11.4998 6.99992Z" fill="#72F34B"/>
<path d="M13.4395 0.560684C13.0805 0.201626 12.5935 -5.06826e-05 12.0858 7.91038e-06C11.5778 -0.00145691 11.0903 0.200572 10.7323 0.561006L4.14636 7.14639C4.09172 7.20144 4.0505 7.26835 4.02586 7.34188L3.02588 10.3418C2.93861 10.6038 3.08026 10.887 3.34226 10.9742C3.39309 10.9911 3.44632 10.9998 3.49987 10.9998C3.55354 10.9998 3.60689 10.9911 3.65787 10.9744L6.65784 9.97438C6.73152 9.94977 6.79846 9.90834 6.85333 9.85338L13.4393 3.26747C14.1868 2.52006 14.1868 1.30818 13.4395 0.560684Z" fill="#72F34B"/>
</g>
<defs>
<clipPath id="clip0">
<rect width="14" height="14" fill="white"/>
</clipPath>
</defs>
</svg>
