<svg width="22" height="14" viewBox="0 0 22 14" fill="none" xmlns="http://www.w3.org/2000/svg">
<path d="M17.3943 2.26421C16.1432 1.29496 14.7047 0.709798 13.1993 0.256562C13.3291 0.0331359 13.5014 -0.0104854 13.7248 0.00440966C15.3548 0.150491 16.9167 0.72694 18.2508 1.67479C18.3504 1.74517 18.4323 1.83766 18.4902 1.94503C19.7212 4.2272 20.5249 6.7151 20.8617 9.28617C20.9489 9.97773 20.9755 10.6778 21.0138 11.3736C21.0088 11.4911 20.9612 11.6026 20.8798 11.6875C19.4775 13.177 17.722 13.8707 15.7091 13.9941C15.6195 14.0082 15.5277 13.997 15.4441 13.9619C15.3605 13.9267 15.2883 13.869 15.2356 13.7951C14.9292 13.3983 14.5973 13.0185 14.2611 12.6088C15.475 12.2333 16.5389 11.7024 17.3465 10.7576C12.7879 13.311 8.24167 13.311 3.70789 10.7576C3.7845 10.9906 4.36115 11.5162 5.03888 11.8747C5.57084 12.1567 6.13686 12.3843 6.72096 12.6503C6.37092 13.0695 6.00706 13.5121 5.63149 13.9419C5.58787 13.992 5.46871 13.992 5.38678 13.9877C3.32169 13.8888 1.53002 13.1695 0.0979652 11.647C0.0326022 11.5625 -0.00192987 11.4581 8.32938e-05 11.3513C0.0357181 9.4043 0.363518 7.47372 0.972519 5.62411C1.35897 4.38423 1.86272 3.18401 2.47692 2.03972C2.56899 1.87077 2.69856 1.72519 2.85568 1.61414C4.16807 0.699838 5.69687 0.144878 7.29016 0.00440966C7.51572 -0.0158051 7.68807 0.0278162 7.82213 0.254434C6.31134 0.70767 4.87397 1.29496 3.61746 2.27059C8.20798 0.18315 12.8003 0.181023 17.3943 2.26421ZM13.7429 9.88836C13.9866 9.88712 14.2276 9.8376 14.452 9.74265C14.6764 9.6477 14.8798 9.5092 15.0504 9.33518C15.2209 9.16115 15.3553 8.95505 15.4457 8.72877C15.5361 8.5025 15.5808 8.26054 15.5771 8.0169C15.5771 7.0019 14.7547 6.14757 13.7876 6.15289C13.2909 6.15147 12.8138 6.34693 12.4608 6.69649C12.1079 7.04605 11.9078 7.52122 11.9044 8.01796C11.9023 8.26149 11.9482 8.50305 12.0395 8.72885C12.1307 8.95465 12.2656 9.16026 12.4363 9.33394C12.607 9.50763 12.8103 9.64598 13.0345 9.74111C13.2587 9.83624 13.4994 9.88627 13.7429 9.88836ZM7.27633 9.88836C7.76373 9.88333 8.22955 9.68661 8.57301 9.34075C8.91648 8.9949 9.10996 8.52773 9.11162 8.04031C9.11289 7.79209 9.06493 7.54609 8.97053 7.31652C8.87613 7.08696 8.73715 6.87839 8.56163 6.70287C8.38612 6.52735 8.17755 6.38837 7.94798 6.29397C7.71841 6.19957 7.47241 6.15162 7.2242 6.15289C6.26027 6.15289 5.43785 7.00403 5.43892 8.02009C5.43596 8.26371 5.48124 8.50551 5.57214 8.73155C5.66304 8.9576 5.79777 9.16343 5.96855 9.33718C6.13934 9.51094 6.34282 9.64919 6.56727 9.74396C6.79171 9.83874 7.0327 9.88818 7.27633 9.88942V9.88836Z" fill="white"/>
</svg>
