<svg width="8" height="16" viewBox="0 0 8 16" fill="none" xmlns="http://www.w3.org/2000/svg">
<path d="M0 5.99472H2.31248C2.31248 5.92453 2.31248 5.86437 2.31248 5.80671C2.31937 4.96758 2.29681 4.12656 2.34193 3.2893C2.3952 2.30164 2.73424 1.42365 3.50946 0.765628C4.12612 0.245476 4.85746 0.00858803 5.64646 0.000441075C6.39598 -0.00582581 7.14425 0.0562164 7.89628 0.0894309C7.92864 0.0937649 7.96053 0.101108 7.99153 0.111365V2.64945C7.92886 2.64945 7.86995 2.64945 7.80917 2.64945C7.26269 2.65823 6.71371 2.64256 6.16912 2.68267C5.58254 2.72591 5.23974 3.03424 5.20465 3.6227C5.15765 4.40606 5.19274 5.19381 5.19274 5.99722H7.7559C7.63683 6.9548 7.51964 7.89358 7.40119 8.8449H5.17143V16.0004H2.31875V8.85116H0V5.99472Z" fill="white"/>
</svg>
