<svg width="22" height="18" viewBox="0 0 22 18" fill="none" xmlns="http://www.w3.org/2000/svg">
<path d="M7.00252 17.754C15.1312 17.754 19.5764 11.0195 19.5764 5.18006C19.5764 4.98865 19.5725 4.79847 19.5637 4.60902C20.4265 3.98502 21.1765 3.20671 21.7683 2.32075C20.9763 2.67255 20.1243 2.9096 19.2302 3.01629C20.1428 2.46943 20.8432 1.60373 21.1738 0.571769C20.3196 1.0781 19.3743 1.44602 18.3677 1.6445C17.5611 0.785631 16.4127 0.248291 15.142 0.248291C12.7011 0.248291 10.7219 2.22749 10.7219 4.66713C10.7219 5.01404 10.7607 5.35119 10.8364 5.67492C7.16389 5.49011 3.90689 3.73136 1.7275 1.0576C1.34763 1.71066 1.12913 2.46943 1.12913 3.27873C1.12913 4.8119 1.90938 6.16563 3.09563 6.95736C2.3708 6.93514 1.68966 6.73568 1.09422 6.40439C1.09324 6.42295 1.09324 6.4415 1.09324 6.46079C1.09324 8.60136 2.61664 10.3882 4.63856 10.7932C4.26748 10.8943 3.87686 10.9487 3.47355 10.9487C3.18889 10.9487 2.91204 10.9204 2.64276 10.8691C3.20549 12.6247 4.8368 13.9025 6.77132 13.9386C5.25842 15.1239 3.3532 15.8302 1.28269 15.8302C0.926252 15.8302 0.574454 15.8099 0.228516 15.7689C2.18428 17.0223 4.50649 17.754 7.00252 17.754Z" fill="white"/>
</svg>
