<svg width="18" height="18" viewBox="0 0 18 18" fill="none" xmlns="http://www.w3.org/2000/svg">
<path d="M9.00353 6.20713e-06C10.7841 0.000705549 12.5245 0.529549 14.0044 1.51962C15.4843 2.5097 16.6373 3.9165 17.3175 5.56204C17.9976 7.20758 18.1744 9.0179 17.8254 10.7639C17.4765 12.51 16.6174 14.1133 15.357 15.3709C14.0965 16.6286 12.4914 17.4841 10.7446 17.8293C8.99778 18.1744 7.18786 17.9937 5.54381 17.3099C3.89977 16.6261 2.49549 15.4701 1.50867 13.988C0.521839 12.5059 -0.00318901 10.7644 1.45735e-05 8.98381C0.00121584 7.80272 0.235062 6.63343 0.688199 5.54272C1.14134 4.45202 1.80489 3.46125 2.64096 2.62701C3.47703 1.79277 4.46925 1.13139 5.56095 0.680646C6.65264 0.229901 7.82244 -0.00138142 9.00353 6.20713e-06ZM2.49943 13.5701L4.59612 12.7379C4.46141 11.6747 4.32646 10.6083 4.19128 9.53861H1.07582C1.16725 10.9885 1.66015 12.3843 2.49943 13.5701ZM4.18917 8.46562C4.32998 7.37644 4.46305 6.31261 4.59612 5.26356L2.49943 4.42854C1.65842 5.61546 1.16561 7.01368 1.07652 8.46562H4.18917ZM13.3962 12.7343L15.4936 13.5715C16.3327 12.3849 16.8253 10.9883 16.9165 9.5379H13.8031C13.6661 10.6175 13.5306 11.6829 13.3969 12.7343H13.3962ZM16.9165 8.46562C16.8257 7.01401 16.3319 5.61646 15.4907 4.42995L13.3983 5.26285C13.5327 6.3281 13.6672 7.39193 13.8031 8.46562H16.9165ZM12.3211 5.53462L9.5358 5.84793V8.46069H12.6935C12.6668 7.47539 12.542 6.49519 12.3211 5.53462ZM8.45507 8.46351V5.84863L5.67333 5.53321C5.45039 6.49483 5.32607 7.47667 5.30229 8.46351H8.45507ZM5.67262 12.4661L8.45859 12.1507V9.53861H5.30159C5.32681 10.5244 5.45112 11.5052 5.67262 12.4661ZM12.3211 12.4661C12.5433 11.5051 12.6674 10.524 12.6914 9.5379H9.53369V12.15L12.3211 12.4661ZM9.53228 4.75311C10.3684 4.72961 11.2009 4.6354 12.0211 4.47149C11.8023 3.78019 11.4916 3.12141 11.0974 2.5128C10.8038 2.07135 10.4638 1.67144 10.011 1.3863C9.86601 1.29407 9.70689 1.22437 9.53228 1.13284V4.75311ZM8.4607 1.1265C7.02653 1.82 6.483 3.12322 5.95988 4.4729C6.78402 4.63661 7.62071 4.72918 8.4607 4.74959V1.1265ZM9.53369 13.2159V16.8341C9.86741 16.7637 10.3229 16.4454 10.7059 16.0012C11.3283 15.2781 11.7149 14.4311 12.0345 13.4912L9.53369 13.2159ZM5.98452 13.487C6.10985 14.0875 6.66464 15.2007 7.11102 15.7794C7.39968 16.1525 7.72778 16.4835 8.14669 16.7102C8.24526 16.763 8.35087 16.8024 8.46281 16.851V13.211L5.98452 13.487ZM14.8127 14.4128L13.066 13.7454C12.7336 14.7346 12.3211 15.6301 11.7325 16.444C12.9075 16.0258 13.9115 15.3577 14.8092 14.4128H14.8127ZM13.0786 4.21944C13.6628 4.05871 14.229 3.8386 14.7684 3.56255C14.1347 2.78808 12.3887 1.64399 11.7571 1.56583C11.9965 1.97982 12.2654 2.39803 12.4865 2.84089C12.7076 3.28374 12.8801 3.75124 13.0786 4.21944ZM6.26615 1.55527C5.08614 1.97137 4.08356 2.64305 3.18729 3.58508L4.92843 4.25393C5.26005 3.26966 5.6684 2.36846 6.26615 1.55527ZM6.26615 16.444C5.66699 15.6301 5.26145 14.7296 4.9397 13.7721C4.34279 13.9361 3.7643 14.1609 3.21334 14.4431C4.05589 15.3451 5.1029 16.0313 6.26615 16.444Z" fill="white"/>
</svg>
