<svg width="18" height="14" viewBox="0 0 18 14" fill="none" xmlns="http://www.w3.org/2000/svg">
<path d="M14.9538 0.5H3.04615C2.23826 0.5 1.46346 0.8348 0.892198 1.43075C0.320933 2.0267 0 2.83498 0 3.67778V10.3222C0 11.165 0.320933 11.9733 0.892198 12.5693C1.46346 13.1652 2.23826 13.5 3.04615 13.5H14.9538C15.7617 13.5 16.5365 13.1652 17.1078 12.5693C17.6791 11.9733 18 11.165 18 10.3222V3.67778C18 2.83498 17.6791 2.0267 17.1078 1.43075C16.5365 0.8348 15.7617 0.5 14.9538 0.5ZM12.6526 7.38422L7.25262 10.2731C7.18934 10.3073 7.11869 10.324 7.04746 10.3214C6.97624 10.3189 6.90683 10.2973 6.84592 10.2587C6.78501 10.2201 6.73464 10.1658 6.69965 10.1011C6.66467 10.0363 6.64624 9.96323 6.64615 9.88889V4.11111C6.64624 4.03677 6.66467 3.9637 6.69965 3.89893C6.73464 3.83416 6.78501 3.77986 6.84592 3.74127C6.90683 3.70268 6.97624 3.68109 7.04746 3.67857C7.11869 3.67605 7.18934 3.69269 7.25262 3.72689L12.6526 6.61578C12.7207 6.65214 12.7778 6.70739 12.8176 6.77544C12.8575 6.84348 12.8786 6.92169 12.8786 7.00144C12.8786 7.0812 12.8575 7.15941 12.8176 7.22745C12.7778 7.2955 12.7207 7.35075 12.6526 7.38711V7.38422Z" fill="white"/>
</svg>
