<svg width="24" height="24" viewBox="0 0 24 24" fill="none" xmlns="http://www.w3.org/2000/svg">
<g opacity="0.5">
<circle cx="12" cy="12" r="12" fill="#D4D4D4"/>
</g>
<path d="M12.733 12.0001L15.8481 8.88486C16.0508 8.68223 16.0508 8.3546 15.8481 8.15197C15.6455 7.94934 15.3179 7.94934 15.1152 8.15197L12 11.2672L8.88493 8.15197C8.68221 7.94934 8.35468 7.94934 8.15204 8.15197C7.94932 8.3546 7.94932 8.68223 8.15204 8.88486L11.2671 12.0001L8.15204 15.1153C7.94932 15.3179 7.94932 15.6455 8.15204 15.8481C8.25303 15.9492 8.38581 16 8.51849 16C8.65117 16 8.78385 15.9492 8.88493 15.8481L12 12.7329L15.1152 15.8481C15.2163 15.9492 15.349 16 15.4817 16C15.6144 16 15.747 15.9492 15.8481 15.8481C16.0508 15.6455 16.0508 15.3179 15.8481 15.1153L12.733 12.0001Z" fill="black"/>
</svg>
