<svg width="16" height="16" viewBox="0 0 16 16" fill="none" xmlns="http://www.w3.org/2000/svg">
<path d="M0 8.00008C0 12.4113 3.58879 16.0001 8.00003 16.0001C12.4112 16.0001 16 12.4113 16 8.00008C16 3.58889 12.4112 0 8.00003 0C3.58874 0 0 3.58884 0 8.00008ZM8.47801 8.69312C7.35718 8.29689 6.7078 7.98461 6.23667 7.61507C5.65685 7.16029 5.39144 6.37486 5.54395 5.56533C5.70943 4.68713 6.32186 3.98802 7.14228 3.74088C7.15365 3.73746 7.16481 3.73471 7.17613 3.73138V3.41785C7.17613 2.98784 7.52475 2.63922 7.95476 2.63922C8.38478 2.63922 8.7334 2.98784 8.7334 3.41785V3.68181C9.27704 3.80914 9.6565 4.05763 9.80989 4.1723C10.1543 4.42982 10.2248 4.91771 9.96733 5.26218C9.70981 5.60665 9.22202 5.67704 8.87745 5.41962C8.71258 5.29639 8.25755 5.03124 7.59145 5.23192C7.19793 5.35048 7.09613 5.73777 7.07428 5.85369C7.03114 6.08261 7.08072 6.29808 7.19767 6.38975C7.605 6.70915 8.33577 6.99117 8.99694 7.22487C10.2064 7.65239 10.879 8.77285 10.6705 10.0129C10.5681 10.6217 10.2619 11.1867 9.80797 11.6037C9.49584 11.8905 9.13211 12.0944 8.7334 12.2094V12.5822C8.7334 13.0122 8.38478 13.3608 7.95476 13.3608C7.52475 13.3608 7.17613 13.0122 7.17613 12.5822V12.286C6.65812 12.2251 6.22588 12.0655 5.64455 11.6853C5.28466 11.4499 5.1838 10.9673 5.41921 10.6074C5.65462 10.2474 6.13727 10.1466 6.4971 10.382C7.03607 10.7347 7.23987 10.767 7.94957 10.7621C8.64832 10.7574 9.05373 10.2366 9.13476 9.75471C9.17442 9.51935 9.18963 8.94467 8.47801 8.69312Z" fill="black"/>
</svg>
