<svg width="24" height="24" viewBox="0 0 24 24" fill="none" xmlns="http://www.w3.org/2000/svg">
<path d="M12 24C18.6274 24 24 18.6274 24 12C24 5.37258 18.6274 0 12 0C5.37258 0 0 5.37258 0 12C0 18.6274 5.37258 24 12 24Z" fill="#4B98F3"/>
<path d="M11.8593 5.7306L8.48915 11.1656C8.44846 11.2312 8.46829 11.3174 8.53358 11.3586L11.9716 13.53C12.018 13.5593 12.0772 13.5589 12.1232 13.529L15.4679 11.3595C15.5324 11.3177 15.5513 11.2319 15.5105 11.1668L12.0979 5.72989C12.0426 5.64182 11.9141 5.64219 11.8593 5.7306Z" fill="white"/>
<path d="M12.0949 15.4093L15.049 13.572C15.177 13.4924 15.3236 13.6428 15.2407 13.7688L12.2643 18.29C12.2101 18.3724 12.09 18.3748 12.0326 18.2945L8.81186 13.8005C8.72247 13.6758 8.86905 13.5184 8.99978 13.5988L11.947 15.4097C11.9924 15.4377 12.0497 15.4375 12.0949 15.4093Z" fill="white"/>
</svg>
