<svg width="58" height="60" viewBox="0 0 58 60" fill="none"
    xmlns="http://www.w3.org/2000/svg">
    <path d="M30.4046 14.0357C34.2804 14.0357 37.4224 10.8937 37.4224 7.01784C37.4224 3.14199 34.2804 0 30.4046 0C26.5287 0 23.3867 3.14199 23.3867 7.01784C23.3867 10.8937 26.5287 14.0357 30.4046 14.0357Z" fill="white"/>
    <path opacity="0.4" d="M30.4048 59.9986C32.7301 59.9986 34.6151 58.1136 34.6151 55.7884C34.6151 53.4631 32.7301 51.5781 30.4048 51.5781C28.0796 51.5781 26.1946 53.4631 26.1946 55.7884C26.1946 58.1136 28.0796 59.9986 30.4048 59.9986Z" fill="white"/>
    <path d="M13.1605 20.4758C16.649 20.4758 19.477 17.6478 19.477 14.1593C19.477 10.6708 16.649 7.84277 13.1605 7.84277C9.67199 7.84277 6.84399 10.6708 6.84399 14.1593C6.84399 17.6478 9.67199 20.4758 13.1605 20.4758Z" fill="white"/>
    <path opacity="0.3" d="M47.6486 52.1536C49.5865 52.1536 51.1575 50.5826 51.1575 48.6447C51.1575 46.7067 49.5865 45.1357 47.6486 45.1357C45.7106 45.1357 44.1396 46.7067 44.1396 48.6447C44.1396 50.5826 45.7106 52.1536 47.6486 52.1536Z" fill="white"/>
    <path opacity="0.6" d="M6.01769 37.0178C9.11761 37.0178 11.6306 34.5048 11.6306 31.4049C11.6306 28.305 9.11761 25.792 6.01769 25.792C2.91777 25.792 0.404785 28.305 0.404785 31.4049C0.404785 34.5048 2.91777 37.0178 6.01769 37.0178Z" fill="white"/>
    <path opacity="0.1" d="M54.7897 34.2083C56.339 34.2083 57.595 32.9523 57.595 31.403C57.595 29.8536 56.339 28.5977 54.7897 28.5977C53.2404 28.5977 51.9844 29.8536 51.9844 31.403C51.9844 32.9523 53.2404 34.2083 54.7897 34.2083Z" fill="white"/>
    <path opacity="0.5" d="M9.68844 45.1757C7.76889 47.0953 7.76889 50.2012 9.68844 52.1207C11.6057 54.0403 14.7161 54.0403 16.6334 52.1207C18.553 50.2012 18.553 47.0953 16.6334 45.1757C14.7161 43.2539 11.608 43.2357 9.68844 45.1757Z" fill="white"/>
    <path opacity="0.1" d="M47.6465 16.2627C48.8085 16.2627 49.7504 15.3207 49.7504 14.1587C49.7504 12.9967 48.8085 12.0547 47.6465 12.0547C46.4845 12.0547 45.5425 12.9967 45.5425 14.1587C45.5425 15.3207 46.4845 16.2627 47.6465 16.2627Z" fill="white"/>
</svg>
