<svg width="15" height="19" viewBox="0 0 15 19" fill="none" xmlns="http://www.w3.org/2000/svg">
<path d="M13.4375 8.3125H12.25V4.75C12.25 2.13089 10.1191 0 7.5 0C4.88089 0 2.75 2.13089 2.75 4.75V8.3125H1.5625C0.906666 8.3125 0.375 8.84413 0.375 9.5V17.8125C0.375 18.4683 0.906666 19 1.5625 19H13.4375C14.0933 19 14.625 18.4683 14.625 17.8125V9.5C14.625 8.84413 14.0933 8.3125 13.4375 8.3125ZM8.09375 14.0853V15.4375C8.09375 15.7654 7.82794 16.0312 7.5 16.0312C7.17206 16.0312 6.90625 15.7654 6.90625 15.4375V14.0853C6.55282 13.8796 6.3125 13.5009 6.3125 13.0625C6.3125 12.4066 6.84417 11.875 7.5 11.875C8.15583 11.875 8.6875 12.4066 8.6875 13.0625C8.6875 13.5009 8.44718 13.8796 8.09375 14.0853ZM5.125 8.3125V4.75C5.125 3.44045 6.19045 2.375 7.5 2.375C8.80955 2.375 9.875 3.44045 9.875 4.75V8.3125H5.125Z" fill="#4F4F4F"/>
</svg>
