<svg width="28" height="28" viewBox="0 0 28 28" fill="none" xmlns="http://www.w3.org/2000/svg">
<path d="M14 28C21.732 28 28 21.732 28 14C28 6.26801 21.732 0 14 0C6.26801 0 0 6.26801 0 14C0 21.732 6.26801 28 14 28Z" fill="#2E2E2E"/>
<path d="M12.6405 16.0398L18.9674 20.8166L22.1612 7.18359L5.83911 13.6039L10.8057 15.249L19.8699 9.16899L12.6405 16.0398Z" fill="white"/>
<path d="M10.8059 15.249L12.1662 20.1438L12.6407 16.0397L19.8701 9.16895L10.8059 15.249Z" fill="#D2D2D7"/>
<path d="M14.6971 17.5925L12.1663 20.1441L12.6408 16.04L14.6971 17.5925Z" fill="#B9B9BE"/>
</svg>
