<svg width="32" height="33" viewBox="0 0 32 33" fill="none" xmlns="http://www.w3.org/2000/svg">
<path d="M15.9996 32.0012C24.8359 32.0012 31.9992 24.8379 31.9992 16.0016C31.9992 7.16522 24.8359 0.00195312 15.9996 0.00195312C7.16327 0.00195312 0 7.16522 0 16.0016C0 24.8379 7.16327 32.0012 15.9996 32.0012Z" fill="#72F34B"/>
<path d="M14.4454 18.333L21.676 23.7922L25.3259 8.21191L6.67261 15.5493L12.3486 17.4293L22.7074 10.4809L14.4454 18.333Z" fill="#0A0A0A"/>
<path d="M12.3491 17.4306L13.9037 23.0245L14.446 18.3343L22.7079 10.4822L12.3491 17.4306Z" fill="#0A0A0A"/>
<path d="M16.7961 20.1082L13.9038 23.0242L14.4461 18.334L16.7961 20.1082Z" fill="#0A0A0A"/>
</svg>
