<svg width="16" height="16" viewBox="0 0 16 16" fill="none" xmlns="http://www.w3.org/2000/svg">
<path d="M14.5653 4.36891C13.755 5.17916 12.4413 5.17916 11.6311 4.36891C10.8208 3.55866 10.8208 2.24494 11.6311 1.43469L10.1964 0L0 10.1964L1.43472 11.6311C2.24497 10.8208 3.55869 10.8208 4.36894 11.6311C5.17919 12.4413 5.17919 13.7551 4.36894 14.5653L5.80363 16L16 5.80363L14.5653 4.36891ZM7.98497 5.71706L7.31941 5.0515L7.98231 4.38859L8.64787 5.05416L7.98497 5.71706ZM9.31609 7.04822L8.6505 6.38266L9.31341 5.71975L9.979 6.38531L9.31609 7.04822ZM10.6472 8.37938L9.98166 7.71378L10.6446 7.05088L11.3101 7.71647L10.6472 8.37938Z" fill="#AEAEAE"/>
</svg>
