<svg width="32" height="33" viewBox="0 0 32 33" fill="none" xmlns="http://www.w3.org/2000/svg">
<path d="M31.9982 16.0016C31.9982 24.838 24.8351 32.0012 15.9986 32.0012C7.16218 32.0012 -0.000976562 24.838 -0.000976562 16.0016C-0.000976562 7.16511 7.16218 0.00195312 15.9986 0.00195312C24.8351 0.00195312 31.9982 7.16511 31.9982 16.0016Z" fill="#101010"/>
<path d="M31.9982 16.0016C31.9982 24.838 24.8351 32.0012 15.9986 32.0012C7.16218 32.0012 -0.000976562 24.838 -0.000976562 16.0016C-0.000976562 7.16511 7.16218 0.00195312 15.9986 0.00195312C24.8351 0.00195312 31.9982 7.16511 31.9982 16.0016Z" fill="#72F34B"/>
<path d="M12.0023 24.7559C20.131 24.7559 24.5762 18.0215 24.5762 12.182C24.5762 11.9906 24.5723 11.8004 24.5635 11.611C25.4263 10.987 26.1762 10.2087 26.768 9.3227C25.9761 9.6745 25.124 9.91156 24.23 10.0182C25.1426 9.47138 25.843 8.60568 26.1736 7.57372C25.3193 8.08006 24.374 8.44797 23.3675 8.64645C22.5609 7.78758 21.4124 7.25024 20.1417 7.25024C17.7009 7.25024 15.7217 9.22944 15.7217 11.6691C15.7217 12.016 15.7605 12.3531 15.8362 12.6769C12.1636 12.4921 8.90665 10.7333 6.72726 8.05955C6.34738 8.71261 6.12888 9.47138 6.12888 10.2807C6.12888 11.8139 6.90914 13.1676 8.09539 13.9593C7.37055 13.9371 6.68942 13.7376 6.09397 13.4063C6.093 13.4249 6.093 13.4435 6.093 13.4627C6.093 15.6033 7.6164 17.3901 9.63832 17.7952C9.26724 17.8962 8.87662 17.9507 8.47331 17.9507C8.18865 17.9507 7.9118 17.9223 7.64252 17.8711C8.20525 19.6267 9.83656 20.9045 11.7711 20.9406C10.2582 22.1259 8.35295 22.8321 6.28244 22.8321C5.92601 22.8321 5.57421 22.8119 5.22827 22.7709C7.18403 24.0242 9.50624 24.7559 12.0023 24.7559Z" fill="#0A0A0A"/>
</svg>
