<svg width="16" height="16" viewBox="0 0 16 16" fill="none" xmlns="http://www.w3.org/2000/svg">
<g clip-path="url(#clip0_200_3951)">
<path d="M9.97071 6.39886C9.71709 6.25213 9.4056 6.25111 9.15199 6.39613L6.03437 8.17758C5.77905 8.32362 5.62109 8.59528 5.62109 8.88975V12.102C5.62109 12.5551 5.98841 12.9224 6.44152 12.9224H9.55914C10.0122 12.9224 10.3796 12.5551 10.3796 12.102V7.10864C10.3792 6.81622 10.2233 6.54558 9.97071 6.39886Z" fill="white"/>
<path d="M4.39119 9.58761C4.13792 9.43952 3.82609 9.43918 3.57247 9.58489L0.413661 11.3902C0.090597 11.5743 -0.0680413 11.9532 0.0276182 12.3127C0.122937 12.6725 0.448384 12.9228 0.820469 12.9228H3.97962C4.43272 12.9228 4.80004 12.5554 4.80004 12.1023V10.2967C4.80038 10.005 4.64447 9.73399 4.39119 9.58761Z" fill="white"/>
<path d="M15.5913 3.18703C15.3381 3.03996 15.0262 3.03928 14.7726 3.18464L11.6138 4.98958C11.3582 5.13562 11.2002 5.40762 11.2002 5.70209V12.1018C11.2002 12.5549 11.5675 12.9222 12.0206 12.9222H15.1794C15.6325 12.9222 15.9999 12.5549 15.9999 12.1018V3.89681C16.0002 3.60439 15.8443 3.33375 15.5913 3.18703Z" fill="white"/>
</g>
<defs>
<clipPath id="clip0_200_3951">
<rect width="16" height="16" fill="white"/>
</clipPath>
</defs>
</svg>
