<svg width="117" height="132" viewBox="0 0 117 132" fill="none" xmlns="http://www.w3.org/2000/svg">
    <path d="M52.728 2.24502L6.32798 29.045C4.56396 30.0635 3.09921 31.5285 2.08106 33.2927C1.06291 35.0569 0.527265 37.0581 0.527985 39.095L0.556985 92.754C0.558287 94.7878 1.09428 96.7855 2.11121 98.5468C3.12815 100.308 4.59028 101.771 6.35099 102.789L52.805 129.643C54.5684 130.661 56.5688 131.197 58.605 131.197C60.6412 131.197 62.6416 130.661 64.405 129.643L110.805 102.851C112.569 101.833 114.034 100.368 115.052 98.6033C116.07 96.8391 116.606 94.8379 116.605 92.801L116.576 39.142C116.575 37.1084 116.038 35.1109 115.021 33.3498C114.005 31.5887 112.543 30.1259 110.782 29.108L64.328 2.25302C62.5646 1.23491 60.5642 0.698914 58.528 0.698914C56.4918 0.698914 54.4914 1.23491 52.728 2.25302V2.24502Z" fill="white" />
    <path d="M37.413 111.506C37.4845 111.156 37.6412 110.83 37.869 110.555C51.749 87.003 65.6313 63.452 79.516 39.902C79.709 39.575 79.888 39.239 80.052 38.946C79.93 38.733 79.791 38.777 79.673 38.777C73.741 38.798 67.809 38.836 61.873 38.829C61.6193 38.8245 61.3703 38.8978 61.1596 39.039C60.9488 39.1803 60.7863 39.3827 60.694 39.619C56.2193 47.019 51.739 54.417 47.253 61.813C37.7497 77.4923 28.2453 93.1713 18.74 108.85C18.656 108.989 18.568 109.125 18.493 109.268C18.325 109.592 18.134 109.643 17.793 109.445C16.318 108.574 14.827 107.731 13.26 106.83L55.56 38.988C55.469 38.712 55.282 38.781 55.138 38.776C52.871 38.708 50.603 38.61 48.338 38.59C45.1561 38.4957 41.9852 39.0068 38.994 40.096C36.2699 41.1047 33.9549 42.9843 32.408 45.443C24.6793 57.4977 16.9213 69.5337 9.13401 81.551C9.01201 81.741 8.88201 81.927 8.75601 82.115C8.31001 82.115 8.37601 81.747 8.33501 81.49C8.29555 81.103 8.28619 80.7135 8.30701 80.325C8.30701 67.033 8.35301 53.741 8.26601 40.45C8.19615 39.3048 8.47161 38.1649 9.05673 37.1779C9.64185 36.191 10.5097 35.4023 11.548 34.914C21.769 29.087 31.924 23.14 42.112 17.254C46.659 14.627 51.22 12.025 55.734 9.34301C56.5831 8.77332 57.5825 8.46912 58.605 8.46912C59.6275 8.46912 60.6269 8.77332 61.476 9.34301C69.776 14.214 78.15 18.972 86.493 23.774C92.7857 27.3973 99.0813 31.0143 105.38 34.625C105.831 34.882 106.27 35.157 106.723 35.41C107.46 35.8014 108.069 36.3955 108.478 37.122C108.888 37.8486 109.081 38.6772 109.035 39.51C109.047 53.9687 109.047 68.4273 109.035 82.886C109.064 83.2417 109.026 83.5998 108.921 83.941C108.421 84.424 108.24 83.882 108.058 83.625C107.308 82.57 106.635 81.459 105.938 80.367C100.357 71.6303 94.7567 62.9053 89.138 54.192C87.25 51.247 85.338 48.314 83.47 45.357C83.034 44.667 82.955 44.657 82.519 45.398C79.7003 50.1673 76.8833 54.9377 74.068 59.709C73.9136 59.9743 73.847 60.2816 73.8779 60.5869C73.9088 60.8923 74.0356 61.1801 74.24 61.409C76.5613 65.1543 78.8783 68.9023 81.191 72.653L93.048 91.833C94.648 94.425 96.2507 97.0147 97.856 99.602C98.1539 99.9489 98.3216 100.389 98.33 100.846C98.009 101.484 97.34 101.663 96.783 101.953C95.8689 102.613 94.8642 103.138 93.8 103.51C93.226 103.367 93.023 102.849 92.751 102.425C89.08 96.699 85.456 90.944 81.809 85.204C78.058 79.304 74.325 73.382 70.558 67.488C70.075 66.732 69.998 66.727 69.544 67.488C66.267 73.001 63.035 78.54 59.75 84.047C59.582 84.3051 59.4995 84.6095 59.514 84.9171C59.5285 85.2247 59.6394 85.5199 59.831 85.761C64.256 92.581 68.579 99.461 72.957 106.315C74.178 108.225 75.408 110.128 76.607 112.052C76.841 112.426 77.161 112.799 76.949 113.305C75.7997 114.199 74.5595 114.97 73.249 115.605C69.1597 117.984 65.0683 120.36 60.975 122.733C60.3193 123.156 59.5555 123.381 58.775 123.381C57.9946 123.381 57.2307 123.156 56.575 122.733C50.5457 119.245 44.5053 115.773 38.454 112.316C38.0371 112.15 37.6761 111.869 37.413 111.506V111.506Z" fill="#2D374B" />
    <path d="M108.742 84.086C108.751 83.729 108.769 83.373 108.769 83.017C108.769 68.591 108.774 54.1656 108.783 39.741C108.834 38.8662 108.629 37.9954 108.192 37.2357C107.756 36.4759 107.107 35.8601 106.325 35.464C91.177 26.78 76.04 18.0763 60.914 9.35297C60.2329 8.90984 59.4383 8.67295 58.6258 8.67082C57.8132 8.66869 57.0174 8.90141 56.334 9.34097C47.934 14.223 39.5233 19.0923 31.102 23.949C24.3453 27.8603 17.589 31.7726 10.833 35.686C10.1114 36.0603 9.51326 36.6349 9.1104 37.341C8.70754 38.047 8.51711 38.8543 8.562 39.666C8.59666 53.508 8.61633 67.35 8.62099 81.192C8.62099 81.5 8.496 81.843 8.765 82.115C7.165 84.779 5.407 87.339 3.722 89.946C2.878 91.2513 2.03066 92.5543 1.18 93.855C1.044 94.063 0.886996 94.255 0.617996 94.626C0.597996 94.19 0.576996 93.949 0.576996 93.709C0.576996 75.455 0.580331 57.201 0.586998 38.947C0.542434 36.921 1.05675 34.9219 2.07353 33.169C3.0903 31.4161 4.57025 29.9772 6.351 29.01C12.225 25.522 18.177 22.164 24.09 18.738C29.079 15.849 34.051 12.938 39.037 10.044C43.687 7.34397 48.29 4.56297 53.019 2.00997C54.8302 1.00142 56.879 0.497745 58.9514 0.551572C61.0237 0.6054 63.0436 1.21475 64.8 2.31597C68.6 4.47197 72.384 6.66797 76.173 8.84597C79.737 10.8973 83.3007 12.95 86.864 15.004C90.148 16.8946 93.433 18.7833 96.719 20.67C99.977 22.5413 103.235 24.4116 106.494 26.281C107.926 27.104 109.357 27.928 110.78 28.766C112.351 29.6548 113.702 30.886 114.732 32.3682C115.762 33.8505 116.445 35.5457 116.73 37.328C116.797 37.8427 116.818 38.3625 116.792 38.881C116.792 56.843 116.794 74.8053 116.799 92.768C116.808 94.4747 116.44 96.1624 115.721 97.7101C115.001 99.2578 113.948 100.627 112.637 101.72C111.889 102.29 111.085 102.783 110.237 103.191C105.37 106.03 100.497 108.858 95.616 111.674C90.43 114.674 85.2417 117.669 80.051 120.659C75.0637 123.548 70.0817 126.448 65.105 129.359C63.8659 130.193 62.4715 130.768 61.005 131.05C58.5689 131.525 56.0444 131.204 53.805 130.134C51.323 128.803 48.905 127.359 46.458 125.957C43.172 124.072 39.8877 122.183 36.605 120.29C35.6777 119.757 34.7497 119.226 33.821 118.699C33.48 118.505 33.247 118.308 33.513 117.863C34.741 115.806 35.95 113.737 37.172 111.676C37.215 111.601 37.325 111.566 37.404 111.511C38.5426 112.043 39.645 112.649 40.704 113.326C46.066 116.393 51.4197 119.474 56.765 122.571C57.3826 122.961 58.0999 123.165 58.8305 123.157C59.5611 123.149 60.2739 122.931 60.883 122.527C65.96 119.548 71.063 116.612 76.155 113.661C76.407 113.515 76.665 113.382 76.921 113.244C77.4011 112.631 78.0423 112.163 78.773 111.893C83.373 109.257 87.939 106.569 92.538 103.94C92.922 103.721 93.268 103.383 93.768 103.44L98.274 100.83C98.549 100.254 99.136 100.068 99.628 99.784C101.895 98.475 104.141 97.13 106.428 95.863C107.09 95.5146 107.637 94.9827 108.004 94.331C108.371 93.6793 108.542 92.9355 108.497 92.189C108.52 89.895 108.497 87.6 108.508 85.305C108.428 84.8837 108.512 84.4479 108.742 84.086V84.086Z" fill="#96BEDC" />
</svg>
    