<svg width="174" height="24" viewBox="0 0 174 24" fill="none" xmlns="http://www.w3.org/2000/svg">
<path d="M21.7588 15.3619H11.2062C10.9261 15.3619 10.786 15.2218 10.786 14.9416V9.33852C10.786 9.02724 10.9261 8.8716 11.2062 8.8716H25.1206C25.6187 8.8716 26.1012 8.99611 26.5681 9.24514C27.0662 9.46303 27.5019 9.77432 27.8755 10.179C28.2802 10.5837 28.5914 11.035 28.8093 11.5331C29.0584 12.0311 29.1829 12.5292 29.1829 13.0272V19.8911C29.1829 20.4202 29.0584 20.9339 28.8093 21.4319C28.5914 21.8988 28.2802 22.3346 27.8755 22.7393C27.5019 23.1128 27.0662 23.4241 26.5681 23.6732C26.1012 23.8911 25.6187 24 25.1206 24H4.10895C3.6109 24 3.11284 23.8911 2.61479 23.6732C2.14786 23.4241 1.71206 23.1128 1.30739 22.7393C0.933852 22.3346 0.622568 21.8988 0.373541 21.4319C0.124514 20.9339 0 20.4202 0 19.8911V4.3891C0 3.89105 0.124514 3.39299 0.373541 2.89494C0.622568 2.39689 0.933852 1.96109 1.30739 1.58755C1.71206 1.18288 2.14786 0.871594 2.61479 0.653696C3.11284 0.404669 3.6109 0.280155 4.10895 0.280155H28.7626C29.0428 0.280155 29.1829 0.420233 29.1829 0.700388V6.86381C29.1829 7.14397 29.0428 7.28405 28.7626 7.28405H7.47082V16.9494H21.7588V15.3619Z" fill="#72F34B"/>
<path d="M53.0957 8.35798C53.0957 8.10895 52.9089 7.98443 52.5354 7.98443C52.2864 7.98443 52.0062 8.12451 51.6949 8.40467C51.4148 8.6537 51.1502 8.91829 50.9011 9.19844L50.9478 9.15175L47.119 13.821H53.0957V8.35798ZM60.5198 5.88327V23.5331C60.5198 23.8444 60.3797 24 60.0996 24H53.5626C53.2513 24 53.0957 23.8444 53.0957 23.5331V20.2179H42.3097L39.4615 23.8132C39.4303 23.9377 39.3058 24 39.0879 24H31.4303C31.2124 24 31.0724 23.9222 31.0101 23.7665C30.9478 23.5798 30.9634 23.4086 31.0568 23.2529L47.0724 1.96109C47.8506 1.33852 48.8467 0.902723 50.0607 0.653696C51.2747 0.404669 52.5354 0.280155 53.8428 0.280155C54.8389 0.280155 55.7416 0.37354 56.551 0.56031C57.3914 0.715952 58.0918 1.01167 58.6521 1.44747C59.2436 1.88327 59.6949 2.45914 60.0062 3.1751C60.3486 3.89105 60.5198 4.79377 60.5198 5.88327Z" fill="#72F34B"/>
<path d="M71.3879 24H64.8509C64.5396 24 64.384 23.8444 64.384 23.5331V3.59533C64.384 3.19066 64.493 2.78599 64.7109 2.38132C64.9287 1.97665 65.2245 1.61868 65.598 1.30739C66.0027 0.996108 66.454 0.74708 66.9521 0.56031C67.4502 0.37354 67.9793 0.280155 68.5396 0.280155H70.3607C71.2634 0.373541 72.135 0.700389 72.9754 1.2607C73.8159 1.78988 74.4852 2.45914 74.9832 3.26848L81.8004 14.5681L88.6642 3.26848C89.1622 2.45914 89.8159 1.78988 90.6253 1.2607C91.4657 0.700389 92.3373 0.373541 93.24 0.280155H95.0611C95.6214 0.280155 96.1505 0.37354 96.6486 0.56031C97.1778 0.74708 97.6291 0.996108 98.0027 1.30739C98.4074 1.61868 98.7186 1.97665 98.9365 2.38132C99.1544 2.78599 99.2634 3.19066 99.2634 3.59533V23.5331C99.2634 23.8444 99.1077 24 98.7965 24H92.2595C91.9482 24 91.7926 23.8444 91.7926 23.5331V12.5136C90.4852 14.6926 89.2712 16.607 88.1506 18.2568C87.0611 19.8755 86.2206 21.0895 85.6291 21.8988C84.9443 22.8016 84.3062 23.3774 83.7147 23.6265C83.1233 23.8755 82.6564 24 82.314 24H81.3334C80.7731 24 80.2439 23.8755 79.7459 23.6265C79.2789 23.3774 78.7031 22.8016 78.0182 21.8988C77.3957 21.0895 76.5241 19.8755 75.4035 18.2568C74.314 16.607 73.1155 14.6926 71.8081 12.5136V23.5331C71.8081 23.8444 71.6681 24 71.3879 24Z" fill="#72F34B"/>
<path d="M124.642 8.8716H112.642C112.362 8.8716 112.222 9.02724 112.222 9.33852V14.9416C112.222 15.2218 112.362 15.3619 112.642 15.3619H128.004C128.502 15.3619 128.984 15.2529 129.451 15.035C129.949 14.786 130.385 14.4747 130.759 14.1012C131.163 13.6965 131.475 13.2607 131.692 12.7938C131.942 12.2957 132.066 11.7821 132.066 11.2529V4.3891C132.066 3.89105 131.942 3.39299 131.692 2.89494C131.475 2.39689 131.163 1.96109 130.759 1.58755C130.385 1.18288 129.949 0.871594 129.451 0.653696C128.984 0.404669 128.502 0.280155 128.004 0.280155H107.272C106.774 0.280155 106.276 0.404669 105.778 0.653696C105.311 0.871594 104.875 1.18288 104.471 1.58755C104.097 1.96109 103.786 2.39689 103.537 2.89494C103.288 3.39299 103.163 3.89105 103.163 4.3891V19.8911C103.163 20.4202 103.288 20.9339 103.537 21.4319C103.786 21.8988 104.097 22.3346 104.471 22.7393C104.875 23.1128 105.311 23.4241 105.778 23.6732C106.276 23.8911 106.774 24 107.272 24H131.646C131.926 24 132.066 23.8444 132.066 23.5331V17.4163C132.066 17.1051 131.926 16.9494 131.646 16.9494H110.634V7.28405H124.642V8.8716Z" fill="#72F34B"/>
<path d="M136.486 23.1128H142.836V14.7082H161.327V9.29183H142.836V6.86381H161.373V0.887158H139.988C139.552 0.887158 139.132 0.996107 138.727 1.21401C138.323 1.40078 137.949 1.66537 137.607 2.00778C137.264 2.35019 136.984 2.7393 136.766 3.1751C136.58 3.61089 136.486 4.04669 136.486 4.48249V23.1128ZM142.836 24H136.486C135.895 24 135.599 23.7043 135.599 23.1128V4.48249C135.599 3.92218 135.724 3.37743 135.973 2.84825C136.253 2.31907 136.595 1.85214 137 1.44747C137.436 1.01167 137.902 0.66926 138.401 0.420234C138.93 0.140078 139.459 0 139.988 0H161.373C161.965 0 162.26 0.295719 162.26 0.887158V6.86381C162.26 7.45525 161.965 7.75097 161.373 7.75097H143.724V8.40467H161.327C161.918 8.40467 162.214 8.70039 162.214 9.29183V14.7082C162.214 15.2996 161.918 15.5953 161.327 15.5953H143.724V23.1128C143.724 23.7043 143.428 24 142.836 24Z" fill="#72F34B"/>
<path d="M172.763 23.1128V1.40078H166.46V23.1128H172.763ZM173.603 1.40078V23.1128C173.603 23.7043 173.323 24 172.763 24H166.46C165.899 24 165.619 23.7043 165.619 23.1128V1.40078C165.619 0.809337 165.899 0.513618 166.46 0.513618H172.763C173.323 0.513618 173.603 0.809337 173.603 1.40078Z" fill="#72F34B"/>
</svg>
