<svg width="130" height="53" viewBox="0 0 130 53" fill="none" xmlns="http://www.w3.org/2000/svg">
<path d="M47.6436 33.6368H24.5375C23.9241 33.6368 23.6173 33.3301 23.6173 32.7167V20.4479C23.6173 19.7663 23.9241 19.4255 24.5375 19.4255H55.0049C56.0954 19.4255 57.1519 19.6982 58.1743 20.2434C59.2649 20.7206 60.2191 21.4021 61.037 22.2882C61.9231 23.1743 62.6047 24.1626 63.0818 25.2532C63.6271 26.3437 63.8997 27.4343 63.8997 28.5248V43.5541C63.8997 44.7128 63.6271 45.8374 63.0818 46.928C62.6047 47.9504 61.9231 48.9046 61.037 49.7907C60.2191 50.6086 59.2649 51.2902 58.1743 51.8355C57.1519 52.3126 56.0954 52.5511 55.0049 52.5511H8.99708C7.90653 52.5511 6.81597 52.3126 5.72542 51.8355C4.70302 51.2902 3.74878 50.6086 2.86271 49.7907C2.04479 48.9046 1.36319 47.9504 0.817917 46.928C0.272639 45.8374 0 44.7128 0 43.5541V9.61052C0 8.51996 0.272639 7.42941 0.817917 6.33885C1.36319 5.2483 2.04479 4.29406 2.86271 3.47614C3.74878 2.59007 4.70302 1.90847 5.72542 1.43135C6.81597 0.886075 7.90653 0.613436 8.99708 0.613436H62.9796C63.593 0.613436 63.8997 0.920155 63.8997 1.53359V15.0292C63.8997 15.6427 63.593 15.9494 62.9796 15.9494H16.3583V37.113H47.6436V33.6368Z" fill="#72F34B"/>
<path d="M73.5638 50.6086H87.4683V32.2055H127.955V20.3457H87.4683V15.0292H128.057V1.94255H81.2317C80.2775 1.94255 79.3573 2.18111 78.4713 2.65823C77.5852 3.06718 76.7673 3.64654 76.0175 4.3963C75.2678 5.14606 74.6543 5.99805 74.1772 6.95229C73.7682 7.90653 73.5638 8.86076 73.5638 9.815V50.6086ZM87.4683 52.5511H73.5638C72.2687 52.5511 71.6212 51.9036 71.6212 50.6086V9.815C71.6212 8.58812 71.8938 7.39533 72.4391 6.23661C73.0526 5.0779 73.8023 4.0555 74.6884 3.16943C75.6426 2.21519 76.665 1.46543 77.7556 0.920156C78.9143 0.306719 80.073 0 81.2317 0H128.057C129.352 0 130 0.647516 130 1.94255V15.0292C130 16.3243 129.352 16.9718 128.057 16.9718H89.4109V18.4031H127.955C129.25 18.4031 129.898 19.0506 129.898 20.3457V32.2055C129.898 33.5005 129.25 34.148 127.955 34.148H89.4109V50.6086C89.4109 51.9036 88.7634 52.5511 87.4683 52.5511Z" fill="#72F34B"/>
</svg>
