<svg width="1437" height="108" viewBox="0 0 1437 108" fill="none" xmlns="http://www.w3.org/2000/svg">
<path opacity="0.05" d="M87.7609 42.27H0.400938V104.01H28.9609V66.63H100.571C102.391 66.63 104.211 66.21 106.031 65.37C107.991 64.39 109.741 63.13 111.281 61.59C112.821 60.05 114.011 58.37 114.851 56.55C115.831 54.59 116.321 52.63 116.321 50.67V20.22C116.321 18.26 115.831 16.3 114.851 14.34C114.011 12.38 112.821 10.63 111.281 9.09C109.741 7.55 107.991 6.35999 106.031 5.51999C104.211 4.53999 102.391 4.04999 100.571 4.04999H0.400938V30.93H87.7609V42.27ZM0.400938 38.28H83.7709V34.92H0.400938C-2.25906 34.92 -3.58906 33.59 -3.58906 30.93V4.04999C-3.58906 1.39 -2.25906 0.0600003 0.400938 0.0600003H100.571C102.811 0.0600003 105.121 0.690001 107.501 1.95C109.881 3.07 111.981 4.61 113.801 6.57C115.761 8.39 117.301 10.49 118.421 12.87C119.681 15.25 120.311 17.7 120.311 20.22V50.67C120.311 53.19 119.681 55.64 118.421 58.02C117.301 60.4 115.761 62.57 113.801 64.53C111.981 66.35 109.881 67.82 107.501 68.94C105.121 70.06 102.811 70.62 100.571 70.62H32.9509V104.01C32.9509 106.67 31.6209 108 28.9609 108H0.400938C-2.25906 108 -3.58906 106.67 -3.58906 104.01V42.27C-3.58906 39.61 -2.25906 38.28 0.400938 38.28ZM182.435 36.18L197.555 64.53H167.525L182.435 36.18ZM148.205 104.01L155.975 87.84H208.685L216.455 104.01H247.535L207.635 20.22C205.395 15.6 202.945 12.17 200.285 9.93C197.625 7.55 194.055 6.35999 189.575 6.35999H177.185C168.225 6.35999 161.575 10.98 157.235 20.22L117.125 104.01H148.205ZM158.495 91.62L151.775 105.69C151.495 106.25 151.005 106.81 150.305 107.37C149.605 107.79 148.905 108 148.205 108H117.125C115.585 108 114.395 107.44 113.555 106.32C112.855 105.06 112.855 103.73 113.555 102.33L153.665 18.54C158.985 7.76 166.825 2.37 177.185 2.37H189.575C194.895 2.37 199.095 3.77 202.175 6.57C205.395 9.23 208.335 13.22 210.995 18.54L251.105 102.33C251.805 103.73 251.735 105.06 250.895 106.32C250.195 107.44 249.075 108 247.535 108H216.455C215.895 108 215.265 107.79 214.565 107.37C213.865 106.81 213.375 106.25 213.095 105.69L206.375 91.62H158.495ZM191.045 60.54L182.435 44.58L173.825 60.54H191.045ZM356.991 43.32H271.521V104.01H299.451V67.05H328.011L356.781 104.01H388.491L361.611 67.05H369.591C371.411 67.05 373.231 66.63 375.051 65.79C377.011 64.81 378.691 63.62 380.091 62.22C381.631 60.68 382.821 59 383.661 57.18C384.641 55.22 385.131 53.26 385.131 51.3V22.11C385.131 20.15 384.641 18.26 383.661 16.44C382.821 14.48 381.631 12.8 380.091 11.4C378.691 9.86 377.011 8.67 375.051 7.82999C373.231 6.84999 371.411 6.35999 369.591 6.35999H271.521V32.61H356.991V43.32ZM271.521 39.33H353.211V36.39H271.521C268.861 36.39 267.531 35.13 267.531 32.61V6.35999C267.531 3.7 268.861 2.37 271.521 2.37H369.591C371.831 2.37 374.071 2.92999 376.311 4.04999C378.691 5.17 380.791 6.71 382.611 8.67C384.431 10.49 385.901 12.59 387.021 14.97C388.281 17.21 388.911 19.59 388.911 22.11V51.3C388.911 53.82 388.281 56.27 387.021 58.65C385.901 60.89 384.431 62.99 382.611 64.95C380.791 66.77 378.691 68.24 376.311 69.36C374.071 70.48 371.831 71.04 369.591 71.04H369.381C373.161 76.22 376.801 81.33 380.301 86.37C383.941 91.41 387.651 96.52 391.431 101.7C392.551 103.1 392.761 104.5 392.061 105.9C391.361 107.3 390.171 108 388.491 108H356.781C356.361 108 355.801 107.86 355.101 107.58C354.401 107.16 353.911 106.81 353.631 106.53L326.121 71.04H303.441V104.01C303.441 106.67 302.111 108 299.451 108H271.521C268.861 108 267.531 106.67 267.531 104.01V43.32C267.531 40.66 268.861 39.33 271.521 39.33ZM411.688 6.35999V32.61H455.788V104.01H483.928V32.61H528.028V6.35999H411.688ZM407.698 32.61V6.35999C407.698 3.7 409.028 2.37 411.688 2.37H528.028C530.548 2.37 531.808 3.7 531.808 6.35999V32.61C531.808 35.13 530.548 36.39 528.028 36.39H487.708V104.01C487.708 106.67 486.448 108 483.928 108H455.788C453.268 108 452.008 106.67 452.008 104.01V36.39H411.688C409.028 36.39 407.698 35.13 407.698 32.61ZM577.821 2.57999L580.131 3.63C579.431 2.92999 578.801 2.57999 578.241 2.57999C577.681 2.43999 576.981 2.37 576.141 2.37H570.891C568.091 2.37 565.501 2.86 563.121 3.84C560.741 4.82 558.641 6.08 556.821 7.62C555.141 9.16 553.741 10.91 552.621 12.87C551.641 14.83 551.151 16.72 551.151 18.54V104.01C551.151 106.67 552.411 108 554.931 108H583.071C585.591 108 586.851 106.67 586.851 104.01V51.93C603.371 68.03 617.091 80.91 628.011 90.57C639.071 100.09 647.121 105.69 652.161 107.37C652.581 107.79 652.931 108 653.211 108H654.891H660.351C663.011 108 665.531 107.58 667.911 106.74C670.291 105.76 672.391 104.5 674.211 102.96C676.031 101.42 677.431 99.67 678.411 97.71C679.531 95.75 680.091 93.79 680.091 91.83V6.35999C680.091 3.7 678.761 2.37 676.101 2.37H648.171C645.511 2.37 644.181 3.7 644.181 6.35999V58.23L631.371 45.84C623.531 38.42 616.741 32.05 611.001 26.73C605.261 21.41 600.291 17 596.091 13.5C591.891 10 588.321 7.41 585.381 5.73C582.581 3.91 580.061 2.86 577.821 2.57999ZM577.401 6.35999C579.641 6.63999 582.441 7.96999 585.801 10.35C589.301 12.73 593.781 16.37 599.241 21.27C604.701 26.17 611.351 32.4 619.191 39.96C627.171 47.52 636.831 56.62 648.171 67.26V6.35999H676.101V91.83C676.101 94.91 674.561 97.71 671.481 100.23C668.401 102.75 664.691 104.01 660.351 104.01H654.891H654.051C651.951 103.73 649.081 102.4 645.441 100.02C641.941 97.5 637.321 93.79 631.581 88.89C625.981 83.85 619.191 77.55 611.211 69.99C603.231 62.43 593.851 53.4 583.071 42.9V104.01H554.931V18.54C554.931 15.46 556.471 12.66 559.551 10.14C562.631 7.61999 566.411 6.35999 570.891 6.35999H576.141H577.401ZM718.63 104.01H812.92V77.76H731.23V67.05H812.71V43.32H731.23V32.61H812.92V6.35999H718.63C716.67 6.35999 714.78 6.84999 712.96 7.82999C711.14 8.67 709.46 9.86 707.92 11.4C706.52 12.8 705.33 14.48 704.35 16.44C703.51 18.26 703.09 20.15 703.09 22.11V88.26C703.09 90.22 703.51 92.18 704.35 94.14C705.33 95.96 706.52 97.64 707.92 99.18C709.46 100.58 711.14 101.77 712.96 102.75C714.78 103.59 716.67 104.01 718.63 104.01ZM718.63 108C716.25 108 713.94 107.44 711.7 106.32C709.46 105.2 707.36 103.73 705.4 101.91C703.58 99.95 702.11 97.85 700.99 95.61C699.87 93.23 699.31 90.78 699.31 88.26V22.11C699.31 19.59 699.87 17.21 700.99 14.97C702.11 12.59 703.58 10.49 705.4 8.67C707.36 6.71 709.46 5.17 711.7 4.04999C713.94 2.92999 716.25 2.37 718.63 2.37H812.92C815.44 2.37 816.7 3.7 816.7 6.35999V32.61C816.7 35.13 815.44 36.39 812.92 36.39H735.01V39.33H812.71C815.23 39.33 816.49 40.66 816.49 43.32V67.05C816.49 69.71 815.23 71.04 812.71 71.04H735.01V73.98H812.92C815.44 73.98 816.7 75.24 816.7 77.76V104.01C816.7 106.67 815.44 108 812.92 108H718.63ZM924.836 43.32H839.366V104.01H867.296V67.05H895.856L924.626 104.01H956.336L929.456 67.05H937.436C939.256 67.05 941.076 66.63 942.896 65.79C944.856 64.81 946.536 63.62 947.936 62.22C949.476 60.68 950.666 59 951.506 57.18C952.486 55.22 952.976 53.26 952.976 51.3V22.11C952.976 20.15 952.486 18.26 951.506 16.44C950.666 14.48 949.476 12.8 947.936 11.4C946.536 9.86 944.856 8.67 942.896 7.82999C941.076 6.84999 939.256 6.35999 937.436 6.35999H839.366V32.61H924.836V43.32ZM839.366 39.33H921.056V36.39H839.366C836.706 36.39 835.376 35.13 835.376 32.61V6.35999C835.376 3.7 836.706 2.37 839.366 2.37H937.436C939.676 2.37 941.916 2.92999 944.156 4.04999C946.536 5.17 948.636 6.71 950.456 8.67C952.276 10.49 953.746 12.59 954.866 14.97C956.126 17.21 956.756 19.59 956.756 22.11V51.3C956.756 53.82 956.126 56.27 954.866 58.65C953.746 60.89 952.276 62.99 950.456 64.95C948.636 66.77 946.536 68.24 944.156 69.36C941.916 70.48 939.676 71.04 937.436 71.04H937.226C941.006 76.22 944.646 81.33 948.146 86.37C951.786 91.41 955.496 96.52 959.276 101.7C960.396 103.1 960.606 104.5 959.906 105.9C959.206 107.3 958.016 108 956.336 108H924.626C924.206 108 923.646 107.86 922.946 107.58C922.246 107.16 921.756 106.81 921.476 106.53L893.966 71.04H871.286V104.01C871.286 106.67 869.956 108 867.296 108H839.366C836.706 108 835.376 106.67 835.376 104.01V43.32C835.376 40.66 836.706 39.33 839.366 39.33ZM995.073 67.05H1070.46V77.76H979.533V104.01H1082.85C1084.67 104.01 1086.49 103.59 1088.31 102.75C1090.27 101.77 1091.95 100.58 1093.35 99.18C1094.89 97.64 1096.08 95.96 1096.92 94.14C1097.9 92.18 1098.39 90.22 1098.39 88.26V59.07C1098.39 57.11 1097.9 55.22 1096.92 53.4C1096.08 51.44 1094.89 49.76 1093.35 48.36C1091.95 46.82 1090.27 45.63 1088.31 44.79C1086.49 43.81 1084.67 43.32 1082.85 43.32H1007.46V32.61H1098.39V6.35999H995.073C993.113 6.35999 991.223 6.84999 989.403 7.82999C987.583 8.67 985.903 9.86 984.363 11.4C982.963 12.8 981.773 14.48 980.793 16.44C979.953 18.26 979.533 20.15 979.533 22.11V51.3C979.533 53.26 979.953 55.22 980.793 57.18C981.773 59 982.963 60.68 984.363 62.22C985.903 63.62 987.583 64.81 989.403 65.79C991.223 66.63 993.113 67.05 995.073 67.05ZM1066.47 71.04H995.073C992.693 71.04 990.383 70.48 988.143 69.36C985.903 68.24 983.803 66.77 981.843 64.95C980.023 62.99 978.553 60.89 977.433 58.65C976.313 56.27 975.753 53.82 975.753 51.3V22.11C975.753 19.59 976.313 17.21 977.433 14.97C978.553 12.59 980.023 10.49 981.843 8.67C983.803 6.71 985.903 5.17 988.143 4.04999C990.383 2.92999 992.693 2.37 995.073 2.37H1098.39C1101.05 2.37 1102.38 3.7 1102.38 6.35999V32.61C1102.38 35.13 1101.05 36.39 1098.39 36.39H1011.45V39.33H1082.85C1085.09 39.33 1087.33 39.89 1089.57 41.01C1091.95 42.13 1094.05 43.67 1095.87 45.63C1097.83 47.45 1099.37 49.55 1100.49 51.93C1101.75 54.17 1102.38 56.55 1102.38 59.07V88.26C1102.38 90.78 1101.75 93.23 1100.49 95.61C1099.37 97.85 1097.83 99.95 1095.87 101.91C1094.05 103.73 1091.95 105.2 1089.57 106.32C1087.33 107.44 1085.09 108 1082.85 108H979.533C977.013 108 975.753 106.67 975.753 104.01V77.76C975.753 75.24 977.013 73.98 979.533 73.98H1066.47V71.04ZM1153.37 43.32V6.35999H1125.44V104.01H1153.37V67.05H1216.37V104.01H1244.3V6.35999H1216.37V43.32H1153.37ZM1157.36 6.35999V39.33H1212.38V6.35999C1212.38 3.7 1213.71 2.37 1216.37 2.37H1244.3C1246.96 2.37 1248.29 3.7 1248.29 6.35999V104.01C1248.29 106.67 1246.96 108 1244.3 108H1216.37C1213.71 108 1212.38 106.67 1212.38 104.01V71.04H1157.36V104.01C1157.36 106.67 1156.03 108 1153.37 108H1125.44C1122.92 108 1121.66 106.67 1121.66 104.01V6.35999C1121.66 3.7 1122.92 2.37 1125.44 2.37H1153.37C1156.03 2.37 1157.36 3.7 1157.36 6.35999ZM1297.81 104.01V6.35999H1269.46V104.01H1297.81ZM1301.59 6.35999V104.01C1301.59 106.67 1300.33 108 1297.81 108H1269.46C1266.94 108 1265.68 106.67 1265.68 104.01V6.35999C1265.68 3.7 1266.94 2.37 1269.46 2.37H1297.81C1300.33 2.37 1301.59 3.7 1301.59 6.35999ZM1404.91 43.32H1319.44V104.01H1347.37V67.05H1417.3C1419.12 67.05 1420.94 66.63 1422.76 65.79C1424.72 64.81 1426.47 63.62 1428.01 62.22C1429.55 60.68 1430.74 59 1431.58 57.18C1432.56 55.22 1433.05 53.26 1433.05 51.3V22.11C1433.05 20.15 1432.56 18.26 1431.58 16.44C1430.74 14.48 1429.55 12.8 1428.01 11.4C1426.47 9.86 1424.72 8.67 1422.76 7.82999C1420.94 6.84999 1419.12 6.35999 1417.3 6.35999H1319.44V32.61H1404.91V43.32ZM1319.44 39.33H1401.13V36.39H1319.44C1316.78 36.39 1315.45 35.13 1315.45 32.61V6.35999C1315.45 3.7 1316.78 2.37 1319.44 2.37H1417.3C1419.54 2.37 1421.85 2.92999 1424.23 4.04999C1426.61 5.17 1428.71 6.71 1430.53 8.67C1432.35 10.49 1433.82 12.59 1434.94 14.97C1436.2 17.21 1436.83 19.59 1436.83 22.11V51.3C1436.83 53.82 1436.2 56.27 1434.94 58.65C1433.82 60.89 1432.35 62.99 1430.53 64.95C1428.71 66.77 1426.61 68.24 1424.23 69.36C1421.85 70.48 1419.54 71.04 1417.3 71.04H1351.15V104.01C1351.15 106.67 1349.89 108 1347.37 108H1319.44C1316.78 108 1315.45 106.67 1315.45 104.01V43.32C1315.45 40.66 1316.78 39.33 1319.44 39.33Z" fill="white"/>
</svg>
