<svg width="1440" height="134" viewBox="0 0 1440 134" fill="none" xmlns="http://www.w3.org/2000/svg">
<path opacity="0.1" d="M12.2848 82.26H107.445V95.78H-21.5152V129.06H123.045C125.471 129.06 127.811 128.54 130.065 127.5C132.491 126.287 134.658 124.727 136.565 122.82C138.471 120.913 139.945 118.833 140.985 116.58C142.198 114.153 142.805 111.64 142.805 109.04V72.12C142.805 69.52 142.198 67.0933 140.985 64.84C139.945 62.4133 138.471 60.2467 136.565 58.34C134.658 56.4333 132.491 54.96 130.065 53.92C127.811 52.7067 125.471 52.1 123.045 52.1H27.8848V38.58H142.805V5.29999H12.2848C9.85811 5.29999 7.43145 5.90666 5.00478 7.11999C2.75145 8.15999 0.671447 9.63333 -1.23522 11.54C-3.14189 13.4467 -4.70189 15.6133 -5.91522 18.04C-6.95522 20.4667 -7.47522 22.8933 -7.47522 25.32V62.5C-7.47522 64.9267 -6.95522 67.3533 -5.91522 69.78C-4.70189 72.0333 -3.14189 74.1133 -1.23522 76.02C0.671447 77.9267 2.75145 79.4867 5.00478 80.7C7.43145 81.74 9.85811 82.26 12.2848 82.26ZM102.505 87.2H12.2848C9.33811 87.2 6.39145 86.5067 3.44478 85.12C0.498112 83.7333 -2.18855 81.9133 -4.61522 79.66C-6.86855 77.2333 -8.77522 74.5467 -10.3352 71.6C-11.7219 68.6533 -12.4152 65.62 -12.4152 62.5V25.32C-12.4152 22.2 -11.7219 19.1667 -10.3352 16.22C-8.77522 13.2733 -6.86855 10.6733 -4.61522 8.42C-2.18855 5.99333 0.498112 4.08667 3.44478 2.7C6.39145 1.14 9.33811 0.36 12.2848 0.36H142.805C146.098 0.36 147.745 2.00666 147.745 5.29999V38.58C147.745 41.8733 146.098 43.52 142.805 43.52H32.8248V47.16H123.045C125.991 47.16 128.938 47.94 131.885 49.5C134.831 50.8867 137.431 52.7933 139.685 55.22C142.111 57.4733 144.018 60.0733 145.405 63.02C146.965 65.9667 147.745 69 147.745 72.12V109.04C147.745 112.16 146.965 115.28 145.405 118.4C144.018 121.347 142.111 124.033 139.685 126.46C137.431 128.713 134.831 130.533 131.885 131.92C128.938 133.307 125.991 134 123.045 134H-21.5152C-24.8086 134 -26.4552 132.353 -26.4552 129.06V95.78C-26.4552 92.4867 -24.8086 90.84 -21.5152 90.84H102.505V87.2ZM289.554 96.56H209.474V8.15999H174.634V109.56C174.634 111.987 175.154 114.413 176.194 116.84C177.408 119.093 178.881 121.173 180.614 123.08C182.521 124.813 184.601 126.287 186.854 127.5C189.281 128.54 191.621 129.06 193.874 129.06H304.894C307.148 129.06 309.401 128.54 311.654 127.5C314.081 126.287 316.161 124.813 317.894 123.08C319.801 121.173 321.274 119.093 322.314 116.84C323.528 114.413 324.134 111.987 324.134 109.56V8.15999H289.554V96.56ZM214.154 91.88H284.874V8.15999C284.874 4.86666 286.434 3.21999 289.554 3.21999H324.134C327.428 3.21999 329.074 4.86666 329.074 8.15999V109.56C329.074 112.68 328.294 115.713 326.734 118.66C325.348 121.433 323.528 124.033 321.274 126.46C319.021 128.713 316.421 130.533 313.474 131.92C310.528 133.307 307.668 134 304.894 134H193.874C190.928 134 188.068 133.307 185.294 131.92C182.521 130.533 179.921 128.713 177.494 126.46C175.241 124.033 173.421 121.433 172.034 118.66C170.648 115.713 169.954 112.68 169.954 109.56V8.15999C169.954 4.86666 171.514 3.21999 174.634 3.21999H209.474C212.594 3.21999 214.154 4.86666 214.154 8.15999V91.88ZM392.663 83.3H471.443V96.56H392.663V83.3ZM454.543 40.66V53.92H357.823V129.06H487.043C489.296 129.06 491.549 128.54 493.803 127.5C496.229 126.287 498.309 124.813 500.043 123.08C501.949 121.173 503.423 119.093 504.463 116.84C505.676 114.413 506.283 111.987 506.283 109.56V73.42C506.283 71.1667 505.763 69 504.723 66.92C503.856 64.6667 502.556 62.6733 500.823 60.94C499.263 59.0333 497.443 57.4733 495.363 56.26C493.283 55.0467 491.203 54.2667 489.123 53.92V27.66C489.123 25.2333 488.516 22.8933 487.303 20.64C486.263 18.2133 484.789 16.1333 482.883 14.4C481.149 12.4933 479.069 11.02 476.643 9.97999C474.389 8.76666 472.136 8.15999 469.883 8.15999H357.823V40.66H454.543ZM449.603 48.98V45.34H357.823C354.703 45.34 353.143 43.78 353.143 40.66V8.15999C353.143 4.86666 354.703 3.21999 357.823 3.21999H469.883C472.656 3.21999 475.429 3.91333 478.203 5.29999C481.149 6.68666 483.749 8.59333 486.003 11.02C488.429 13.2733 490.336 15.8733 491.723 18.82C493.283 21.5933 494.063 24.54 494.063 27.66V50.28C498.569 52.0133 502.469 55.0467 505.763 59.38C509.229 63.7133 510.963 68.3933 510.963 73.42V109.56C510.963 112.68 510.183 115.713 508.623 118.66C507.236 121.433 505.416 124.033 503.163 126.46C500.909 128.713 498.309 130.533 495.363 131.92C492.589 133.307 489.816 134 487.043 134H357.823C354.703 134 353.143 132.353 353.143 129.06V53.92C353.143 50.6267 354.703 48.98 357.823 48.98H449.603ZM466.763 88.24H397.343V91.88H466.763V88.24ZM558.981 83.3H652.321V96.56H539.741V129.06H667.661C669.915 129.06 672.168 128.54 674.421 127.5C676.848 126.287 678.928 124.813 680.661 123.08C682.568 121.173 684.041 119.093 685.081 116.84C686.295 114.413 686.901 111.987 686.901 109.56V73.42C686.901 70.9933 686.295 68.6533 685.081 66.4C684.041 63.9733 682.568 61.8933 680.661 60.16C678.928 58.2533 676.848 56.78 674.421 55.74C672.168 54.5267 669.915 53.92 667.661 53.92H574.321V40.66H686.901V8.15999H558.981C556.555 8.15999 554.215 8.76666 551.961 9.97999C549.708 11.02 547.628 12.4933 545.721 14.4C543.988 16.1333 542.515 18.2133 541.301 20.64C540.261 22.8933 539.741 25.2333 539.741 27.66V63.8C539.741 66.2267 540.261 68.6533 541.301 71.08C542.515 73.3333 543.988 75.4133 545.721 77.32C547.628 79.0533 549.708 80.5267 551.961 81.74C554.215 82.78 556.555 83.3 558.981 83.3ZM647.381 88.24H558.981C556.035 88.24 553.175 87.5467 550.401 86.16C547.628 84.7733 545.028 82.9533 542.601 80.7C540.348 78.2733 538.528 75.6733 537.141 72.9C535.755 69.9533 535.061 66.92 535.061 63.8V27.66C535.061 24.54 535.755 21.5933 537.141 18.82C538.528 15.8733 540.348 13.2733 542.601 11.02C545.028 8.59333 547.628 6.68666 550.401 5.29999C553.175 3.91333 556.035 3.21999 558.981 3.21999H686.901C690.195 3.21999 691.841 4.86666 691.841 8.15999V40.66C691.841 43.78 690.195 45.34 686.901 45.34H579.261V48.98H667.661C670.435 48.98 673.208 49.6733 675.981 51.06C678.928 52.4467 681.528 54.3533 683.781 56.78C686.208 59.0333 688.115 61.6333 689.501 64.58C691.061 67.3533 691.841 70.3 691.841 73.42V109.56C691.841 112.68 691.061 115.713 689.501 118.66C688.115 121.433 686.208 124.033 683.781 126.46C681.528 128.713 678.928 130.533 675.981 131.92C673.208 133.307 670.435 134 667.661 134H539.741C536.621 134 535.061 132.353 535.061 129.06V96.56C535.061 93.44 536.621 91.88 539.741 91.88H647.381V88.24ZM739.631 129.06H850.651C852.904 129.06 855.157 128.54 857.411 127.5C859.837 126.287 861.917 124.813 863.651 123.08C865.557 121.173 867.031 119.093 868.071 116.84C869.284 114.413 869.891 111.987 869.891 109.56V82.26H835.311V96.56H755.231V40.66H835.311V54.96H869.891V27.66C869.891 25.2333 869.284 22.8933 868.071 20.64C867.031 18.2133 865.557 16.1333 863.651 14.4C861.917 12.4933 859.837 11.02 857.411 9.97999C855.157 8.76666 852.904 8.15999 850.651 8.15999H739.631C737.377 8.15999 735.037 8.76666 732.611 9.97999C730.357 11.02 728.277 12.4933 726.371 14.4C724.637 16.1333 723.164 18.2133 721.951 20.64C720.911 22.8933 720.391 25.2333 720.391 27.66V109.56C720.391 111.987 720.911 114.413 721.951 116.84C723.164 119.093 724.637 121.173 726.371 123.08C728.277 124.813 730.357 126.287 732.611 127.5C735.037 128.54 737.377 129.06 739.631 129.06ZM739.631 134C736.684 134 733.824 133.307 731.051 131.92C728.277 130.533 725.677 128.713 723.251 126.46C720.997 124.033 719.177 121.433 717.791 118.66C716.404 115.713 715.711 112.68 715.711 109.56V27.66C715.711 24.54 716.404 21.5933 717.791 18.82C719.177 15.8733 720.997 13.2733 723.251 11.02C725.677 8.59333 728.277 6.68666 731.051 5.29999C733.824 3.91333 736.684 3.21999 739.631 3.21999H850.651C853.424 3.21999 856.284 3.91333 859.231 5.29999C862.177 6.68666 864.777 8.59333 867.031 11.02C869.284 13.2733 871.104 15.8733 872.491 18.82C874.051 21.5933 874.831 24.54 874.831 27.66V54.96C874.831 58.2533 873.184 59.9 869.891 59.9H835.311C832.191 59.9 830.631 58.2533 830.631 54.96V45.34H759.911V91.88H830.631V82.26C830.631 78.9667 832.191 77.32 835.311 77.32H869.891C873.184 77.32 874.831 78.9667 874.831 82.26V109.56C874.831 112.68 874.051 115.713 872.491 118.66C871.104 121.433 869.284 124.033 867.031 126.46C864.777 128.713 862.177 130.533 859.231 131.92C856.284 133.307 853.424 134 850.651 134H739.631ZM1009.4 53.92H903.579V129.06H938.159V83.3H973.519L1009.14 129.06H1048.4L1015.12 83.3H1025C1027.25 83.3 1029.51 82.78 1031.76 81.74C1034.19 80.5267 1036.27 79.0533 1038 77.32C1039.91 75.4133 1041.38 73.3333 1042.42 71.08C1043.63 68.6533 1044.24 66.2267 1044.24 63.8V27.66C1044.24 25.2333 1043.63 22.8933 1042.42 20.64C1041.38 18.2133 1039.91 16.1333 1038 14.4C1036.27 12.4933 1034.19 11.02 1031.76 9.97999C1029.51 8.76666 1027.25 8.15999 1025 8.15999H903.579V40.66H1009.4V53.92ZM903.579 48.98H1004.72V45.34H903.579C900.286 45.34 898.639 43.78 898.639 40.66V8.15999C898.639 4.86666 900.286 3.21999 903.579 3.21999H1025C1027.77 3.21999 1030.55 3.91333 1033.32 5.29999C1036.27 6.68666 1038.87 8.59333 1041.12 11.02C1043.37 13.2733 1045.19 15.8733 1046.58 18.82C1048.14 21.5933 1048.92 24.54 1048.92 27.66V63.8C1048.92 66.92 1048.14 69.9533 1046.58 72.9C1045.19 75.6733 1043.37 78.2733 1041.12 80.7C1038.87 82.9533 1036.27 84.7733 1033.32 86.16C1030.55 87.5467 1027.77 88.24 1025 88.24H1024.74C1029.42 94.6533 1033.93 100.98 1038.26 107.22C1042.77 113.46 1047.36 119.787 1052.04 126.2C1053.43 127.933 1053.69 129.667 1052.82 131.4C1051.95 133.133 1050.48 134 1048.4 134H1009.14C1008.62 134 1007.93 133.827 1007.06 133.48C1006.19 132.96 1005.59 132.527 1005.24 132.18L971.179 88.24H943.099V129.06C943.099 132.353 941.452 134 938.159 134H903.579C900.286 134 898.639 132.353 898.639 129.06V53.92C898.639 50.6267 900.286 48.98 903.579 48.98ZM1109.88 129.06V8.15999H1074.78V129.06H1109.88ZM1114.56 8.15999V129.06C1114.56 132.353 1113 134 1109.88 134H1074.78C1071.66 134 1070.1 132.353 1070.1 129.06V8.15999C1070.1 4.86666 1071.66 3.21999 1074.78 3.21999H1109.88C1113 3.21999 1114.56 4.86666 1114.56 8.15999ZM1171.49 83.3H1250.27V96.56H1171.49V83.3ZM1233.37 40.66V53.92H1136.65V129.06H1265.87C1268.13 129.06 1270.38 128.54 1272.63 127.5C1275.06 126.287 1277.14 124.813 1278.87 123.08C1280.78 121.173 1282.25 119.093 1283.29 116.84C1284.51 114.413 1285.11 111.987 1285.11 109.56V73.42C1285.11 71.1667 1284.59 69 1283.55 66.92C1282.69 64.6667 1281.39 62.6733 1279.65 60.94C1278.09 59.0333 1276.27 57.4733 1274.19 56.26C1272.11 55.0467 1270.03 54.2667 1267.95 53.92V27.66C1267.95 25.2333 1267.35 22.8933 1266.13 20.64C1265.09 18.2133 1263.62 16.1333 1261.71 14.4C1259.98 12.4933 1257.9 11.02 1255.47 9.97999C1253.22 8.76666 1250.97 8.15999 1248.71 8.15999H1136.65V40.66H1233.37ZM1228.43 48.98V45.34H1136.65C1133.53 45.34 1131.97 43.78 1131.97 40.66V8.15999C1131.97 4.86666 1133.53 3.21999 1136.65 3.21999H1248.71C1251.49 3.21999 1254.26 3.91333 1257.03 5.29999C1259.98 6.68666 1262.58 8.59333 1264.83 11.02C1267.26 13.2733 1269.17 15.8733 1270.55 18.82C1272.11 21.5933 1272.89 24.54 1272.89 27.66V50.28C1277.4 52.0133 1281.3 55.0467 1284.59 59.38C1288.06 63.7133 1289.79 68.3933 1289.79 73.42V109.56C1289.79 112.68 1289.01 115.713 1287.45 118.66C1286.07 121.433 1284.25 124.033 1281.99 126.46C1279.74 128.713 1277.14 130.533 1274.19 131.92C1271.42 133.307 1268.65 134 1265.87 134H1136.65C1133.53 134 1131.97 132.353 1131.97 129.06V53.92C1131.97 50.6267 1133.53 48.98 1136.65 48.98H1228.43ZM1245.59 88.24H1176.17V91.88H1245.59V88.24ZM1337.55 129.06H1454.29V96.56H1353.15V83.3H1454.03V53.92H1353.15V40.66H1454.29V8.15999H1337.55C1335.13 8.15999 1332.79 8.76666 1330.53 9.97999C1328.28 11.02 1326.2 12.4933 1324.29 14.4C1322.56 16.1333 1321.09 18.2133 1319.87 20.64C1318.83 22.8933 1318.31 25.2333 1318.31 27.66V109.56C1318.31 111.987 1318.83 114.413 1319.87 116.84C1321.09 119.093 1322.56 121.173 1324.29 123.08C1326.2 124.813 1328.28 126.287 1330.53 127.5C1332.79 128.54 1335.13 129.06 1337.55 129.06ZM1337.55 134C1334.61 134 1331.75 133.307 1328.97 131.92C1326.2 130.533 1323.6 128.713 1321.17 126.46C1318.92 124.033 1317.1 121.433 1315.71 118.66C1314.33 115.713 1313.63 112.68 1313.63 109.56V27.66C1313.63 24.54 1314.33 21.5933 1315.71 18.82C1317.1 15.8733 1318.92 13.2733 1321.17 11.02C1323.6 8.59333 1326.2 6.68666 1328.97 5.29999C1331.75 3.91333 1334.61 3.21999 1337.55 3.21999H1454.29C1457.41 3.21999 1458.97 4.86666 1458.97 8.15999V40.66C1458.97 43.78 1457.41 45.34 1454.29 45.34H1357.83V48.98H1454.03C1457.15 48.98 1458.71 50.6267 1458.71 53.92V83.3C1458.71 86.5933 1457.15 88.24 1454.03 88.24H1357.83V91.88H1454.29C1457.41 91.88 1458.97 93.44 1458.97 96.56V129.06C1458.97 132.353 1457.41 134 1454.29 134H1337.55Z" fill="#0A0A0A"/>
</svg>
