<svg width="1440" height="108" viewBox="0 0 1440 108" fill="none"
    xmlns="http://www.w3.org/2000/svg">
    <path opacity="0.05" d="M-4.32855 4.04999V30.93H41.4514V104.01H70.0114V30.93H115.791V4.04999H-4.32855ZM-8.31855 30.93V4.04999C-8.31855 1.39 -6.98855 0.0600003 -4.32855 0.0600003H115.791C118.451 0.0600003 119.781 1.39 119.781 4.04999V30.93C119.781 33.59 118.451 34.92 115.791 34.92H74.0015V104.01C74.0015 106.67 72.6715 108 70.0114 108H41.4514C38.7914 108 37.4614 106.67 37.4614 104.01V34.92H-4.32855C-6.98855 34.92 -8.31855 33.59 -8.31855 30.93ZM167.235 104.01V6.35999H138.885V104.01H167.235ZM171.015 6.35999V104.01C171.015 106.67 169.755 108 167.235 108H138.885C136.365 108 135.105 106.67 135.105 104.01V6.35999C135.105 3.7 136.365 2.37 138.885 2.37H167.235C169.755 2.37 171.015 3.7 171.015 6.35999ZM204.402 104.01H294.072C295.892 104.01 297.712 103.59 299.532 102.75C301.492 101.77 303.172 100.58 304.572 99.18C306.112 97.64 307.302 95.96 308.142 94.14C309.122 92.18 309.612 90.22 309.612 88.26V66.21H281.682V77.76H217.002V32.61H281.682V44.16H309.612V22.11C309.612 20.15 309.122 18.26 308.142 16.44C307.302 14.48 306.112 12.8 304.572 11.4C303.172 9.86 301.492 8.67 299.532 7.82999C297.712 6.84999 295.892 6.35999 294.072 6.35999H204.402C202.582 6.35999 200.692 6.84999 198.732 7.82999C196.912 8.67 195.232 9.86 193.692 11.4C192.292 12.8 191.102 14.48 190.122 16.44C189.282 18.26 188.862 20.15 188.862 22.11V88.26C188.862 90.22 189.282 92.18 190.122 94.14C191.102 95.96 192.292 97.64 193.692 99.18C195.232 100.58 196.912 101.77 198.732 102.75C200.692 103.59 202.582 104.01 204.402 104.01ZM204.402 108C202.022 108 199.712 107.44 197.472 106.32C195.232 105.2 193.132 103.73 191.172 101.91C189.352 99.95 187.882 97.85 186.762 95.61C185.642 93.23 185.082 90.78 185.082 88.26V22.11C185.082 19.59 185.642 17.21 186.762 14.97C187.882 12.59 189.352 10.49 191.172 8.67C193.132 6.71 195.232 5.17 197.472 4.04999C199.712 2.92999 202.022 2.37 204.402 2.37H294.072C296.312 2.37 298.622 2.92999 301.002 4.04999C303.382 5.17 305.482 6.71 307.302 8.67C309.122 10.49 310.592 12.59 311.712 14.97C312.972 17.21 313.602 19.59 313.602 22.11V44.16C313.602 46.82 312.272 48.15 309.612 48.15H281.682C279.162 48.15 277.902 46.82 277.902 44.16V36.39H220.782V73.98H277.902V66.21C277.902 63.55 279.162 62.22 281.682 62.22H309.612C312.272 62.22 313.602 63.55 313.602 66.21V88.26C313.602 90.78 312.972 93.23 311.712 95.61C310.592 97.85 309.122 99.95 307.302 101.91C305.482 103.73 303.382 105.2 301.002 106.32C298.622 107.44 296.312 108 294.072 108H204.402ZM364.961 43.32V6.35999H336.821V104.01H364.961V67.05H391.421L423.551 104.01H458.411L415.991 55.29L458.411 6.35999H423.551L391.421 43.32H364.961ZM368.741 6.35999V39.33H389.531L420.821 3.63C420.961 3.35 421.381 3.06999 422.081 2.78999C422.781 2.50999 423.271 2.37 423.551 2.37H458.411C460.231 2.37 461.421 3.14 461.981 4.68C462.681 6.08 462.471 7.47999 461.351 8.87999L421.031 55.29L461.351 101.49C462.471 102.89 462.681 104.36 461.981 105.9C461.421 107.3 460.231 108 458.411 108H423.551C423.271 108 422.781 107.86 422.081 107.58C421.381 107.3 420.961 107.02 420.821 106.74L389.531 71.04H368.741V104.01C368.741 106.67 367.481 108 364.961 108H336.821C334.301 108 333.041 106.67 333.041 104.01V6.35999C333.041 3.7 334.301 2.37 336.821 2.37H364.961C367.481 2.37 368.741 3.7 368.741 6.35999ZM494.164 104.01H588.454V77.76H506.764V67.05H588.244V43.32H506.764V32.61H588.454V6.35999H494.164C492.204 6.35999 490.314 6.84999 488.494 7.82999C486.674 8.67 484.994 9.86 483.454 11.4C482.054 12.8 480.864 14.48 479.884 16.44C479.044 18.26 478.624 20.15 478.624 22.11V88.26C478.624 90.22 479.044 92.18 479.884 94.14C480.864 95.96 482.054 97.64 483.454 99.18C484.994 100.58 486.674 101.77 488.494 102.75C490.314 103.59 492.204 104.01 494.164 104.01ZM494.164 108C491.784 108 489.474 107.44 487.234 106.32C484.994 105.2 482.894 103.73 480.934 101.91C479.114 99.95 477.644 97.85 476.524 95.61C475.404 93.23 474.844 90.78 474.844 88.26V22.11C474.844 19.59 475.404 17.21 476.524 14.97C477.644 12.59 479.114 10.49 480.934 8.67C482.894 6.71 484.994 5.17 487.234 4.04999C489.474 2.92999 491.784 2.37 494.164 2.37H588.454C590.974 2.37 592.234 3.7 592.234 6.35999V32.61C592.234 35.13 590.974 36.39 588.454 36.39H510.544V39.33H588.244C590.764 39.33 592.024 40.66 592.024 43.32V67.05C592.024 69.71 590.764 71.04 588.244 71.04H510.544V73.98H588.454C590.974 73.98 592.234 75.24 592.234 77.76V104.01C592.234 106.67 590.974 108 588.454 108H494.164ZM614.899 6.35999V32.61H658.999V104.01H687.139V32.61H731.239V6.35999H614.899ZM610.909 32.61V6.35999C610.909 3.7 612.239 2.37 614.899 2.37H731.239C733.759 2.37 735.019 3.7 735.019 6.35999V32.61C735.019 35.13 733.759 36.39 731.239 36.39H690.919V104.01C690.919 106.67 689.659 108 687.139 108H658.999C656.479 108 655.219 106.67 655.219 104.01V36.39H614.899C612.239 36.39 610.909 35.13 610.909 32.61ZM770.256 66.21H847.116V77.13H742.956V104.01H859.716C861.676 104.01 863.566 103.59 865.386 102.75C867.346 101.77 869.096 100.51 870.636 98.97C872.176 97.43 873.366 95.75 874.206 93.93C875.186 91.97 875.676 89.94 875.676 87.84V58.02C875.676 55.92 875.186 53.96 874.206 52.14C873.366 50.18 872.176 48.43 870.636 46.89C869.096 45.35 867.346 44.16 865.386 43.32C863.566 42.34 861.676 41.85 859.716 41.85H782.856V30.93H875.676V4.04999H770.256C768.296 4.04999 766.336 4.53999 764.376 5.51999C762.556 6.35999 760.876 7.55 759.336 9.09C757.796 10.63 756.536 12.38 755.556 14.34C754.716 16.3 754.296 18.26 754.296 20.22V50.25C754.296 52.21 754.716 54.17 755.556 56.13C756.536 57.95 757.796 59.63 759.336 61.17C760.876 62.71 762.556 63.97 764.376 64.95C766.336 65.79 768.296 66.21 770.256 66.21ZM843.126 70.2H770.256C767.876 70.2 765.496 69.64 763.116 68.52C760.736 67.4 758.566 65.93 756.606 64.11C754.786 62.15 753.246 59.98 751.986 57.6C750.866 55.22 750.306 52.77 750.306 50.25V20.22C750.306 17.7 750.866 15.25 751.986 12.87C753.246 10.49 754.786 8.39 756.606 6.57C758.566 4.61 760.736 3.07 763.116 1.95C765.496 0.690001 767.876 0.0600003 770.256 0.0600003H875.676C878.336 0.0600003 879.666 1.39 879.666 4.04999V30.93C879.666 33.59 878.336 34.92 875.676 34.92H786.846V37.86H859.716C862.096 37.86 864.476 38.49 866.856 39.75C869.236 40.87 871.336 42.41 873.156 44.37C875.116 46.19 876.656 48.29 877.776 50.67C879.036 53.05 879.666 55.5 879.666 58.02V87.84C879.666 90.36 879.036 92.88 877.776 95.4C876.656 97.78 875.116 99.95 873.156 101.91C871.336 103.73 869.236 105.2 866.856 106.32C864.476 107.44 862.096 108 859.716 108H742.956C740.296 108 738.966 106.67 738.966 104.01V77.13C738.966 74.47 740.296 73.14 742.956 73.14H843.126V70.2ZM961.284 36.18L976.404 64.53H946.374L961.284 36.18ZM927.054 104.01L934.824 87.84H987.534L995.304 104.01H1026.38L986.484 20.22C984.244 15.6 981.794 12.17 979.134 9.93C976.474 7.55 972.904 6.35999 968.424 6.35999H956.034C947.074 6.35999 940.424 10.98 936.084 20.22L895.974 104.01H927.054ZM937.344 91.62L930.624 105.69C930.344 106.25 929.854 106.81 929.154 107.37C928.454 107.79 927.754 108 927.054 108H895.974C894.434 108 893.244 107.44 892.404 106.32C891.704 105.06 891.704 103.73 892.404 102.33L932.514 18.54C937.834 7.76 945.674 2.37 956.034 2.37H968.424C973.744 2.37 977.944 3.77 981.024 6.57C984.244 9.23 987.184 13.22 989.844 18.54L1029.95 102.33C1030.65 103.73 1030.58 105.06 1029.74 106.32C1029.04 107.44 1027.92 108 1026.38 108H995.304C994.744 108 994.114 107.79 993.414 107.37C992.714 106.81 992.224 106.25 991.944 105.69L985.224 91.62H937.344ZM969.894 60.54L961.284 44.58L952.674 60.54H969.894ZM1076.25 2.37H1048.11C1045.59 2.37 1044.33 3.7 1044.33 6.35999V88.26C1044.33 90.78 1044.89 93.23 1046.01 95.61C1047.13 97.85 1048.6 99.95 1050.42 101.91C1052.38 103.73 1054.48 105.2 1056.72 106.32C1058.96 107.44 1061.27 108 1063.65 108H1157.1C1159.62 108 1160.88 106.67 1160.88 104.01V77.76C1160.88 75.24 1159.62 73.98 1157.1 73.98H1080.03V6.35999C1080.03 3.7 1078.77 2.37 1076.25 2.37ZM1048.11 6.35999H1076.25V77.76H1157.1V104.01H1063.65C1061.69 104.01 1059.8 103.59 1057.98 102.75C1056.16 101.77 1054.48 100.58 1052.94 99.18C1051.54 97.64 1050.35 95.96 1049.37 94.14C1048.53 92.18 1048.11 90.22 1048.11 88.26V6.35999ZM1198.89 104.01H1293.18V77.76H1211.49V67.05H1292.97V43.32H1211.49V32.61H1293.18V6.35999H1198.89C1196.93 6.35999 1195.04 6.84999 1193.22 7.82999C1191.4 8.67 1189.72 9.86 1188.18 11.4C1186.78 12.8 1185.59 14.48 1184.61 16.44C1183.77 18.26 1183.35 20.15 1183.35 22.11V88.26C1183.35 90.22 1183.77 92.18 1184.61 94.14C1185.59 95.96 1186.78 97.64 1188.18 99.18C1189.72 100.58 1191.4 101.77 1193.22 102.75C1195.04 103.59 1196.93 104.01 1198.89 104.01ZM1198.89 108C1196.51 108 1194.2 107.44 1191.96 106.32C1189.72 105.2 1187.62 103.73 1185.66 101.91C1183.84 99.95 1182.37 97.85 1181.25 95.61C1180.13 93.23 1179.57 90.78 1179.57 88.26V22.11C1179.57 19.59 1180.13 17.21 1181.25 14.97C1182.37 12.59 1183.84 10.49 1185.66 8.67C1187.62 6.71 1189.72 5.17 1191.96 4.04999C1194.2 2.92999 1196.51 2.37 1198.89 2.37H1293.18C1295.7 2.37 1296.96 3.7 1296.96 6.35999V32.61C1296.96 35.13 1295.7 36.39 1293.18 36.39H1215.27V39.33H1292.97C1295.49 39.33 1296.75 40.66 1296.75 43.32V67.05C1296.75 69.71 1295.49 71.04 1292.97 71.04H1215.27V73.98H1293.18C1295.7 73.98 1296.96 75.24 1296.96 77.76V104.01C1296.96 106.67 1295.7 108 1293.18 108H1198.89ZM1335.17 67.05H1410.56V77.76H1319.63V104.01H1422.95C1424.77 104.01 1426.59 103.59 1428.41 102.75C1430.37 101.77 1432.05 100.58 1433.45 99.18C1434.99 97.64 1436.18 95.96 1437.02 94.14C1438 92.18 1438.49 90.22 1438.49 88.26V59.07C1438.49 57.11 1438 55.22 1437.02 53.4C1436.18 51.44 1434.99 49.76 1433.45 48.36C1432.05 46.82 1430.37 45.63 1428.41 44.79C1426.59 43.81 1424.77 43.32 1422.95 43.32H1347.56V32.61H1438.49V6.35999H1335.17C1333.21 6.35999 1331.32 6.84999 1329.5 7.82999C1327.68 8.67 1326 9.86 1324.46 11.4C1323.06 12.8 1321.87 14.48 1320.89 16.44C1320.05 18.26 1319.63 20.15 1319.63 22.11V51.3C1319.63 53.26 1320.05 55.22 1320.89 57.18C1321.87 59 1323.06 60.68 1324.46 62.22C1326 63.62 1327.68 64.81 1329.5 65.79C1331.32 66.63 1333.21 67.05 1335.17 67.05ZM1406.57 71.04H1335.17C1332.79 71.04 1330.48 70.48 1328.24 69.36C1326 68.24 1323.9 66.77 1321.94 64.95C1320.12 62.99 1318.65 60.89 1317.53 58.65C1316.41 56.27 1315.85 53.82 1315.85 51.3V22.11C1315.85 19.59 1316.41 17.21 1317.53 14.97C1318.65 12.59 1320.12 10.49 1321.94 8.67C1323.9 6.71 1326 5.17 1328.24 4.04999C1330.48 2.92999 1332.79 2.37 1335.17 2.37H1438.49C1441.15 2.37 1442.48 3.7 1442.48 6.35999V32.61C1442.48 35.13 1441.15 36.39 1438.49 36.39H1351.55V39.33H1422.95C1425.19 39.33 1427.43 39.89 1429.67 41.01C1432.05 42.13 1434.15 43.67 1435.97 45.63C1437.93 47.45 1439.47 49.55 1440.59 51.93C1441.85 54.17 1442.48 56.55 1442.48 59.07V88.26C1442.48 90.78 1441.85 93.23 1440.59 95.61C1439.47 97.85 1437.93 99.95 1435.97 101.91C1434.15 103.73 1432.05 105.2 1429.67 106.32C1427.43 107.44 1425.19 108 1422.95 108H1319.63C1317.11 108 1315.85 106.67 1315.85 104.01V77.76C1315.85 75.24 1317.11 73.98 1319.63 73.98H1406.57V71.04Z" fill="white" />
</svg>