<svg width="1440" height="280" viewBox="0 0 1440 280" fill="none" xmlns="http://www.w3.org/2000/svg">
<g opacity="0.2">
<path d="M-280 0H1720L1144.52 241.418H295.488L295.289 241.333L-280 0ZM1709.42 2.12991H-269.414L295.914 239.288H1144.09L1709.42 2.12991Z" fill="#72F34B"/>
<path d="M1170.11 228.461H269.886V230.591H1170.11V228.461Z" fill="#72F34B"/>
<path d="M1199.27 216.229H240.737V218.358H1199.27V216.229Z" fill="#72F34B"/>
<path d="M1232.46 202.306H207.534V204.436H1232.46V202.306Z" fill="#72F34B"/>
<path d="M1270.6 186.311H169.403V188.44H1270.6V186.311Z" fill="#72F34B"/>
<path d="M1314.86 167.737H125.139V169.867H1314.86V167.737Z" fill="#72F34B"/>
<path d="M1366.87 145.92H73.1357V148.05H1366.87V145.92Z" fill="#72F34B"/>
<path d="M1428.83 119.927H11.1602V122.057H1428.83V119.927Z" fill="#72F34B"/>
<path d="M1503.94 88.4194H-63.9336V90.5493H1503.94V88.4194Z" fill="#72F34B"/>
<path d="M1596.83 49.4492H-156.835V51.5791H1596.83V49.4492Z" fill="#72F34B"/>
<path d="M1515.21 0.0629008L1058.95 239.453L1059.94 241.339L1516.2 1.94894L1515.21 0.0629008Z" fill="#72F34B"/>
<path d="M1316.19 0.21823L973.923 239.46L975.143 241.205L1317.41 1.96391L1316.19 0.21823Z" fill="#72F34B"/>
<path d="M1117.06 0.298276L888.895 239.577L890.436 241.047L1118.61 1.76813L1117.06 0.298276Z" fill="#72F34B"/>
<path d="M917.945 0.564361L803.877 239.86L805.8 240.776L919.867 1.48086L917.945 0.564361Z" fill="#72F34B"/>
<path d="M721.066 1.06494H718.937V240.353H721.066V1.06494Z" fill="#72F34B"/>
<path d="M522.054 0.650882L520.131 1.56738L634.199 240.863L636.122 239.946L522.054 0.650882Z" fill="#72F34B"/>
<path d="M322.865 0.320188L321.323 1.79004L549.493 241.069L551.035 239.599L322.865 0.320188Z" fill="#72F34B"/>
<path d="M123.769 0.165947L122.549 1.91162L464.812 241.195L466.032 239.449L123.769 0.165947Z" fill="#72F34B"/>
<path d="M-75.2731 0.137677L-76.2622 2.02393L380.053 241.311L381.042 239.425L-75.2731 0.137677Z" fill="#72F34B"/>
</g>
<rect width="1440" height="305" fill="url(#paint0_linear)"/>
<defs>
<linearGradient id="paint0_linear" x1="720" y1="0" x2="720" y2="305" gradientUnits="userSpaceOnUse">
<stop stop-color="#0A0A0A" stop-opacity="0"/>
<stop offset="0.552083" stop-color="#0A0A0A"/>
</linearGradient>
</defs>
</svg>
