<svg width="16" height="16" viewBox="0 0 16 16" fill="none" xmlns="http://www.w3.org/2000/svg">
<path d="M6.5 0C2.91 0 0 2.462 0 5.5C0 6.575 0.37 7.574 1 8.422V12L3.699 10.458C4.548 10.802 5.496 11 6.5 11C10.09 11 13 8.538 13 5.5C13 2.462 10.09 0 6.5 0Z" fill="#53545A"/>
<path d="M16.0003 9.50033C16.0003 8.51333 15.5713 7.60333 14.8533 6.86133C14.1243 10.3483 10.6603 13.0003 6.50031 13.0003C6.39731 13.0003 6.29831 12.9823 6.19531 12.9793C7.23131 13.6173 8.55631 14.0003 10.0003 14.0003C10.4493 14.0003 10.8863 13.9603 11.3073 13.8903L15.0003 16.0003V12.0003H14.9883C15.6273 11.2853 16.0003 10.4253 16.0003 9.50033Z" fill="#53545A"/>
</svg>
