<svg width="188" height="36" viewBox="0 0 188 36" fill="none" xmlns="http://www.w3.org/2000/svg">
<g filter="url(#filter0_ii_4679_5835)">
<path d="M10 36L0 28.5V2C0 0.89543 0.895431 0 2 0H10V36Z" fill="#15171E"/>
</g>
<g filter="url(#filter1_ii_4679_5835)">
<path d="M10 0H186C187.105 0 188 0.895431 188 2V34C188 35.1046 187.105 36 186 36H10V0Z" fill="#15171E"/>
<path d="M68.2417 22H63.9647C63.7827 22 63.6917 21.909 63.6917 21.727V13.914C63.6917 13.732 63.7827 13.641 63.9647 13.641H65.0697C65.2517 13.641 65.3427 13.732 65.3427 13.914V20.414C65.3427 20.5093 65.3947 20.557 65.4987 20.557H68.2417C68.4151 20.557 68.5017 20.6523 68.5017 20.843V21.727C68.5017 21.909 68.4151 22 68.2417 22ZM72.0666 20.57H72.9896C73.2669 20.57 73.4619 20.5137 73.5746 20.401C73.6959 20.2797 73.7566 20.0803 73.7566 19.803V15.838C73.7566 15.5607 73.6959 15.3657 73.5746 15.253C73.4619 15.1317 73.2669 15.071 72.9896 15.071H72.0666C71.7892 15.071 71.5942 15.1317 71.4816 15.253C71.3689 15.3657 71.3126 15.5607 71.3126 15.838V19.803C71.3126 20.0803 71.3689 20.2797 71.4816 20.401C71.5942 20.5137 71.7892 20.57 72.0666 20.57ZM73.2626 22H71.8066C71.1219 22 70.5932 21.818 70.2206 21.454C69.8479 21.09 69.6616 20.5657 69.6616 19.881V15.76C69.6616 15.0753 69.8479 14.551 70.2206 14.187C70.5932 13.823 71.1219 13.641 71.8066 13.641H73.2626C73.9472 13.641 74.4759 13.823 74.8486 14.187C75.2212 14.551 75.4076 15.0753 75.4076 15.76V19.881C75.4076 20.5657 75.2212 21.09 74.8486 21.454C74.4759 21.818 73.9472 22 73.2626 22ZM78.0954 22H76.8474C76.6914 22 76.6394 21.909 76.6914 21.727L78.7454 13.914C78.8061 13.732 78.9361 13.641 79.1354 13.641H80.8644C81.0811 13.641 81.2111 13.732 81.2544 13.914L83.3084 21.727C83.3604 21.909 83.3084 22 83.1524 22H81.9044C81.8091 22 81.7441 21.9827 81.7094 21.948C81.6747 21.9047 81.6487 21.831 81.6314 21.727L81.2674 20.297H78.7324L78.3684 21.727C78.3511 21.831 78.3207 21.9047 78.2774 21.948C78.2427 21.9827 78.1821 22 78.0954 22ZM79.9804 15.214L79.0444 18.971H80.9684L80.0324 15.214H79.9804ZM86.5147 20.57H87.9317C88.2091 20.57 88.4041 20.5137 88.5167 20.401C88.6381 20.2797 88.6987 20.0803 88.6987 19.803V15.838C88.6987 15.5607 88.6381 15.3657 88.5167 15.253C88.4041 15.1317 88.2091 15.071 87.9317 15.071H86.5147C86.4194 15.071 86.3717 15.1187 86.3717 15.214V20.427C86.3717 20.5223 86.4194 20.57 86.5147 20.57ZM84.7207 21.727V13.914C84.7207 13.732 84.8117 13.641 84.9937 13.641H88.2047C88.8807 13.641 89.4051 13.8273 89.7777 14.2C90.1591 14.564 90.3497 15.084 90.3497 15.76V19.881C90.3497 20.557 90.1591 21.0813 89.7777 21.454C89.4051 21.818 88.8807 22 88.2047 22H84.9937C84.8117 22 84.7207 21.909 84.7207 21.727ZM100.834 13.641H102.758C102.94 13.641 103.031 13.732 103.031 13.914V21.727C103.031 21.909 102.94 22 102.758 22H101.692C101.51 22 101.419 21.909 101.419 21.727V15.565H101.367L100.041 19.92C99.9887 20.0933 99.8804 20.18 99.7157 20.18H98.6237C98.4591 20.18 98.3507 20.0933 98.2987 19.92L96.9467 15.552H96.8947V21.727C96.8947 21.831 96.8774 21.9047 96.8427 21.948C96.8081 21.9827 96.7344 22 96.6217 22H95.5557C95.3737 22 95.2827 21.909 95.2827 21.727V13.914C95.2827 13.732 95.3737 13.641 95.5557 13.641H97.4927C97.6141 13.641 97.6964 13.7017 97.7397 13.823L99.1177 18.412H99.1957L100.587 13.823C100.613 13.7017 100.695 13.641 100.834 13.641ZM107.25 20.57H108.173C108.451 20.57 108.646 20.5137 108.758 20.401C108.88 20.2797 108.94 20.0803 108.94 19.803V15.838C108.94 15.5607 108.88 15.3657 108.758 15.253C108.646 15.1317 108.451 15.071 108.173 15.071H107.25C106.973 15.071 106.778 15.1317 106.665 15.253C106.553 15.3657 106.496 15.5607 106.496 15.838V19.803C106.496 20.0803 106.553 20.2797 106.665 20.401C106.778 20.5137 106.973 20.57 107.25 20.57ZM108.446 22H106.99C106.306 22 105.777 21.818 105.404 21.454C105.032 21.09 104.845 20.5657 104.845 19.881V15.76C104.845 15.0753 105.032 14.551 105.404 14.187C105.777 13.823 106.306 13.641 106.99 13.641H108.446C109.131 13.641 109.66 13.823 110.032 14.187C110.405 14.551 110.591 15.0753 110.591 15.76V19.881C110.591 20.5657 110.405 21.09 110.032 21.454C109.66 21.818 109.131 22 108.446 22ZM113.786 22H112.681C112.499 22 112.408 21.909 112.408 21.727V13.914C112.408 13.732 112.499 13.641 112.681 13.641H115.775C116.451 13.641 116.98 13.8273 117.361 14.2C117.743 14.5727 117.933 15.097 117.933 15.773V16.787C117.933 17.7663 117.548 18.4163 116.776 18.737V18.789L118.167 21.688C118.245 21.896 118.172 22 117.946 22H116.893C116.737 22 116.625 21.9827 116.555 21.948C116.486 21.9133 116.43 21.8397 116.386 21.727L115.086 18.919H114.215C114.111 18.919 114.059 18.9667 114.059 19.062V21.727C114.059 21.909 113.968 22 113.786 22ZM114.202 17.593H115.476C115.754 17.593 115.957 17.5367 116.087 17.424C116.217 17.3027 116.282 17.112 116.282 16.852V15.838C116.282 15.5693 116.217 15.3743 116.087 15.253C115.957 15.1317 115.754 15.071 115.476 15.071H114.202C114.107 15.071 114.059 15.1187 114.059 15.214V17.45C114.059 17.5453 114.107 17.593 114.202 17.593ZM124.302 22H120.051C119.869 22 119.778 21.909 119.778 21.727V13.914C119.778 13.732 119.869 13.641 120.051 13.641H124.302C124.475 13.641 124.562 13.732 124.562 13.914V14.798C124.562 14.98 124.475 15.071 124.302 15.071H121.585C121.481 15.071 121.429 15.1187 121.429 15.214V16.904C121.429 16.9993 121.481 17.047 121.585 17.047H123.808C123.99 17.047 124.081 17.138 124.081 17.32V18.204C124.081 18.386 123.99 18.477 123.808 18.477H121.585C121.481 18.477 121.429 18.5247 121.429 18.62V20.427C121.429 20.5223 121.481 20.57 121.585 20.57H124.302C124.475 20.57 124.562 20.661 124.562 20.843V21.727C124.562 21.909 124.475 22 124.302 22Z" fill="#6CDB00"/>
</g>
<defs>
<filter id="filter0_ii_4679_5835" x="0" y="0" width="10" height="36" filterUnits="userSpaceOnUse" color-interpolation-filters="sRGB">
<feFlood flood-opacity="0" result="BackgroundImageFix"/>
<feBlend mode="normal" in="SourceGraphic" in2="BackgroundImageFix" result="shape"/>
<feColorMatrix in="SourceAlpha" type="matrix" values="0 0 0 0 0 0 0 0 0 0 0 0 0 0 0 0 0 0 127 0" result="hardAlpha"/>
<feOffset dx="1" dy="1"/>
<feComposite in2="hardAlpha" operator="arithmetic" k2="-1" k3="1"/>
<feColorMatrix type="matrix" values="0 0 0 0 0.423529 0 0 0 0 0.858824 0 0 0 0 0 0 0 0 1 0"/>
<feBlend mode="normal" in2="shape" result="effect1_innerShadow_4679_5835"/>
<feColorMatrix in="SourceAlpha" type="matrix" values="0 0 0 0 0 0 0 0 0 0 0 0 0 0 0 0 0 0 127 0" result="hardAlpha"/>
<feOffset dx="1" dy="-0.5"/>
<feComposite in2="hardAlpha" operator="arithmetic" k2="-1" k3="1"/>
<feColorMatrix type="matrix" values="0 0 0 0 0.423529 0 0 0 0 0.858824 0 0 0 0 0 0 0 0 1 0"/>
<feBlend mode="normal" in2="effect1_innerShadow_4679_5835" result="effect2_innerShadow_4679_5835"/>
</filter>
<filter id="filter1_ii_4679_5835" x="10" y="0" width="178" height="36" filterUnits="userSpaceOnUse" color-interpolation-filters="sRGB">
<feFlood flood-opacity="0" result="BackgroundImageFix"/>
<feBlend mode="normal" in="SourceGraphic" in2="BackgroundImageFix" result="shape"/>
<feColorMatrix in="SourceAlpha" type="matrix" values="0 0 0 0 0 0 0 0 0 0 0 0 0 0 0 0 0 0 127 0" result="hardAlpha"/>
<feOffset dy="1"/>
<feComposite in2="hardAlpha" operator="arithmetic" k2="-1" k3="1"/>
<feColorMatrix type="matrix" values="0 0 0 0 0.423529 0 0 0 0 0.858824 0 0 0 0 0 0 0 0 1 0"/>
<feBlend mode="normal" in2="shape" result="effect1_innerShadow_4679_5835"/>
<feColorMatrix in="SourceAlpha" type="matrix" values="0 0 0 0 0 0 0 0 0 0 0 0 0 0 0 0 0 0 127 0" result="hardAlpha"/>
<feOffset dx="-1" dy="-1"/>
<feComposite in2="hardAlpha" operator="arithmetic" k2="-1" k3="1"/>
<feColorMatrix type="matrix" values="0 0 0 0 0.423529 0 0 0 0 0.858824 0 0 0 0 0 0 0 0 1 0"/>
<feBlend mode="normal" in2="effect1_innerShadow_4679_5835" result="effect2_innerShadow_4679_5835"/>
</filter>
</defs>
</svg>
