<svg width="18" height="19" viewBox="0 0 18 19" fill="none" xmlns="http://www.w3.org/2000/svg">
<path d="M15.8018 5.08525L16.782 0.15625L12.4763 2.2765C11.3886 1.7655 10.2017 1.50058 9 1.50058C7.79831 1.50058 6.61139 1.7655 5.52375 2.2765L1.218 0.15625L2.19825 5.08525C1.34781 6.32419 0.851916 7.77188 0.764101 9.27206C0.676286 10.7722 0.999886 12.2679 1.69997 13.5976C2.40005 14.9273 3.45002 16.0405 4.73654 16.8171C6.02306 17.5937 7.49726 18.0042 9 18.0042C10.5027 18.0042 11.9769 17.5937 13.2635 16.8171C14.55 16.0405 15.6 14.9273 16.3 13.5976C17.0001 12.2679 17.3237 10.7722 17.2359 9.27206C17.1481 7.77188 16.6522 6.32419 15.8018 5.08525ZM4.91475 7.243L7.7565 8.668L7.0815 10.009L4.2435 8.58475L4.91475 7.243ZM9 15.0002C8.20435 15.0002 7.44129 14.6842 6.87868 14.1216C6.31607 13.559 6 12.7959 6 12.0002H12C12 12.7959 11.6839 13.559 11.1213 14.1216C10.5587 14.6842 9.79565 15.0002 9 15.0002ZM10.9148 10.0068L10.2398 8.665L13.0815 7.24L13.7528 8.581L10.9148 10.0068Z" fill="#BF4040"/>
</svg>
