<svg width="45" height="45" viewBox="0 0 45 45" fill="none" xmlns="http://www.w3.org/2000/svg">
<circle cx="22.5" cy="22.5" r="22" fill="#FFF500" fill-opacity="0.1" stroke="#FFF500"/>
<path d="M30.8994 22.6256C28.7791 22.2546 26.9518 21.2957 25.3146 19.6585C23.6788 18.0226 22.9595 16.0717 22.5874 13.9539" stroke="#FFF500" stroke-miterlimit="10" stroke-linecap="round"/>
<path d="M18.1236 26.8494L13.127 27.4044L17.5685 31.846L18.1236 26.8494Z" stroke="#FFF500" stroke-miterlimit="10" stroke-linecap="round"/>
<path d="M19.5861 16.8309C16.6985 21.2967 18.1237 26.8494 18.1237 26.8494C18.1237 26.8494 25.1825 28.6733 29.7824 24.0734C33.6638 20.192 31.4479 13.5248 31.4479 13.5248C31.4479 13.5248 26.4251 11.9101 22.5874 13.9539" stroke="#FFF500" stroke-miterlimit="10" stroke-linecap="round"/>
<path d="M26.4452 15.9914C26.728 15.9914 26.9572 15.7621 26.9572 15.4793C26.9572 15.1965 26.728 14.9673 26.4452 14.9673C26.1624 14.9673 25.9331 15.1965 25.9331 15.4793C25.9331 15.7621 26.1624 15.9914 26.4452 15.9914Z" stroke="#FFF500" stroke-miterlimit="10" stroke-linecap="round"/>
<path d="M26.4452 15.9914C26.728 15.9914 26.9572 15.7621 26.9572 15.4793C26.9572 15.1965 26.728 14.9673 26.4452 14.9673C26.1624 14.9673 25.9331 15.1965 25.9331 15.4793C25.9331 15.7621 26.1624 15.9914 26.4452 15.9914Z" fill="#FFF500"/>
</svg>
