<svg width="45" height="45" viewBox="0 0 45 45" fill="none" xmlns="http://www.w3.org/2000/svg">
<circle cx="22.5" cy="22.5" r="22" fill="#37FC17" fill-opacity="0.1" stroke="#37FC17"/>
<path d="M16.7825 28C19.5002 28 20.4871 26.3166 20.8362 24.4736V27.6953H23.2351V22.0211H16.7521V23.5884H20.563C20.2897 25.3008 19.318 26.2731 17.7542 26.2731C15.659 26.2731 14.7329 24.6187 14.7329 22.529C14.7329 20.2507 15.6894 18.7124 17.739 18.7124C19.2117 18.7124 20.0012 19.6557 20.1379 20.9037H22.8555C22.7037 18.0449 20.0468 17 17.6175 17C13.6245 17 12 19.6702 12 22.5145C12 25.5475 13.7764 28 16.7825 28Z" fill="#37FC17"/>
<path d="M25.2245 27.6953H27.8966V23.2691H33.4686V21.5277H27.8966V19.0752H34V17.3338H25.2245V27.6953Z" fill="#37FC17"/>
</svg>
