<svg width="161" height="16" viewBox="0 0 161 16" fill="none" xmlns="http://www.w3.org/2000/svg">
<g opacity="0.1">
<path d="M155.141 1.12403C155.066 0.527181 155.531 0 156.133 0H158.117C158.622 0 159.047 0.375536 159.109 0.875965L160.859 14.876C160.934 15.4728 160.469 16 159.867 16H157.883C157.378 16 156.953 15.6245 156.891 15.124L155.141 1.12403Z" fill="white"/>
<path d="M148.141 1.12403C148.066 0.527181 148.531 0 149.133 0H152.117C152.622 0 153.047 0.375536 153.109 0.875965L154.859 14.876C154.934 15.4728 154.469 16 153.867 16H150.883C150.378 16 149.953 15.6245 149.891 15.124L148.141 1.12403Z" fill="white"/>
<path d="M140.141 1.12403C140.066 0.527181 140.531 0 141.133 0H145.117C145.622 0 146.047 0.375536 146.109 0.875965L147.859 14.876C147.934 15.4728 147.469 16 146.867 16H142.883C142.378 16 141.953 15.6245 141.891 15.124L140.141 1.12403Z" fill="white"/>
<path fill-rule="evenodd" clip-rule="evenodd" d="M7.98109 15C7.71221 15 7.45465 14.8917 7.26654 14.6996L1.06053 8.36097C0.865946 8.16223 0.546562 8.16054 0.349892 8.35721C0.156081 8.55103 0.15449 8.86476 0.346325 9.06053L6.85237 15.6999C7.04046 15.8918 7.29788 16 7.56661 16H142.354C142.63 16 142.854 15.7761 142.854 15.5C142.854 15.2239 142.63 15 142.354 15H7.98109Z" fill="white"/>
</g>
</svg>
