<svg width="119" height="119" viewBox="0 0 119 119" fill="none" xmlns="http://www.w3.org/2000/svg">
<g clip-path="url(#clip0_206_10237)">
<path d="M73.746 6.1143L63 4.17408L63.2086 3L73.9545 4.94022L73.746 6.1143Z" fill="white"/>
<path d="M78.4595 9.42242C78.4396 9.62142 78.4595 9.81047 78.529 9.97961C78.5985 10.1488 78.6879 10.308 78.8369 10.4473C78.9759 10.5866 79.1746 10.7159 79.4328 10.8154C79.9194 11.0144 80.3366 11.0243 80.6544 10.8154C80.9722 10.6065 81.2503 10.2582 81.4688 9.73087L83.4153 5.01465L84.6369 5.52209L82.6605 10.3179C82.303 11.1835 81.8064 11.7407 81.1609 11.9795C80.5153 12.2283 79.8102 12.1885 79.0157 11.8601C78.1913 11.5218 77.6352 11.0542 77.3472 10.4572C77.0591 9.87017 77.0691 9.12393 77.367 8.23839L78.5886 8.74584C78.5191 8.97468 78.4794 9.19358 78.4694 9.40252L78.4595 9.42242Z" fill="white"/>
<path d="M84.5277 14.1983C84.2397 13.8103 84.041 13.3824 83.9417 12.9148C83.8424 12.4471 83.8523 11.9596 83.9616 11.4322C84.0708 10.9049 84.2893 10.3676 84.6171 9.82037C84.9448 9.26318 85.3123 8.81544 85.7195 8.4672C86.1267 8.11895 86.5637 7.87021 87.0205 7.73091C87.4774 7.59161 87.9441 7.55181 88.4308 7.62146C88.9174 7.69111 89.3942 7.87021 89.8609 8.1488C90.3377 8.4274 90.725 8.76569 91.013 9.15373C91.3109 9.54178 91.4996 9.96962 91.589 10.4273C91.6784 10.885 91.6685 11.3825 91.5592 11.8999C91.45 12.4272 91.2315 12.9645 90.9038 13.5118C90.576 14.069 90.2085 14.5266 89.8013 14.8749C89.4041 15.2231 88.977 15.4719 88.5202 15.6211C88.0733 15.7704 87.6065 15.8002 87.1298 15.7306C86.653 15.6609 86.1664 15.4818 85.6797 15.1933C85.1931 14.9047 84.8058 14.5664 84.5178 14.1784L84.5277 14.1983ZM88.1229 14.4072C88.7188 14.1486 89.2551 13.6212 89.7219 12.8352C89.9603 12.4372 90.1192 12.0591 90.2284 11.7009C90.3377 11.3427 90.3674 10.9945 90.3277 10.6761C90.2979 10.3577 90.1887 10.0691 90.0198 9.80047C89.851 9.53183 89.5928 9.30298 89.275 9.11393C88.9472 8.92489 88.6294 8.81544 88.3116 8.78559C87.9938 8.75574 87.6959 8.80549 87.3979 8.92489C87.1 9.04429 86.8219 9.24328 86.5537 9.50198C86.2856 9.77062 86.0373 10.099 85.7989 10.497C85.3321 11.283 85.1236 12.0093 85.1832 12.6561C85.2428 13.3028 85.6003 13.8202 86.2458 14.2082C86.8914 14.5863 87.5171 14.656 88.113 14.3973L88.1229 14.4072Z" fill="white"/>
<path d="M95.5518 12.2281L90.884 18.4965L89.8213 17.7005L94.4891 11.4321L95.5518 12.2281Z" fill="white"/>
<path d="M98.2726 14.4074L97.1107 21.0041L100.914 16.8351L101.868 17.7107L96.5942 23.4816L95.6904 22.6558L96.8326 16.069L93.0387 20.2181L92.0952 19.3524L97.3689 13.5815L98.2726 14.4074Z" fill="white"/>
<path d="M106.426 22.9644L102.692 28.4069L109.068 26.6259L109.972 27.8895L103.646 32.4665L102.941 31.4814L107.539 28.1582L101.679 29.7402L101.063 28.8845L104.45 23.8897L99.8617 27.213L99.1665 26.2478L105.493 21.6709L106.436 22.9743L106.426 22.9644Z" fill="white"/>
<path d="M107.628 33.342C106.973 33.6704 106.546 34.0385 106.337 34.4365C106.138 34.8345 106.178 35.3221 106.456 35.8892C106.734 36.4464 107.102 36.7648 107.539 36.8344C107.976 36.9041 108.522 36.7747 109.178 36.4364L113.359 34.3271L113.955 35.5111L109.773 37.6205C109.237 37.8891 108.741 38.0583 108.304 38.118C107.867 38.1777 107.469 38.1478 107.102 38.0185C106.744 37.8991 106.426 37.7001 106.148 37.4215C105.87 37.1429 105.632 36.7946 105.423 36.3867C104.976 35.4912 104.877 34.6952 105.116 33.9888C105.354 33.2823 106.009 32.6754 107.042 32.1481L111.194 30.0586L111.78 31.2327L107.598 33.342H107.628Z" fill="white"/>
<path d="M108.969 41.1326L110.25 44.7842L109.118 45.013L107.459 40.2669L114.819 37.6899L115.256 38.9436L108.979 41.1425L108.969 41.1326Z" fill="white"/>
<path d="M115.325 42.5154L116.437 42.2368L117.927 48.3162L116.815 48.5948L116.229 46.2068L109.773 47.7988L109.456 46.5152L115.911 44.9233L115.325 42.5254V42.5154Z" fill="white"/>
<path d="M118.325 51.2118L110.608 52.3859L110.409 51.0725L118.126 49.8984L118.325 51.2118Z" fill="white"/>
<path d="M112.813 56.6644L118.93 58.525L119.01 59.9379L111.065 57.3907L110.995 56.1271L118.632 52.7441L118.712 54.2167L112.823 56.6743L112.813 56.6644Z" fill="white"/>
<path d="M118.514 66.8631L117.381 66.7735L117.679 62.913L115.614 62.7538L115.335 66.3954L114.193 66.3059L114.471 62.6642L112.177 62.4851L111.869 66.5546L110.747 66.3158L111.144 61.0723L118.921 61.6693L118.523 66.8531L118.514 66.8631Z" fill="white"/>
<path d="M117.143 73.1112C116.924 73.4595 116.686 73.7182 116.428 73.8873C116.17 74.0565 115.891 74.156 115.613 74.1958C115.335 74.2256 115.067 74.2157 114.809 74.156C114.312 74.0465 113.915 73.8674 113.617 73.5988C113.319 73.3301 113.121 72.962 113.001 72.4844L109.327 73.3699L109.625 71.957L112.952 71.2208C112.952 71.1511 112.972 71.0815 112.981 71.0118C112.991 70.9422 113.011 70.8626 113.021 70.783L113.309 69.4099L110.29 68.7731L110.558 67.4995L118.196 69.1014L117.649 71.7182C117.53 72.2953 117.361 72.763 117.143 73.1112ZM114.034 71.8277C114.054 72.0366 114.104 72.2058 114.193 72.3351C114.283 72.4645 114.402 72.5739 114.541 72.6535C114.69 72.7331 114.859 72.7928 115.047 72.8326C115.226 72.8724 115.395 72.8724 115.554 72.8525C115.713 72.8326 115.852 72.763 115.981 72.6635C116.11 72.564 116.229 72.4147 116.328 72.2157C116.428 72.0167 116.507 71.768 116.577 71.4595L116.855 70.1561L114.392 69.6387L114.094 71.0715C114.034 71.3601 114.014 71.6088 114.034 71.8177V71.8277Z" fill="white"/>
<path d="M114.729 81.5986L113.657 81.2305L114.918 77.5689L112.961 76.8923L111.77 80.3449L110.687 79.9668L111.879 76.5142L109.704 75.7581L108.373 79.6186L107.35 79.1012L109.068 74.1362L116.437 76.6933L114.739 81.6085L114.729 81.5986Z" fill="white"/>
<path d="M110.985 89.1903L102.732 87.9565L103.417 86.7227L105.503 87.061L106.983 84.4243L105.602 82.8224L106.268 81.6284L111.611 88.0461L110.965 89.1903H110.985ZM110.022 87.857L107.787 85.28L106.655 87.2899L110.022 87.857Z" fill="white"/>
<path d="M105.632 96.6128C105.225 96.8815 104.798 97.0407 104.351 97.1004C103.904 97.1601 103.437 97.1004 102.941 96.9511C102.454 96.7919 101.948 96.5133 101.441 96.1153C100.925 95.7174 100.527 95.2995 100.249 94.8517C99.9712 94.404 99.8024 93.9463 99.7527 93.4687C99.703 92.9911 99.7527 92.5135 99.9215 92.016C100.09 91.5185 100.359 91.031 100.736 90.5434L102.295 88.5137L108.473 93.2796L106.754 95.5184C106.407 95.976 106.029 96.3342 105.622 96.6029L105.632 96.6128ZM101.054 92.3245C100.964 92.6628 100.944 92.9911 101.014 93.3095C101.084 93.6279 101.223 93.9264 101.441 94.2149C101.65 94.5035 101.928 94.7721 102.275 95.0308C102.961 95.5582 103.596 95.8268 104.202 95.8268C104.808 95.8268 105.364 95.5084 105.871 94.8517L106.794 93.6577L102.394 90.2648L101.61 91.2797C101.332 91.6479 101.143 91.9961 101.054 92.3344V92.3245Z" fill="white"/>
<path d="M97.0313 97.5283L99.7128 103.339L98.7097 104.334L95.333 96.6826L96.2368 95.7871L103.834 99.2497L102.782 100.284L97.0313 97.5084V97.5283Z" fill="white"/>
<path d="M93.1976 108.573L92.5124 107.667L95.5912 105.329L94.3398 103.677L91.4298 105.886L90.7346 104.971L93.6446 102.762L92.2541 100.921L89.0065 103.389L88.4404 102.394L92.6117 99.2197L97.3292 105.438L93.1976 108.583V108.573Z" fill="white"/>
<path d="M90.2184 110.453L84.329 107.299L87.0999 112.214L85.9776 112.851L82.144 106.045L83.2067 105.448L89.0961 108.582L86.3352 103.677L87.4475 103.05L91.2811 109.856L90.2184 110.453Z" fill="white"/>
<path d="M83.8722 112.582L84.2893 113.647L78.4793 115.945L78.0622 114.881L80.3465 113.975L77.9033 107.777L79.1348 107.289L81.578 113.488L83.8722 112.582Z" fill="white"/>
<path d="M74.4372 112.254C74.2584 111.538 74.0002 111.04 73.6526 110.752C73.305 110.463 72.8283 110.403 72.2125 110.553C71.6067 110.702 71.2194 110.99 71.0505 111.398C70.8817 111.816 70.8916 112.374 71.0704 113.09L72.2026 117.637L70.9214 117.955L69.7892 113.408C69.6403 112.821 69.5906 112.304 69.6303 111.866C69.67 111.428 69.7892 111.04 69.9879 110.712C70.1865 110.384 70.4546 110.125 70.7824 109.916C71.1101 109.707 71.5074 109.548 71.9444 109.438C72.9177 109.2 73.7122 109.269 74.3478 109.667C74.9834 110.065 75.4403 110.831 75.7184 111.966L76.8406 116.483L75.5694 116.801L74.4372 112.254Z" fill="white"/>
<path d="M64.4761 118.572C64.0788 118.473 63.761 118.323 63.5127 118.134C63.2645 117.935 63.0857 117.706 62.9764 117.448C62.8573 117.189 62.7877 116.93 62.7579 116.672C62.7083 116.164 62.7579 115.726 62.9169 115.368C63.0758 115.01 63.3737 114.692 63.7908 114.433L61.8145 111.209L63.2446 111.05L64.9628 113.995C65.0224 113.985 65.0919 113.965 65.1713 113.955C65.2408 113.945 65.3203 113.935 65.3997 113.926L66.7902 113.776L66.4624 110.702L67.7535 110.562L68.5878 118.333L65.936 118.622C65.3501 118.682 64.8634 118.672 64.4662 118.572H64.4761ZM64.7343 115.209C64.5456 115.289 64.3967 115.398 64.2973 115.518C64.198 115.637 64.1285 115.786 64.0987 115.955C64.0689 116.124 64.0689 116.304 64.0888 116.493C64.1086 116.672 64.1484 116.841 64.2278 116.98C64.3073 117.119 64.4066 117.239 64.5357 117.328C64.6747 117.418 64.8535 117.488 65.072 117.517C65.2905 117.547 65.5487 117.557 65.8665 117.517L67.1874 117.378L66.9193 114.871L65.4593 115.03C65.1614 115.06 64.923 115.12 64.7343 115.199V115.209Z" fill="white"/>
<path d="M55.647 118.9L55.6669 117.766L59.5302 117.846L59.57 115.766L55.9251 115.697L55.945 114.542L59.5898 114.612L59.6296 112.304L55.5576 112.224L55.7364 111.09L60.9803 111.189L60.8313 119L55.6371 118.9H55.647Z" fill="white"/>
<path d="M41.9312 111.149L52.5679 113.627L52.2998 114.791L41.6631 112.314L41.9312 111.149Z" fill="white"/>
<path d="M33.6677 105.389C34.1941 105.23 34.7403 105.18 35.3163 105.249C35.8924 105.319 36.4287 105.468 36.9252 105.717C37.4715 105.986 37.9085 106.294 38.2263 106.672C38.554 107.05 38.7725 107.458 38.9016 107.906C39.0208 108.354 39.0407 108.841 38.9612 109.369C38.8818 109.886 38.703 110.433 38.4348 111C38.1568 111.568 37.839 112.045 37.4616 112.433C37.0842 112.821 36.6869 113.1 36.2598 113.289C35.8328 113.478 35.3759 113.558 34.8992 113.538C34.4225 113.518 33.9458 113.388 33.4591 113.16C33.0321 112.951 32.6845 112.722 32.4263 112.453C32.1581 112.194 31.9595 111.916 31.8403 111.617C31.7112 111.319 31.6417 111.01 31.6317 110.692C31.6218 110.374 31.6516 110.055 31.731 109.737L32.9824 110.135C32.9427 110.354 32.9228 110.563 32.9228 110.752C32.9228 110.941 32.9626 111.12 33.0321 111.289C33.1016 111.448 33.2108 111.607 33.3598 111.747C33.5088 111.886 33.7074 112.015 33.9557 112.145C34.2835 112.304 34.6013 112.384 34.9091 112.374C35.217 112.374 35.505 112.284 35.7831 112.125C36.0612 111.966 36.3194 111.747 36.5578 111.458C36.7961 111.17 37.0146 110.821 37.2033 110.423C37.402 110.005 37.541 109.617 37.6205 109.249C37.6999 108.881 37.7098 108.543 37.6503 108.224C37.5907 107.906 37.4616 107.627 37.2629 107.379C37.0643 107.13 36.7862 106.911 36.4187 106.732C36.091 106.573 35.7831 106.463 35.4852 106.404C35.1872 106.344 34.8793 106.344 34.5516 106.404L33.8663 107.836L35.4157 108.593L34.929 109.598L32.2773 108.314L33.6776 105.419L33.6677 105.389Z" fill="white"/>
<path d="M25.7422 108.393L27.649 100.254L28.821 101.05L28.3145 103.11L30.8172 104.811L32.5254 103.568L33.6576 104.334L26.8247 109.14L25.7422 108.403V108.393ZM27.1525 107.538L29.9035 105.518L27.9967 104.224L27.1525 107.538Z" fill="white"/>
<path d="M20.5983 104.433L23.2202 98.3739L17.3109 101.349L16.1787 100.284L21.512 94.583L22.3959 95.4088L18.5226 99.5579L23.9651 96.8814L24.7298 97.5978L22.3661 103.15L26.2394 99.0107L27.1134 99.8266L21.7801 105.528L20.6082 104.423L20.5983 104.433Z" fill="white"/>
<path d="M11.3125 94.2749L12.2063 93.5685L14.6098 96.6032L16.2386 95.3097L13.9742 92.4441L14.8779 91.7277L17.1423 94.5933L18.9499 93.1605L16.4173 89.9567L17.4005 89.3696L20.6581 93.4889L14.5403 98.3444L11.3125 94.2649V94.2749Z" fill="white"/>
<path d="M8.43228 87.5784L10.3391 90.7027L12.2261 89.5485L10.4285 86.6033L11.4117 86.0063L13.2094 88.9515L16.0299 87.2202L16.7152 88.3545L10.0611 92.4339L7.45898 88.1754L8.43228 87.5784Z" fill="white"/>
<path d="M6.06836 85.3399L13.0602 81.8574L13.6461 83.0415L6.65432 86.5239L6.06836 85.3399Z" fill="white"/>
<path d="M11.1233 77.2705L11.5901 78.5043L10.1699 79.0416L9.70312 77.8078L11.1233 77.2705Z" fill="white"/>
<path d="M10.21 74.8826C10.1504 75.3602 10.0014 75.8079 9.7432 76.2059C9.49491 76.6139 9.1473 76.9621 8.71031 77.2606C8.27332 77.5591 7.73702 77.7979 7.12126 77.967C6.50551 78.1362 5.92947 78.2158 5.39317 78.176C4.85687 78.1362 4.37022 78.0267 3.94316 77.8078C3.5161 77.5889 3.14864 77.2905 2.85069 76.9124C2.55274 76.5243 2.32432 76.0666 2.17534 75.5393C2.02637 75.002 1.97671 74.4945 2.0363 74.007C2.09589 73.5195 2.24486 73.0817 2.50309 72.6837C2.75137 72.2857 3.09898 71.9374 3.5459 71.639C3.98289 71.3405 4.51919 71.1017 5.13495 70.9226C5.76064 70.7435 6.33667 70.6738 6.87297 70.6937C7.40928 70.7236 7.88599 70.833 8.30312 71.042C8.73018 71.2509 9.08771 71.5395 9.38566 71.9275C9.68361 72.3056 9.91203 72.7732 10.061 73.3205C10.21 73.8578 10.2596 74.3752 10.2 74.8527L10.21 74.8826ZM7.75688 72.2359C7.14113 72.0071 6.39626 72.017 5.51235 72.2658C5.07536 72.3852 4.68803 72.5444 4.36029 72.7434C4.03255 72.9324 3.77433 73.1613 3.58563 73.41C3.38699 73.6588 3.26782 73.9473 3.20823 74.2558C3.14864 74.5642 3.17843 74.9025 3.27775 75.2706C3.37706 75.6388 3.53597 75.9373 3.74453 76.1761C3.95309 76.4149 4.21131 76.594 4.50926 76.7034C4.80721 76.8228 5.14488 76.8726 5.52228 76.8726C5.89968 76.8726 6.30687 76.8029 6.74386 76.6736C7.62777 76.4248 8.27332 76.0467 8.68052 75.5393C9.08771 75.0318 9.18703 74.405 8.97847 73.6787C8.77983 72.9523 8.37264 72.4747 7.75688 72.2459V72.2359Z" fill="white"/>
<path d="M0.694997 65.6094C0.784381 65.2114 0.923423 64.893 1.11212 64.6442C1.30082 64.3955 1.52925 64.2065 1.78747 64.0871C2.04569 63.9677 2.30391 63.8881 2.56213 63.8582C3.06864 63.7985 3.50563 63.8383 3.86317 63.9975C4.23063 64.1567 4.53851 64.4353 4.80666 64.8532L7.98477 62.8135L8.16353 64.2463L5.26352 66.0273C5.28338 66.087 5.29331 66.1566 5.30324 66.2362C5.31317 66.3059 5.32311 66.3855 5.33304 66.4651L5.51181 67.858L8.57073 67.47L8.73956 68.7635L1.00288 69.7485L0.665202 67.1019C0.58575 66.5148 0.595681 66.0273 0.685065 65.6293L0.694997 65.6094ZM4.05187 65.8084C3.96248 65.6193 3.86317 65.48 3.73406 65.3805C3.60495 65.281 3.4659 65.2213 3.29707 65.1915C3.12823 65.1616 2.94946 65.1616 2.76076 65.1915C2.58199 65.2114 2.42309 65.2611 2.27412 65.3407C2.13507 65.4104 2.0159 65.5198 1.92651 65.6591C1.83713 65.7984 1.77754 65.9775 1.74774 66.1964C1.71795 66.4153 1.71795 66.674 1.75767 66.9924L1.92651 68.3157L4.41933 67.9973L4.23063 66.5447C4.19091 66.2462 4.13132 66.0074 4.04193 65.8183L4.05187 65.8084Z" fill="white"/>
<path d="M7.1207 55.6793C7.48817 56.0873 7.75632 56.5649 7.93509 57.1121C8.11386 57.6593 8.20324 58.2165 8.19331 58.7737C8.19331 59.3807 8.07413 59.908 7.8755 60.3657C7.67687 60.8234 7.39879 61.1915 7.04125 61.5C6.68371 61.7985 6.24672 62.0273 5.75014 62.1666C5.24364 62.3159 4.67754 62.3756 4.05185 62.3656C3.41623 62.3557 2.85013 62.2661 2.34362 62.087C1.83711 61.9079 1.41005 61.6691 1.06245 61.3507C0.714842 61.0423 0.44669 60.6642 0.25799 60.2165C0.0792221 59.7787 -0.010162 59.2812 -0.000230449 58.7439C-0.000230449 58.2663 0.0792221 57.8583 0.198401 57.5001C0.327511 57.1519 0.496348 56.8534 0.714842 56.6146C0.933337 56.3758 1.18163 56.1768 1.45971 56.0375C1.74772 55.8883 2.04567 55.7888 2.36348 55.7291L2.53232 57.0325C2.31382 57.0823 2.11519 57.1519 1.94636 57.2315C1.77752 57.3111 1.62855 57.4205 1.50937 57.5499C1.39019 57.6792 1.3008 57.8484 1.23128 58.0474C1.16176 58.2464 1.13197 58.4852 1.12204 58.7538C1.12204 59.122 1.18163 59.4404 1.32067 59.719C1.45971 59.9976 1.65834 60.2264 1.91656 60.4154C2.17478 60.6045 2.48266 60.7438 2.85013 60.8333C3.2176 60.9229 3.61486 60.9826 4.06178 60.9826C4.51863 60.9826 4.93576 60.9527 5.30323 60.8731C5.67069 60.7935 5.97857 60.6542 6.24672 60.4751C6.51488 60.296 6.71351 60.0573 6.85255 59.7687C6.99159 59.4802 7.07104 59.1319 7.08097 58.724C7.08097 58.3558 7.05118 58.0275 6.98166 57.7389C6.91214 57.4504 6.78303 57.1619 6.59433 56.8932L5.00528 56.8634L4.97548 58.5946L3.86315 58.5747L3.91281 55.6196L7.1207 55.6694V55.6793Z" fill="white"/>
<path d="M1.4799 47.1125L9.71317 45.7295L9.43508 47.1125L7.33952 47.4409L6.74363 50.4159L8.55117 51.5203L8.28302 52.8635L1.22168 48.406L1.4799 47.1225V47.1125ZM2.81073 48.0876L5.73061 49.8487L6.18746 47.5802L2.81073 48.0876Z" fill="white"/>
<path d="M2.9998 41.2916L9.51491 39.8091L4.20152 37.9087L4.63851 36.6948L11.9879 39.3216L11.5807 40.4758L5.08543 41.9782L10.379 43.8687L9.9519 45.0726L2.60254 42.4458L3.00973 41.2916H2.9998Z" fill="white"/>
<path d="M6.237 33.2621L12.9011 32.7347L7.91543 30.0881L8.52126 28.9438L15.4138 32.6054L14.8377 33.6899L8.19352 34.2372L13.1593 36.8739L12.5634 38.0081L5.6709 34.3466L6.24693 33.2621H6.237Z" fill="white"/>
<path d="M10.5377 25.9692L17.023 30.3074L16.288 31.4118L9.80273 27.0737L10.5377 25.9692Z" fill="white"/>
<path d="M18.2644 25.6505L14.9969 20.1482L15.8908 19.0537L20.0521 26.3071L19.2477 27.2922L11.3223 24.6455L12.2558 23.5013L18.2644 25.6604V25.6505Z" fill="white"/>
<path d="M20.9062 14.2778L21.6808 15.1037L18.8603 17.7603L20.2805 19.2726L22.9421 16.7653L23.7267 17.6011L21.0651 20.1084L22.6442 21.79L25.6137 18.9941L26.2791 19.9293L22.4555 23.5312L17.1123 17.8399L20.8863 14.2778H20.9062Z" fill="white"/>
<path d="M26.1105 10.6065C26.4978 10.4971 26.8553 10.4672 27.1632 10.517C27.4711 10.5667 27.7393 10.6762 27.9677 10.8453C28.1961 11.0145 28.3848 11.2035 28.5437 11.4125C28.8417 11.8304 29.0105 12.2283 29.0502 12.6263C29.09 13.0243 28.9906 13.4323 28.7523 13.8701L32.0595 15.6909L30.8876 16.5366L27.9379 14.8352C27.9379 14.8352 27.8386 14.9247 27.779 14.9745C27.7194 15.0242 27.6598 15.064 27.6002 15.1138L26.468 15.9297L28.2756 18.4271L27.2228 19.1932L22.6543 12.8651L24.8094 11.303C25.2862 10.9548 25.7232 10.7259 26.1105 10.6165V10.6065ZM27.5406 13.6512C27.6598 13.482 27.7393 13.3228 27.7591 13.1636C27.7889 13.0044 27.7691 12.8452 27.7095 12.686C27.6499 12.5268 27.5704 12.3676 27.4512 12.2084C27.342 12.0592 27.2228 11.9398 27.0937 11.8503C26.9646 11.7607 26.8156 11.711 26.6468 11.701C26.4779 11.6911 26.2992 11.7209 26.0906 11.8005C25.8821 11.8801 25.6536 12.0094 25.4053 12.1885L24.3228 12.9746L25.7927 15.0143L26.9745 14.1586C27.2129 13.9795 27.4016 13.8104 27.5208 13.6512H27.5406Z" fill="white"/>
<path d="M33.42 13.4821C33.8074 13.5418 34.2642 13.4224 34.8005 13.1338C35.0687 12.9945 35.2673 12.8453 35.4163 12.6861C35.5653 12.5269 35.6646 12.3776 35.7242 12.2184C35.7838 12.0592 35.7937 11.91 35.7738 11.7508C35.744 11.5916 35.6944 11.4424 35.6149 11.2931C35.5553 11.1837 35.4858 11.0842 35.3964 10.9946C35.307 10.9051 35.1978 10.8354 35.0687 10.7956C34.9396 10.7558 34.7807 10.7359 34.6019 10.7459C34.4231 10.7459 34.2146 10.7956 33.9762 10.8752L33.0128 11.1837C32.6354 11.3031 32.2779 11.3926 31.9601 11.4424C31.6423 11.4921 31.3443 11.4822 31.0762 11.4225C30.808 11.3628 30.5697 11.2434 30.3512 11.0643C30.1327 10.8852 29.944 10.6364 29.7652 10.3081C29.5865 9.97973 29.4971 9.66134 29.4971 9.34294C29.4971 9.02455 29.5666 8.72605 29.7156 8.43751C29.8546 8.14896 30.0632 7.88032 30.3413 7.63157C30.6193 7.38283 30.9371 7.15398 31.3145 6.95498C31.7913 6.69629 32.2183 6.53709 32.5957 6.47739C32.9731 6.41769 33.3108 6.41769 33.6087 6.47739C33.9067 6.53709 34.1649 6.66644 34.3933 6.84554C34.6218 7.02463 34.8204 7.22363 34.9892 7.45247L33.9861 8.21861C33.6882 7.88032 33.3803 7.68132 33.0625 7.61167C32.7447 7.54202 32.3375 7.64152 31.8608 7.90022C31.5827 8.04946 31.3642 8.19871 31.2152 8.34796C31.0563 8.49721 30.9471 8.64645 30.8776 8.78575C30.808 8.935 30.7882 9.0743 30.7981 9.2136C30.808 9.35289 30.8478 9.48224 30.9173 9.60164C31.0762 9.90013 31.2848 10.0892 31.5231 10.1389C31.7615 10.1986 32.119 10.1588 32.5759 10.0195L33.6286 9.69119C34.4231 9.43249 35.0786 9.37279 35.5951 9.52204C36.1115 9.66134 36.5286 10.0394 36.8564 10.6464C37.0153 10.9349 37.1046 11.2334 37.1344 11.5419C37.1642 11.8503 37.1146 12.1488 36.9954 12.4473C36.8762 12.7458 36.6875 13.0343 36.4194 13.3229C36.1512 13.6015 35.8036 13.8602 35.3766 14.089C34.5026 14.5666 33.7081 14.7457 33.0128 14.6462C32.3176 14.5467 31.7317 14.1189 31.2649 13.3726L32.4368 12.7358C32.7248 13.1537 33.0724 13.4025 33.4498 13.4522L33.42 13.4821Z" fill="white"/>
<path d="M39.4286 3.55225L44.9407 9.83059L43.6198 10.3281L42.2393 8.71621L39.4088 9.77089L39.4286 11.8902L38.1475 12.3678L38.2071 4.00994L39.4386 3.55225H39.4286ZM39.3095 5.19397L39.3591 8.60676L41.5143 7.80083L39.3095 5.19397Z" fill="white"/>
<path d="M48.0096 1.36313C48.4168 1.41288 48.7445 1.52233 49.0127 1.69148C49.2808 1.86063 49.4795 2.06957 49.6285 2.30837C49.7774 2.55711 49.8767 2.80586 49.9264 3.06456C50.0356 3.56205 50.0356 3.99984 49.9065 4.37793C49.7874 4.75603 49.5291 5.09432 49.1418 5.40277L51.4658 8.38772L50.0555 8.70611L48.0096 5.97986C47.95 5.99976 47.8805 6.01966 47.811 6.03956C47.7415 6.05945 47.662 6.07935 47.5925 6.09925L46.2219 6.4077L46.8973 9.4225L45.626 9.71104L43.9277 2.07952L46.5298 1.50243C47.1058 1.37308 47.5925 1.33328 47.9997 1.38303L48.0096 1.36313ZM48.1288 4.72618C48.3076 4.62668 48.4367 4.50728 48.526 4.36798C48.6154 4.22869 48.6552 4.07944 48.675 3.91029C48.685 3.74114 48.675 3.56205 48.6254 3.373C48.5856 3.1939 48.526 3.03471 48.4367 2.90536C48.3473 2.77601 48.238 2.66656 48.0891 2.58696C47.9401 2.50736 47.7613 2.46757 47.5428 2.45762C47.3243 2.44767 47.0661 2.47752 46.7582 2.54716L45.4572 2.83571L46.0034 5.29332L47.4336 4.97492C47.7216 4.90527 47.96 4.82568 48.1387 4.72618H48.1288Z" fill="white"/>
<path d="M50.4521 0.636789L51.922 0.497492L54.1169 3.69139L55.7059 0.129348L57.0964 0L54.8916 4.79582L55.1994 8.02951L53.8984 8.15886L53.5905 4.92517L50.4521 0.636789Z" fill="white"/>
</g>
<g filter="url(#filter0_b_206_10237)">
<circle cx="59.5" cy="59.5" r="44.5" fill="white" fill-opacity="0.1"/>
</g>
<path d="M74 55.5359C76.6667 57.0755 76.6667 60.9245 74 62.4641L56 72.8564C53.3333 74.396 50 72.4715 50 69.3923L50 48.6077C50 45.5285 53.3333 43.604 56 45.1436L74 55.5359Z" fill="white"/>
<defs>
<filter id="filter0_b_206_10237" x="-19" y="-19" width="157" height="157" filterUnits="userSpaceOnUse" color-interpolation-filters="sRGB">
<feFlood flood-opacity="0" result="BackgroundImageFix"/>
<feGaussianBlur in="BackgroundImage" stdDeviation="17"/>
<feComposite in2="SourceAlpha" operator="in" result="effect1_backgroundBlur_206_10237"/>
<feBlend mode="normal" in="SourceGraphic" in2="effect1_backgroundBlur_206_10237" result="shape"/>
</filter>
<clipPath id="clip0_206_10237">
<rect width="119" height="119" fill="white"/>
</clipPath>
</defs>
</svg>
