<svg width="48" height="48" viewBox="0 0 48 48" fill="none" xmlns="http://www.w3.org/2000/svg">
<rect width="48" height="48" rx="4" fill="#21232E"/>
<path d="M29 9.625C26.2919 9.625 24.7569 11.875 24 13.4875C23.2431 11.875 21.7081 9.625 19 9.625C18.1712 9.625 17.3763 9.95424 16.7903 10.5403C16.2042 11.1263 15.875 11.9212 15.875 12.75C15.875 13.5788 16.2042 14.3737 16.7903 14.9597C17.3763 15.5458 18.1712 15.875 19 15.875H29C29.8288 15.875 30.6237 15.5458 31.2097 14.9597C31.7958 14.3737 32.125 13.5788 32.125 12.75C32.125 11.9212 31.7958 11.1263 31.2097 10.5403C30.6237 9.95424 29.8288 9.625 29 9.625ZM19 14.625C18.5027 14.625 18.0258 14.4275 17.6742 14.0758C17.3225 13.7242 17.125 13.2473 17.125 12.75C17.125 12.2527 17.3225 11.7758 17.6742 11.4242C18.0258 11.0725 18.5027 10.875 19 10.875C21.3406 10.875 22.6163 13.3275 23.125 14.625H19ZM29 14.625H24.8712C25.3787 13.3281 26.65 10.875 29 10.875C29.4973 10.875 29.9742 11.0725 30.3258 11.4242C30.6775 11.7758 30.875 12.2527 30.875 12.75C30.875 13.2473 30.6775 13.7242 30.3258 14.0758C29.9742 14.4275 29.4973 14.625 29 14.625Z" fill="#F7BF26"/>
<path d="M35.875 18.375H12.125V36.5C12.125 36.9973 12.3225 37.4742 12.6742 37.8258C13.0258 38.1775 13.5027 38.375 14 38.375H34C34.4973 38.375 34.9742 38.1775 35.3258 37.8258C35.6775 37.4742 35.875 36.9973 35.875 36.5V18.375Z" fill="#F74B3B"/>
<path d="M37.125 14.625H10.875C10.5435 14.625 10.2255 14.7567 9.99112 14.9911C9.7567 15.2255 9.625 15.5435 9.625 15.875V19.625C9.625 19.9565 9.7567 20.2745 9.99112 20.5089C10.2255 20.7433 10.5435 20.875 10.875 20.875H37.125C37.4565 20.875 37.7745 20.7433 38.0089 20.5089C38.2433 20.2745 38.375 19.9565 38.375 19.625V15.875C38.375 15.5435 38.2433 15.2255 38.0089 14.9911C37.7745 14.7567 37.4565 14.625 37.125 14.625Z" fill="#FF7163"/>
<path d="M27.125 14.625H20.875V20.875H27.125V14.625Z" fill="#FFD764"/>
<path d="M27.125 20.875H20.875V38.375H27.125V20.875Z" fill="#F7BF26"/>
</svg>
