<svg width="161" height="16" viewBox="0 0 161 16" fill="none" xmlns="http://www.w3.org/2000/svg">
<g opacity="0.1">
<path d="M5.8595 1.12403C5.9341 0.527181 5.46872 0 4.86722 0H2.88278C2.37846 0 1.95306 0.375536 1.8905 0.875965L0.140504 14.876C0.0658975 15.4728 0.531284 16 1.13278 16H3.11722C3.62154 16 4.04694 15.6245 4.1095 15.124L5.8595 1.12403Z" fill="white"/>
<path d="M12.8595 1.12403C12.9341 0.527181 12.4687 0 11.8672 0H8.88278C8.37846 0 7.95306 0.375536 7.8905 0.875965L6.1405 14.876C6.0659 15.4728 6.53128 16 7.13278 16H10.1172C10.6215 16 11.0469 15.6245 11.1095 15.124L12.8595 1.12403Z" fill="white"/>
<path d="M20.8595 1.12403C20.9341 0.527181 20.4687 0 19.8672 0H15.8828C15.3785 0 14.9531 0.375536 14.8905 0.875965L13.1405 14.876C13.0659 15.4728 13.5313 16 14.1328 16H18.1172C18.6215 16 19.0469 15.6245 19.1095 15.124L20.8595 1.12403Z" fill="white"/>
<path fill-rule="evenodd" clip-rule="evenodd" d="M153.019 15C153.288 15 153.545 14.8917 153.733 14.6996L159.939 8.36097C160.134 8.16223 160.453 8.16054 160.65 8.35721C160.844 8.55103 160.846 8.86476 160.654 9.06053L154.148 15.6999C153.96 15.8918 153.702 16 153.433 16H18.6465C18.3703 16 18.1465 15.7761 18.1465 15.5C18.1465 15.2239 18.3703 15 18.6465 15H153.019Z" fill="white"/>
</g>
</svg>
