<svg width="16" height="16" viewBox="0 0 16 16" fill="none" xmlns="http://www.w3.org/2000/svg">
<path d="M8 0C6.41775 0 4.87104 0.469192 3.55544 1.34824C2.23985 2.22729 1.21447 3.47672 0.608967 4.93853C0.00346629 6.40034 -0.15496 8.00887 0.153721 9.56072C0.462403 11.1126 1.22433 12.538 2.34315 13.6569C3.46197 14.7757 4.88743 15.5376 6.43928 15.8463C7.99113 16.155 9.59966 15.9965 11.0615 15.391C12.5233 14.7855 13.7727 13.7602 14.6518 12.4446C15.5308 11.129 16 9.58225 16 8C16 5.87827 15.1571 3.84344 13.6569 2.34315C12.1566 0.842855 10.1217 0 8 0V0ZM3.33334 6.66667C3.33334 6.13623 3.54405 5.62753 3.91912 5.25245C4.2942 4.87738 4.8029 4.66667 5.33334 4.66667C5.86377 4.66667 6.37248 4.87738 6.74755 5.25245C7.12262 5.62753 7.33334 6.13623 7.33334 6.66667V7.33333H6V6.66667C6 6.48986 5.92977 6.32029 5.80474 6.19526C5.67972 6.07024 5.51015 6 5.33334 6C5.15653 6 4.98696 6.07024 4.86193 6.19526C4.73691 6.32029 4.66667 6.48986 4.66667 6.66667V7.33333H3.33334V6.66667ZM8 13.3333C6.93914 13.3333 5.92172 12.9119 5.17158 12.1618C4.42143 11.4116 4 10.3942 4 9.33333H12C12 10.3942 11.5786 11.4116 10.8284 12.1618C10.0783 12.9119 9.06087 13.3333 8 13.3333ZM12.6667 7.33333H11.3333V6.66667C11.3333 6.48986 11.2631 6.32029 11.1381 6.19526C11.0131 6.07024 10.8435 6 10.6667 6C10.4899 6 10.3203 6.07024 10.1953 6.19526C10.0702 6.32029 10 6.48986 10 6.66667V7.33333H8.66667V6.66667C8.66667 6.13623 8.87738 5.62753 9.25246 5.25245C9.62753 4.87738 10.1362 4.66667 10.6667 4.66667C11.1971 4.66667 11.7058 4.87738 12.0809 5.25245C12.456 5.62753 12.6667 6.13623 12.6667 6.66667V7.33333Z" fill="#70C81B"/>
</svg>
