<svg width="16" height="14" viewBox="0 0 16 14" fill="none" xmlns="http://www.w3.org/2000/svg">
<path d="M15.9683 0.684219C15.9557 0.625173 15.9276 0.570567 15.8868 0.526075C15.846 0.481584 15.794 0.44883 15.7363 0.431219C15.526 0.389298 15.3084 0.404843 15.1063 0.476219C15.1063 0.476219 1.08725 5.51422 0.286252 6.07222C0.114252 6.19322 0.056252 6.26222 0.027252 6.34422C-0.110748 6.74422 0.320252 6.91722 0.320252 6.91722L3.93325 8.09422C3.99426 8.10522 4.05701 8.10145 4.11625 8.08322C4.93825 7.56422 12.3863 2.86122 12.8163 2.70322C12.8843 2.68322 12.9343 2.70322 12.9163 2.75222C12.7443 3.35222 6.31025 9.07122 6.27525 9.10622C6.25818 9.12048 6.2448 9.13866 6.23627 9.15921C6.22774 9.17975 6.2243 9.20206 6.22625 9.22422L5.88925 12.7522C5.88925 12.7522 5.74725 13.8522 6.84525 12.7522C7.62425 11.9732 8.37225 11.3272 8.74525 11.0142C9.98725 11.8722 11.3243 12.8202 11.9013 13.3142C11.9979 13.4083 12.1125 13.4819 12.2383 13.5305C12.3641 13.5792 12.4985 13.6018 12.6333 13.5972C12.7992 13.5767 12.955 13.5062 13.0801 13.3952C13.2051 13.2841 13.2934 13.1376 13.3333 12.9752C13.3333 12.9752 15.8943 2.70022 15.9793 1.31722C15.9873 1.18222 16.0003 1.10022 16.0003 1.00022C16.0039 0.893924 15.9931 0.787623 15.9683 0.684219Z" fill="white"/>
</svg>
