<svg width="574" height="101" viewBox="0 0 574 101" fill="none" xmlns="http://www.w3.org/2000/svg">
<path d="M0.768066 98.9123H10.1565V60.8253H0.768066V98.9123Z" fill="white"/>
<path d="M18.0629 98.9123H25.7976V74.161L45.2679 98.9123H54.3362V60.8253H46.5481V85.4165L27.5046 60.8253H18.0629V98.9123Z" fill="white"/>
<path d="M84.9047 98.9123H94.2931V67.2798H106.402V60.8253H72.7959V67.2798H84.9047V98.9123Z" fill="white"/>
<path d="M111.361 98.9123H120.696V82.696H138.78V98.9123H148.115V60.8253H138.78V75.868H120.696V60.8253H111.361V98.9123Z" fill="white"/>
<path d="M156.005 98.9123H187.211V92.5111H165.34V82.1625H185.184V75.7613H165.34V67.2265H187.157V60.8253H156.005V98.9123Z" fill="white"/>
<path d="M206.639 98.9123H214L216.614 70.2137L224.882 98.9123H235.551L243.713 70.3737L246.22 98.9123H255.341L252.087 60.8253H238.592L230.804 88.5637L222.962 60.8253H209.893L206.639 98.9123Z" fill="white"/>
<path d="M280.762 100.032C292.124 100.032 298.632 95.1782 298.632 84.8297V60.8253H289.297V84.1362C289.297 90.6974 286.576 93.4179 280.762 93.4179C274.894 93.4179 272.227 90.6974 272.227 84.1362V60.8253H262.839V84.8297C262.839 95.1782 269.346 100.032 280.762 100.032Z" fill="white"/>
<path d="M306.137 98.9123H335.155V92.191H315.525V60.8253H306.137V98.9123Z" fill="white"/>
<path d="M343.233 98.9123H352.622V67.2798H364.731V60.8253H331.124V67.2798H343.233V98.9123Z" fill="white"/>
<path d="M369.69 98.9123H379.078V60.8253H369.69V98.9123Z" fill="white"/>
<path d="M397.28 98.9123H407.895L422.298 60.8253H412.909L403.468 89.3105L393.973 60.8253H382.824L397.28 98.9123Z" fill="white"/>
<path d="M426.054 98.9123H457.26V92.5111H435.389V82.1625H455.233V75.7613H435.389V67.2265H457.207V60.8253H426.054V98.9123Z" fill="white"/>
<path d="M463.197 98.9123H472.585V84.5096H480.053L488.534 98.9123H498.723L489.068 83.7628C494.936 81.9491 497.976 77.6284 497.976 72.0807C497.976 65.0927 492.909 60.8253 485.387 60.8253H463.197V98.9123ZM472.585 78.2685V67.2798H482.4C485.121 67.2798 487.894 68.9334 487.894 72.8275C487.894 76.4548 485.441 78.2685 482.507 78.2685H472.585Z" fill="white"/>
<path d="M520.406 100.032C526.114 100.032 537.209 98.4322 537.209 86.9634C537.209 81.0957 534.275 75.548 527.394 75.548C523.66 75.548 519.873 77.255 516.725 77.255C512.831 77.255 511.871 74.8545 511.871 72.294C511.871 67.7599 514.965 65.5728 518.913 65.5728C523.447 65.5728 526.381 68.0799 526.434 72.4007H535.876C535.876 63.2257 528.461 59.7051 519.286 59.7051C506.324 59.7051 502.696 66.7997 502.696 72.8808C502.696 77.9484 505.203 83.4428 512.938 83.4428C516.992 83.4428 520.459 81.8425 523.233 81.8425C526.807 81.8425 527.928 84.2962 527.928 87.0701C527.928 91.9776 524.354 93.7913 520.406 93.7913C515.232 93.7913 511.925 91.3375 511.871 86.3233H502.163C502.269 97.5787 511.391 100.032 520.406 100.032Z" fill="white"/>
<path d="M542.794 98.9123H574V92.5111H552.129V82.1625H571.973V75.7613H552.129V67.2265H573.947V60.8253H542.794V98.9123Z" fill="white"/>
<path d="M102.844 46.6899C113.939 46.6899 120.447 39.9154 121.087 31.1671H111.805C111.325 36.5547 108.231 40.2354 102.844 40.2354C95.429 40.2354 92.5484 34.0476 92.5484 26.4729C92.5484 18.9515 95.429 12.6037 102.844 12.6037C107.645 12.6037 110.685 16.4444 111.218 21.512H120.554C119.913 12.6037 113.139 6.25586 102.844 6.25586C89.1878 6.25586 83 15.7509 83 26.4729C83 37.1949 89.1878 46.6899 102.844 46.6899Z" fill="white"/>
<path d="M123.483 45.5697H132.231L135.272 36.9815H170.638L173.679 45.5697H182.61L169.411 7.48275H137.939L123.483 45.5697ZM136.979 31.0604L142.158 15.7863H164.384L168.985 31.0604H136.979Z" fill="white"/>
<path d="M192.065 45.5697H201.453V13.9373H213.562V7.48275H179.956V13.9373H192.065V45.5697Z" fill="white"/>
<path d="M229.129 45.5697H239.745L254.147 7.48275H244.759L235.317 35.968L225.822 7.48275H214.673L229.129 45.5697Z" fill="white"/>
<path d="M257.904 45.5697H289.109V39.1686H267.239V28.82H287.082V22.4188H267.239V13.8839H289.056V7.48275H257.904V45.5697Z" fill="white"/>
<path d="M295.046 45.5697H302.781V20.8185L322.251 45.5697H331.319V7.48275H323.531V32.0739L304.488 7.48275H295.046V45.5697Z" fill="white"/>
<path d="M348.396 45.5697H357.784V13.9373H369.893V7.48275H336.287V13.9373H348.396V45.5697Z" fill="white"/>
<path d="M392.402 46.6899C403.764 46.6899 410.272 41.8357 410.272 31.4871V7.48275H400.937V30.7937C400.937 37.3549 398.216 40.0754 392.402 40.0754C386.534 40.0754 383.867 37.3549 383.867 30.7937V7.48275H374.479V31.4871C374.479 41.8357 380.987 46.6899 392.402 46.6899Z" fill="white"/>
<path d="M417.777 45.5697H427.165V31.1671H434.633L443.115 45.5697H453.303L443.648 30.4203C449.516 28.6066 452.556 24.2858 452.556 18.7381C452.556 11.7502 447.489 7.48275 439.967 7.48275H417.777V45.5697ZM427.165 24.9259V13.9373H436.98C439.701 13.9373 442.475 15.5909 442.475 19.4849C442.475 23.1123 440.021 24.9259 437.087 24.9259H427.165Z" fill="white"/>
<path d="M458.93 45.5697H490.136V39.1686H468.265V28.82H488.109V22.4188H468.265V13.8839H490.082V7.48275H458.93V45.5697Z" fill="white"/>
<path d="M140.38 0.227539L134.601 16.2305L147.492 10.0071L140.38 0.227539Z" fill="white"/>
<path d="M167.051 0.227539L172.386 16.2305L159.939 10.0071L167.051 0.227539Z" fill="white"/>
</svg>
