<svg width="14" height="12" viewBox="0 0 14 12" fill="none" xmlns="http://www.w3.org/2000/svg">
<path d="M14 1.625C13.475 1.8875 12.95 1.975 12.3375 2.0625C12.95 1.7125 13.3875 1.1875 13.5625 0.4875C13.0375 0.8375 12.425 1.0125 11.725 1.1875C11.2 0.6625 10.4125 0.3125 9.625 0.3125C8.1375 0.3125 6.825 1.625 6.825 3.2C6.825 3.4625 6.825 3.6375 6.9125 3.8125C4.55 3.725 2.3625 2.5875 0.9625 0.8375C0.7 1.275 0.6125 1.7125 0.6125 2.325C0.6125 3.2875 1.1375 4.1625 1.925 4.6875C1.4875 4.6875 1.05 4.5125 0.6125 4.3375C0.6125 5.7375 1.575 6.875 2.8875 7.1375C2.625 7.225 2.3625 7.225 2.1 7.225C1.925 7.225 1.75 7.225 1.575 7.1375C1.925 8.275 2.975 9.15 4.2875 9.15C3.325 9.9375 2.1 10.375 0.7 10.375C0.4375 10.375 0.2625 10.375 0 10.375C1.3125 11.1625 2.8 11.6875 4.375 11.6875C9.625 11.6875 12.5125 7.3125 12.5125 3.55C12.5125 3.4625 12.5125 3.2875 12.5125 3.2C13.125 2.7625 13.65 2.2375 14 1.625Z" fill="white"/>
</svg>
