<svg width="1435" height="148" viewBox="0 0 1435 148" fill="none" xmlns="http://www.w3.org/2000/svg">
<path opacity="0.05" d="M4.42376 4.04999V30.93H50.2038V104.01H78.7638V30.93H124.544V4.04999H4.42376ZM0.433765 30.93V4.04999C0.433765 1.39 1.76376 0.0600003 4.42376 0.0600003H124.544C127.204 0.0600003 128.534 1.39 128.534 4.04999V30.93C128.534 33.59 127.204 34.92 124.544 34.92H82.7538V104.01C82.7538 106.67 81.4238 108 78.7638 108H50.2038C47.5438 108 46.2138 106.67 46.2138 104.01V34.92H4.42376C1.76376 34.92 0.433765 33.59 0.433765 30.93ZM177.667 30.93H244.237V77.13H177.667V30.93ZM256.837 4.04999H164.857C162.897 4.04999 161.007 4.53999 159.187 5.51999C157.367 6.35999 155.687 7.55 154.147 9.09C152.607 10.63 151.347 12.38 150.367 14.34C149.527 16.3 149.107 18.26 149.107 20.22V87.84C149.107 89.94 149.527 91.97 150.367 93.93C151.347 95.75 152.607 97.43 154.147 98.97C155.687 100.51 157.367 101.77 159.187 102.75C161.007 103.59 162.897 104.01 164.857 104.01H256.837C258.797 104.01 260.687 103.59 262.507 102.75C264.467 101.77 266.217 100.51 267.757 98.97C269.297 97.43 270.487 95.75 271.327 93.93C272.307 91.97 272.797 89.94 272.797 87.84V20.22C272.797 18.26 272.307 16.3 271.327 14.34C270.487 12.38 269.297 10.63 267.757 9.09C266.217 7.55 264.467 6.35999 262.507 5.51999C260.687 4.53999 258.797 4.04999 256.837 4.04999ZM256.837 0.0600003C259.217 0.0600003 261.597 0.690001 263.977 1.95C266.357 3.07 268.457 4.61 270.277 6.57C272.237 8.39 273.777 10.49 274.897 12.87C276.157 15.25 276.787 17.7 276.787 20.22V87.84C276.787 90.36 276.157 92.88 274.897 95.4C273.777 97.78 272.237 99.95 270.277 101.91C268.457 103.73 266.357 105.2 263.977 106.32C261.597 107.44 259.217 108 256.837 108H164.857C162.477 108 160.097 107.44 157.717 106.32C155.477 105.2 153.377 103.73 151.417 101.91C149.597 99.95 148.057 97.78 146.797 95.4C145.677 92.88 145.117 90.36 145.117 87.84V20.22C145.117 17.7 145.677 15.25 146.797 12.87C148.057 10.49 149.597 8.39 151.417 6.57C153.377 4.61 155.477 3.07 157.717 1.95C160.097 0.690001 162.477 0.0600003 164.857 0.0600003H256.837ZM240.247 34.92H181.657V73.14H240.247V34.92ZM326.457 41.85V4.04999H297.897V104.01H326.457V66.21H353.757L421.167 143.7H456.657L378.957 54.24L422.217 4.04999H386.727L353.757 41.85H326.457ZM330.447 4.04999V37.86H351.867L383.787 1.52999C383.927 1.25 384.347 0.969997 385.047 0.689992C385.747 0.269998 386.307 0.0600003 386.727 0.0600003H422.217C424.037 0.0600003 425.297 0.829999 425.997 2.37C426.697 3.76999 426.417 5.23999 425.157 6.78L383.997 54.24L459.597 141.18C460.717 142.58 460.927 143.98 460.227 145.38C459.667 146.92 458.477 147.69 456.657 147.69H421.167C420.887 147.69 420.397 147.55 419.697 147.27C418.997 146.99 418.507 146.71 418.227 146.43L351.867 70.2H330.447V104.01C330.447 106.67 329.117 108 326.457 108H297.897C295.237 108 293.907 106.67 293.907 104.01V4.04999C293.907 1.39 295.237 0.0600003 297.897 0.0600003H326.457C329.117 0.0600003 330.447 1.39 330.447 4.04999ZM529.575 37.86H479.175C476.515 37.86 475.185 39.19 475.185 41.85V66.21C475.185 68.87 476.515 70.2 479.175 70.2H546.165C548.545 70.2 550.925 69.64 553.305 68.52C555.685 67.4 557.785 65.93 559.605 64.11C561.565 62.15 563.105 59.98 564.225 57.6C565.485 55.22 566.115 52.77 566.115 50.25V20.22C566.115 17.7 565.485 15.25 564.225 12.87C563.105 10.49 561.565 8.39 559.605 6.57C557.785 4.61 555.685 3.07 553.305 1.95C550.925 0.690001 548.545 0.0600003 546.165 0.0600003H455.445C453.065 0.0600003 450.685 0.690001 448.305 1.95C446.065 3.07 443.965 4.61 442.005 6.57C440.185 8.39 438.645 10.49 437.385 12.87C436.265 15.25 435.705 17.7 435.705 20.22V87.84C435.705 90.36 436.265 92.88 437.385 95.4C438.645 97.78 440.185 99.95 442.005 101.91C443.965 103.73 446.065 105.2 448.305 106.32C450.685 107.44 453.065 108 455.445 108H562.125C564.785 108 566.115 106.67 566.115 104.01V77.13C566.115 74.47 564.785 73.14 562.125 73.14H472.245V34.92H529.575V37.86ZM479.175 41.85H533.565V30.93H468.255V77.13H562.125V104.01H455.445C453.485 104.01 451.525 103.59 449.565 102.75C447.745 101.77 446.065 100.51 444.525 98.97C443.125 97.43 441.935 95.75 440.955 93.93C439.975 91.97 439.485 89.94 439.485 87.84V20.22C439.485 18.26 439.975 16.3 440.955 14.34C441.935 12.38 443.125 10.63 444.525 9.09C446.065 7.55 447.745 6.35999 449.565 5.51999C451.525 4.53999 453.485 4.04999 455.445 4.04999H546.165C548.125 4.04999 550.015 4.53999 551.835 5.51999C553.795 6.35999 555.545 7.55 557.085 9.09C558.625 10.63 559.815 12.38 560.655 14.34C561.635 16.3 562.125 18.26 562.125 20.22V50.25C562.125 52.21 561.635 54.17 560.655 56.13C559.815 57.95 558.625 59.63 557.085 61.17C555.545 62.71 553.795 63.97 551.835 64.95C550.015 65.79 548.125 66.21 546.165 66.21H479.175V41.85ZM609.934 0.269998L612.454 1.52999C611.754 0.829995 611.054 0.409996 610.354 0.269998C609.794 0.129999 609.164 0.0600003 608.464 0.0600003H603.004C600.204 0.0600003 597.544 0.549998 595.024 1.52999C592.644 2.51 590.544 3.84 588.724 5.51999C586.904 7.05999 585.434 8.80999 584.314 10.77C583.334 12.73 582.844 14.69 582.844 16.65V104.01C582.844 106.67 584.174 108 586.834 108H615.394C618.054 108 619.384 106.67 619.384 104.01V50.88C636.324 67.26 650.324 80.35 661.384 90.15C672.584 99.81 680.774 105.55 685.954 107.37C686.374 107.79 686.724 108 687.004 108H688.894H694.354C697.014 108 699.534 107.51 701.914 106.53C704.434 105.55 706.604 104.29 708.424 102.75C710.384 101.21 711.854 99.46 712.834 97.5C713.954 95.54 714.514 93.51 714.514 91.41V4.04999C714.514 1.39 713.184 0.0600003 710.524 0.0600003H681.964C679.304 0.0600003 677.974 1.39 677.974 4.04999V57.18L664.744 44.58C656.764 37.02 649.834 30.51 643.954 25.05C638.074 19.59 632.964 15.11 628.624 11.61C624.424 7.97 620.784 5.24 617.704 3.41999C614.764 1.59999 612.174 0.549994 609.934 0.269998ZM609.514 4.26C611.894 4.54 614.764 5.94 618.124 8.45999C621.624 10.84 626.174 14.55 631.774 19.59C637.374 24.63 644.234 31 652.354 38.7C660.474 46.4 670.344 55.64 681.964 66.42V4.04999H710.524V91.41C710.524 93.09 710.104 94.7 709.264 96.24C708.424 97.64 707.234 98.97 705.694 100.23C704.294 101.35 702.614 102.26 700.654 102.96C698.694 103.66 696.594 104.01 694.354 104.01H688.894C688.334 104.01 687.984 103.94 687.844 103.8C685.744 103.52 682.874 102.19 679.234 99.81C675.594 97.29 670.834 93.51 664.954 88.47C659.214 83.43 652.284 77.06 644.164 69.36C636.044 61.52 626.454 52.21 615.394 41.43V104.01H586.834V16.65C586.834 15.25 587.254 13.78 588.094 12.24C588.934 10.7 590.054 9.37 591.454 8.24999C592.994 6.98999 594.744 6.00999 596.704 5.31C598.664 4.46999 600.764 4.04999 603.004 4.04999H608.464C609.024 4.04999 609.374 4.11999 609.514 4.26ZM762.504 66.21H839.364V77.13H735.204V104.01H851.964C853.924 104.01 855.814 103.59 857.634 102.75C859.594 101.77 861.344 100.51 862.884 98.97C864.424 97.43 865.614 95.75 866.454 93.93C867.434 91.97 867.924 89.94 867.924 87.84V58.02C867.924 55.92 867.434 53.96 866.454 52.14C865.614 50.18 864.424 48.43 862.884 46.89C861.344 45.35 859.594 44.16 857.634 43.32C855.814 42.34 853.924 41.85 851.964 41.85H775.104V30.93H867.924V4.04999H762.504C760.544 4.04999 758.584 4.53999 756.624 5.51999C754.804 6.35999 753.124 7.55 751.584 9.09C750.044 10.63 748.784 12.38 747.804 14.34C746.964 16.3 746.544 18.26 746.544 20.22V50.25C746.544 52.21 746.964 54.17 747.804 56.13C748.784 57.95 750.044 59.63 751.584 61.17C753.124 62.71 754.804 63.97 756.624 64.95C758.584 65.79 760.544 66.21 762.504 66.21ZM835.374 70.2H762.504C760.124 70.2 757.744 69.64 755.364 68.52C752.984 67.4 750.814 65.93 748.854 64.11C747.034 62.15 745.494 59.98 744.234 57.6C743.114 55.22 742.554 52.77 742.554 50.25V20.22C742.554 17.7 743.114 15.25 744.234 12.87C745.494 10.49 747.034 8.39 748.854 6.57C750.814 4.61 752.984 3.07 755.364 1.95C757.744 0.690001 760.124 0.0600003 762.504 0.0600003H867.924C870.584 0.0600003 871.914 1.39 871.914 4.04999V30.93C871.914 33.59 870.584 34.92 867.924 34.92H779.094V37.86H851.964C854.344 37.86 856.724 38.49 859.104 39.75C861.484 40.87 863.584 42.41 865.404 44.37C867.364 46.19 868.904 48.29 870.024 50.67C871.284 53.05 871.914 55.5 871.914 58.02V87.84C871.914 90.36 871.284 92.88 870.024 95.4C868.904 97.78 867.364 99.95 865.404 101.91C863.584 103.73 861.484 105.2 859.104 106.32C856.724 107.44 854.344 108 851.964 108H735.204C732.544 108 731.214 106.67 731.214 104.01V77.13C731.214 74.47 732.544 73.14 735.204 73.14H835.374V70.2ZM953.532 36.18L968.652 64.53H938.622L953.532 36.18ZM919.302 104.01L927.072 87.84H979.782L987.552 104.01H1018.63L978.732 20.22C976.492 15.6 974.042 12.17 971.382 9.93C968.722 7.55 965.152 6.35999 960.672 6.35999H948.282C939.322 6.35999 932.672 10.98 928.332 20.22L888.222 104.01H919.302ZM929.592 91.62L922.872 105.69C922.592 106.25 922.102 106.81 921.402 107.37C920.702 107.79 920.002 108 919.302 108H888.222C886.682 108 885.492 107.44 884.652 106.32C883.952 105.06 883.952 103.73 884.652 102.33L924.762 18.54C930.082 7.76 937.922 2.37 948.282 2.37H960.672C965.992 2.37 970.192 3.77 973.272 6.57C976.492 9.23 979.432 13.22 982.092 18.54L1022.2 102.33C1022.9 103.73 1022.83 105.06 1021.99 106.32C1021.29 107.44 1020.17 108 1018.63 108H987.552C986.992 108 986.362 107.79 985.662 107.37C984.962 106.81 984.472 106.25 984.192 105.69L977.472 91.62H929.592ZM962.142 60.54L953.532 44.58L944.922 60.54H962.142ZM1068.5 2.37H1040.36C1037.84 2.37 1036.58 3.7 1036.58 6.35999V88.26C1036.58 90.78 1037.14 93.23 1038.26 95.61C1039.38 97.85 1040.85 99.95 1042.67 101.91C1044.63 103.73 1046.73 105.2 1048.97 106.32C1051.21 107.44 1053.52 108 1055.9 108H1149.35C1151.87 108 1153.13 106.67 1153.13 104.01V77.76C1153.13 75.24 1151.87 73.98 1149.35 73.98H1072.28V6.35999C1072.28 3.7 1071.02 2.37 1068.5 2.37ZM1040.36 6.35999H1068.5V77.76H1149.35V104.01H1055.9C1053.94 104.01 1052.05 103.59 1050.23 102.75C1048.41 101.77 1046.73 100.58 1045.19 99.18C1043.79 97.64 1042.6 95.96 1041.62 94.14C1040.78 92.18 1040.36 90.22 1040.36 88.26V6.35999ZM1191.14 104.01H1285.43V77.76H1203.74V67.05H1285.22V43.32H1203.74V32.61H1285.43V6.35999H1191.14C1189.18 6.35999 1187.29 6.84999 1185.47 7.82999C1183.65 8.67 1181.97 9.86 1180.43 11.4C1179.03 12.8 1177.84 14.48 1176.86 16.44C1176.02 18.26 1175.6 20.15 1175.6 22.11V88.26C1175.6 90.22 1176.02 92.18 1176.86 94.14C1177.84 95.96 1179.03 97.64 1180.43 99.18C1181.97 100.58 1183.65 101.77 1185.47 102.75C1187.29 103.59 1189.18 104.01 1191.14 104.01ZM1191.14 108C1188.76 108 1186.45 107.44 1184.21 106.32C1181.97 105.2 1179.87 103.73 1177.91 101.91C1176.09 99.95 1174.62 97.85 1173.5 95.61C1172.38 93.23 1171.82 90.78 1171.82 88.26V22.11C1171.82 19.59 1172.38 17.21 1173.5 14.97C1174.62 12.59 1176.09 10.49 1177.91 8.67C1179.87 6.71 1181.97 5.17 1184.21 4.04999C1186.45 2.92999 1188.76 2.37 1191.14 2.37H1285.43C1287.95 2.37 1289.21 3.7 1289.21 6.35999V32.61C1289.21 35.13 1287.95 36.39 1285.43 36.39H1207.52V39.33H1285.22C1287.74 39.33 1289 40.66 1289 43.32V67.05C1289 69.71 1287.74 71.04 1285.22 71.04H1207.52V73.98H1285.43C1287.95 73.98 1289.21 75.24 1289.21 77.76V104.01C1289.21 106.67 1287.95 108 1285.43 108H1191.14ZM1327.42 67.05H1402.81V77.76H1311.88V104.01H1415.2C1417.02 104.01 1418.84 103.59 1420.66 102.75C1422.62 101.77 1424.3 100.58 1425.7 99.18C1427.24 97.64 1428.43 95.96 1429.27 94.14C1430.25 92.18 1430.74 90.22 1430.74 88.26V59.07C1430.74 57.11 1430.25 55.22 1429.27 53.4C1428.43 51.44 1427.24 49.76 1425.7 48.36C1424.3 46.82 1422.62 45.63 1420.66 44.79C1418.84 43.81 1417.02 43.32 1415.2 43.32H1339.81V32.61H1430.74V6.35999H1327.42C1325.46 6.35999 1323.57 6.84999 1321.75 7.82999C1319.93 8.67 1318.25 9.86 1316.71 11.4C1315.31 12.8 1314.12 14.48 1313.14 16.44C1312.3 18.26 1311.88 20.15 1311.88 22.11V51.3C1311.88 53.26 1312.3 55.22 1313.14 57.18C1314.12 59 1315.31 60.68 1316.71 62.22C1318.25 63.62 1319.93 64.81 1321.75 65.79C1323.57 66.63 1325.46 67.05 1327.42 67.05ZM1398.82 71.04H1327.42C1325.04 71.04 1322.73 70.48 1320.49 69.36C1318.25 68.24 1316.15 66.77 1314.19 64.95C1312.37 62.99 1310.9 60.89 1309.78 58.65C1308.66 56.27 1308.1 53.82 1308.1 51.3V22.11C1308.1 19.59 1308.66 17.21 1309.78 14.97C1310.9 12.59 1312.37 10.49 1314.19 8.67C1316.15 6.71 1318.25 5.17 1320.49 4.04999C1322.73 2.92999 1325.04 2.37 1327.42 2.37H1430.74C1433.4 2.37 1434.73 3.7 1434.73 6.35999V32.61C1434.73 35.13 1433.4 36.39 1430.74 36.39H1343.8V39.33H1415.2C1417.44 39.33 1419.68 39.89 1421.92 41.01C1424.3 42.13 1426.4 43.67 1428.22 45.63C1430.18 47.45 1431.72 49.55 1432.84 51.93C1434.1 54.17 1434.73 56.55 1434.73 59.07V88.26C1434.73 90.78 1434.1 93.23 1432.84 95.61C1431.72 97.85 1430.18 99.95 1428.22 101.91C1426.4 103.73 1424.3 105.2 1421.92 106.32C1419.68 107.44 1417.44 108 1415.2 108H1311.88C1309.36 108 1308.1 106.67 1308.1 104.01V77.76C1308.1 75.24 1309.36 73.98 1311.88 73.98H1398.82V71.04Z" fill="white"/>
</svg>
