<svg width="210" height="205" viewBox="0 0 210 205" fill="none" xmlns="http://www.w3.org/2000/svg">
<path d="M37.9611 154.379L85.0275 41.208L163.167 119.347L49.9955 166.414C46.5533 167.845 42.5876 167.059 39.9515 164.423C37.3154 161.787 36.5295 157.822 37.9611 154.379Z" fill="url(#paint0_radial_26_22)" stroke="url(#paint1_linear_26_22)"/>
<g filter="url(#filter0_b_26_22)">
<path fill-rule="evenodd" clip-rule="evenodd" d="M113.137 91.2373C135.006 113.107 157.8 125.77 164.049 119.522C168.923 114.648 162.29 99.7078 148.758 82.9919L147.704 81.7027C146.28 79.9795 144.785 78.2398 143.223 76.4926L142.039 75.181C140.046 72.993 137.951 70.7968 135.765 68.6099C133.578 66.4229 131.381 64.3281 129.193 62.335L127.882 61.1514C126.135 59.5898 124.395 58.0945 122.672 56.6706L121.383 55.6162C104.667 42.084 89.7266 35.4519 84.8528 40.3256C78.6044 46.574 91.2677 69.3679 113.137 91.2373Z" fill="url(#paint2_radial_26_22)"/>
<path d="M163.695 119.168C162.313 120.551 159.933 120.963 156.628 120.323C153.344 119.687 149.278 118.033 144.694 115.487C135.531 110.396 124.402 101.795 113.491 90.8837C102.579 79.9723 93.978 68.843 88.8879 59.6808C86.3411 55.0966 84.6878 51.0305 84.0517 47.7462C83.4116 44.4411 83.8237 42.0618 85.2064 40.6792C86.2841 39.6014 87.9641 39.1117 90.2346 39.2547C92.5031 39.3976 95.2911 40.17 98.4809 41.5287C104.856 44.2442 112.729 49.2546 121.067 56.0038C121.067 56.0042 121.068 56.0045 121.068 56.0048L122.353 57.0561C122.354 57.0563 122.354 57.0566 122.354 57.0569C124.072 58.4761 125.806 59.9666 127.548 61.5234C127.548 61.5237 127.548 61.5239 127.549 61.5242L128.857 62.7046C128.857 62.7048 128.857 62.7051 128.857 62.7053C131.039 64.6929 133.23 66.7822 135.411 68.9634C137.592 71.1447 139.681 73.335 141.669 75.5169C141.669 75.5172 141.67 75.5174 141.67 75.5177L142.85 76.8258C142.85 76.8261 142.851 76.8264 142.851 76.8266C144.408 78.5688 145.899 80.3033 147.318 82.0211C147.318 82.0211 147.318 82.0212 147.318 82.0212L148.37 83.3065C148.37 83.3067 148.37 83.307 148.37 83.3072C155.12 91.6447 160.13 99.518 162.846 105.893C164.204 109.083 164.977 111.871 165.12 114.14C165.263 116.41 164.773 118.09 163.695 119.168Z" stroke="url(#paint3_radial_26_22)"/>
</g>
<path fill-rule="evenodd" clip-rule="evenodd" d="M203.679 31.115L183.029 31.9783L194.875 53.4533L203.679 31.115Z" fill="#FFDAFE"/>
<path fill-rule="evenodd" clip-rule="evenodd" d="M111.015 4.29623L99.7505 30.1946L120.786 29.3949L111.015 4.29623Z" fill="#5B72F2"/>
<circle cx="156.463" cy="9.8995" r="7" transform="rotate(45 156.463 9.8995)" fill="#E965E2"/>
<circle cx="154.392" cy="97.9229" r="7" transform="rotate(45 154.392 97.9229)" fill="#E965E2"/>
<path fill-rule="evenodd" clip-rule="evenodd" d="M132.247 43.0279C130.092 41.7957 129.342 39.051 130.571 36.894C131.802 34.7322 134.554 33.9801 136.714 35.2152L137.292 35.5456L138.244 36.105L139.148 36.6457L140.019 37.1769C146.127 40.9391 150.4 44.4292 153.195 48.5271L153.406 48.8414L153.501 48.9891L153.753 48.9474C162.849 47.4814 170.141 50.6776 175.137 57.6517L175.37 57.9813C178.12 61.9432 180.43 70.9867 181.649 76.4981C182.199 78.9809 180.503 81.3565 177.989 81.7366C175.558 82.1042 173.276 80.4599 172.772 78.0536C171.78 73.3219 170.007 66.0383 167.977 63.1143C165.242 59.1751 161.71 57.2502 156.778 57.6293L156.362 57.6664L156.367 57.7621C156.446 60.6223 155.73 63.5608 154.158 66.5207L153.965 66.876L153.466 67.76C147.286 78.5044 140.212 83.3458 133.246 81.5837C127.143 80.0402 123.202 73.3782 124.141 67.4464C125.398 59.51 131.038 54.7832 139.339 52.1913C139.532 52.1313 139.738 52.0701 139.957 52.0082L140.645 51.8206C140.885 51.7576 141.134 51.6941 141.39 51.6307L142.175 51.4407L142.987 51.2529L143.679 51.0986L143.66 51.0786C141.758 49.1808 139.109 47.2115 135.697 45.0859L135.299 44.8399L134.49 44.3466L133.644 43.841L132.748 43.3145L132.247 43.0279ZM147.182 59.6398L147.195 59.5597L145.471 59.9274L144.465 60.1528L143.532 60.3739L142.967 60.5163L142.46 60.653L142.022 60.7823C136.64 62.4626 133.645 64.9724 133.031 68.8544C132.791 70.3651 134.058 72.5057 135.453 72.8585C137.052 73.263 139.424 72.0346 142.277 68.3997L142.679 67.8769C142.746 67.7871 142.814 67.696 142.882 67.6036L143.292 67.033C143.499 66.7396 143.707 66.4341 143.918 66.1162L144.343 65.4637C144.414 65.3521 144.486 65.2392 144.557 65.1249L144.99 64.4218L145.427 63.6846C145.501 63.5588 145.574 63.4316 145.648 63.3029L146.093 62.5133C146.636 61.5336 147 60.5793 147.182 59.6398Z" fill="white"/>
<defs>
<filter id="filter0_b_26_22" x="69.6663" y="25.1391" width="109.569" height="109.57" filterUnits="userSpaceOnUse" color-interpolation-filters="sRGB">
<feFlood flood-opacity="0" result="BackgroundImageFix"/>
<feGaussianBlur in="BackgroundImage" stdDeviation="6.7957"/>
<feComposite in2="SourceAlpha" operator="in" result="effect1_backgroundBlur_26_22"/>
<feBlend mode="normal" in="SourceGraphic" in2="effect1_backgroundBlur_26_22" result="shape"/>
</filter>
<radialGradient id="paint0_radial_26_22" cx="0" cy="0" r="1" gradientUnits="userSpaceOnUse" gradientTransform="translate(83.4264 54.4245) rotate(49.4017) scale(103.344 110.642)">
<stop stop-color="#F065E2"/>
<stop offset="1" stop-color="#3748FA"/>
</radialGradient>
<linearGradient id="paint1_linear_26_22" x1="36.1433" y1="58.1548" x2="51.1825" y2="147.003" gradientUnits="userSpaceOnUse">
<stop stop-color="white" stop-opacity="0.29535"/>
<stop offset="1" stop-color="white" stop-opacity="0.01"/>
</linearGradient>
<radialGradient id="paint2_radial_26_22" cx="0" cy="0" r="1" gradientUnits="userSpaceOnUse" gradientTransform="translate(90.903 79.9236) rotate(34.3143) scale(73.0722)">
<stop stop-color="white" stop-opacity="0.801593"/>
<stop offset="1" stop-color="#889AFF" stop-opacity="0.301884"/>
</radialGradient>
<radialGradient id="paint3_radial_26_22" cx="0" cy="0" r="1" gradientUnits="userSpaceOnUse" gradientTransform="translate(91.2046 46.722) rotate(70.2944) scale(47.4778 71.8208)">
<stop stop-color="white" stop-opacity="0.973411"/>
<stop offset="1" stop-color="white" stop-opacity="0.01"/>
</radialGradient>
</defs>
</svg>
