<svg width="60" height="60" viewBox="0 0 60 60" fill="none" xmlns="http://www.w3.org/2000/svg">
<path d="M8.82291 51.177C11.572 53.926 14.7743 56.0848 18.3412 57.5935C22.0364 59.1564 25.959 59.9487 30.0001 59.9487C34.0411 59.9487 37.9638 59.1564 41.659 57.5935C45.2257 56.0848 48.4282 53.9259 51.1774 51.177C53.9264 48.4278 56.0853 45.2255 57.5938 41.6586C59.1567 37.9634 59.9493 34.0408 59.9493 29.9999C59.9493 25.9586 59.1567 22.0361 57.5938 18.341C56.0853 14.7741 53.9263 11.5718 51.1774 8.82266C48.4282 6.07356 45.2258 3.91475 41.659 2.40615C37.9637 0.84315 34.0411 0.0507812 30.0001 0.0507812C25.959 0.0507812 22.0364 0.843252 18.3412 2.40615C14.7743 3.91475 11.572 6.07366 8.82291 8.82266C6.0738 11.5717 3.915 14.7741 2.40629 18.3409C0.843496 22.0361 0.0510254 25.9586 0.0510254 29.9999C0.0510254 34.0409 0.843496 37.9634 2.40639 41.6586C3.915 45.2255 6.07391 48.4278 8.82291 51.177ZM30.0001 4.42289C44.1259 4.42289 55.577 15.8741 55.577 29.9999C55.577 44.1255 44.1259 55.5766 30.0001 55.5766C15.8743 55.5766 4.42314 44.1255 4.42314 29.9999C4.42314 15.8741 15.8743 4.42289 30.0001 4.42289Z" fill="#AD2323"/>
<path d="M30.0001 60C25.9518 60 22.0226 59.2062 18.3213 57.6408C14.7483 56.1294 11.5405 53.9669 8.78688 51.2133C6.03309 48.4594 3.87061 45.2515 2.35945 41.6787C0.793798 37.9772 0 34.0479 0 30.0001C0 25.9522 0.793798 22.0228 2.35935 18.3212C3.8705 14.7484 6.03309 11.5406 8.78678 8.78678C11.5405 6.03298 14.7484 3.8705 18.3212 2.35935C22.0228 0.793798 25.9521 0 30 0C34.0482 0 37.9775 0.793798 41.6787 2.35945C45.2516 3.87061 48.4594 6.03319 51.2133 8.78688C53.9672 11.5409 56.1297 14.7487 57.6408 18.3213C59.2064 22.0229 60.0002 25.9522 60.0002 30.0001C60.0002 34.0479 59.2064 37.9772 57.6408 41.6788C56.1297 45.2515 53.9673 48.4593 51.2133 51.2134C48.4596 53.9669 45.2517 56.1294 41.6787 57.6409C37.9775 59.2062 34.0482 60 30.0001 60ZM30.0001 0.102057C25.9659 0.102057 22.0501 0.893099 18.3611 2.45334C14.8005 3.95939 11.6034 6.11453 8.85904 8.85894C6.11453 11.6034 3.95939 14.8004 2.45334 18.3609C0.893099 22.05 0.102057 25.9659 0.102057 30.0001C0.102057 34.0341 0.893099 37.9501 2.45334 41.6391C3.95939 45.1997 6.11453 48.3966 8.85904 51.1412C11.6033 53.8854 14.8003 56.0405 18.3611 57.5468C22.0497 59.1069 25.9656 59.8979 30.0001 59.8979C34.0346 59.8979 37.9504 59.1069 41.6391 57.5467C45.1998 56.0405 48.3969 53.8854 51.1412 51.1412C53.8858 48.3963 56.0408 45.1994 57.5467 41.6391C59.107 37.9501 59.8981 34.0342 59.8981 30.0001C59.8981 25.9659 59.107 22.05 57.5467 18.3611C56.0409 14.8007 53.8858 11.6038 51.1412 8.85904C48.3967 6.11463 45.1996 3.9595 41.6391 2.45344C37.9503 0.893099 34.0344 0.102057 30.0001 0.102057ZM30.0001 55.6279C23.1546 55.6279 16.7188 52.9622 11.8784 48.1217C7.03794 43.2812 4.37211 36.8456 4.37211 30.0001C4.37211 23.1546 7.03784 16.7188 11.8784 11.8784C16.7188 7.03794 23.1546 4.37211 30.0001 4.37211C36.8456 4.37211 43.2813 7.03794 48.1217 11.8784C52.9623 16.7189 55.628 23.1546 55.628 30.0001C55.628 36.8456 52.9623 43.2813 48.1217 48.1217C43.2813 52.9622 36.8455 55.6279 30.0001 55.6279ZM30.0001 4.47417C23.1819 4.47417 16.7718 7.12938 11.9505 11.9505C7.12938 16.7718 4.47417 23.1819 4.47417 30.0001C4.47417 36.8183 7.12938 43.2284 11.9505 48.0495C16.7717 52.8706 23.1819 55.5258 30.0001 55.5258C36.8183 55.5258 43.2284 52.8706 48.0496 48.0495C52.8707 43.2284 55.5259 36.8182 55.5259 30.0001C55.5259 23.1819 52.8707 16.7717 48.0496 11.9505C43.2283 7.12928 36.8183 4.47417 30.0001 4.47417Z" fill="#AD2323"/>
<path d="M18.8723 41.128C19.2992 41.555 19.8586 41.7684 20.4181 41.7684C20.9775 41.7684 21.537 41.5549 21.9638 41.128L30 33.0919L38.0362 41.128C38.463 41.555 39.0225 41.7684 39.582 41.7684C40.1415 41.7684 40.7008 41.5549 41.1277 41.128C41.9814 40.2745 41.9814 38.8903 41.1277 38.0366L33.0914 30.0005L41.1275 21.9642C41.9812 21.1105 41.9812 19.7263 41.1275 18.8727C40.274 18.019 38.8898 18.019 38.0361 18.8727L29.9999 26.909L21.9637 18.8727C21.11 18.019 19.7258 18.019 18.8722 18.8727C18.0185 19.7264 18.0185 21.1105 18.8722 21.9642L26.9085 30.0005L18.8722 38.0366C18.0186 38.8903 18.0186 40.2745 18.8723 41.128Z" fill="#AD2323"/>
<path d="M39.5822 41.8189C38.9845 41.8189 38.4228 41.5862 38.0003 41.1634L30.0001 33.1633L22.0001 41.1634C21.5776 41.5862 21.0158 41.8189 20.4182 41.8189C19.8207 41.8189 19.2589 41.5862 18.8364 41.1634C18.4138 40.7409 18.1812 40.1792 18.1812 39.5818C18.1812 38.9842 18.4138 38.4225 18.8364 37.9999L26.8365 29.9998L18.8364 21.9996C17.9642 21.1273 17.9642 19.7081 18.8364 18.8359C19.2589 18.4134 19.8206 18.1807 20.4182 18.1807C21.0158 18.1807 21.5776 18.4134 22.0001 18.8359L30.0002 26.836L38.0004 18.8359C38.423 18.4134 38.9847 18.1807 39.5823 18.1807C40.1797 18.1807 40.7414 18.4134 41.1639 18.8359C41.5865 19.2584 41.8191 19.8202 41.8191 20.4177C41.8191 21.0153 41.5865 21.5771 41.1639 21.9996L33.1638 29.9998L41.1641 37.9999C41.5868 38.4225 41.8194 38.9842 41.8194 39.5818C41.8194 40.1792 41.5868 40.7409 41.1641 41.1634C40.7413 41.5861 40.1796 41.8189 39.5822 41.8189ZM30.0001 33.019L38.0724 41.0913C38.4755 41.4946 39.0118 41.7168 39.5822 41.7168C40.1523 41.7168 40.6885 41.4946 41.0919 41.0913C41.4951 40.6882 41.7173 40.1521 41.7173 39.5818C41.7173 39.0115 41.4951 38.4753 41.0919 38.072L33.0194 29.9998L41.0917 21.9275C41.4949 21.5242 41.717 20.988 41.717 20.4177C41.717 19.8475 41.4949 19.3114 41.0917 18.9081C40.6886 18.5049 40.1524 18.2828 39.5822 18.2828C39.0119 18.2828 38.4757 18.5049 38.0724 18.9081L30.0001 26.9804L21.9279 18.9081C21.5246 18.5049 20.9884 18.2828 20.4181 18.2828C19.8478 18.2828 19.3117 18.5049 18.9085 18.9081C18.0761 19.7406 18.0761 21.095 18.9085 21.9275L26.9808 29.9998L18.9085 38.072C18.5053 38.4753 18.2832 39.0115 18.2832 39.5818C18.2832 40.1521 18.5053 40.6882 18.9085 41.0913C19.3118 41.4946 19.8479 41.7168 20.4182 41.7168C20.9885 41.7168 21.5246 41.4946 21.928 41.0913L30.0001 33.019Z" fill="#AD2323"/>
</svg>
