<svg width="20" height="20" viewBox="0 0 20 20" fill="none" xmlns="http://www.w3.org/2000/svg">
<g clip-path="url(#clip0)">
<path d="M17.4648 4.33642C14.7237 0.97738 10.051 4.82966 7.09769 2.26312L7.1921 1.91078C7.30934 1.47321 7.04946 1.02308 6.61192 0.905842C6.17437 0.788602 5.72431 1.0485 5.60706 1.48608L1.95162 15.1283C1.83439 15.5659 2.09421 16.016 2.53176 16.1332C2.9693 16.2504 3.41943 15.9906 3.53666 15.5531L5.08526 9.77361C7.89251 12.2125 12.2534 8.85345 15.0324 11.3999C15.1606 11.5177 15.3411 11.5605 15.5085 11.5113C15.6759 11.4628 15.8054 11.3304 15.8506 11.1617C16.4204 9.03492 16.9903 6.90804 17.5604 4.78069C17.6016 4.62645 17.5659 4.46027 17.4648 4.33642Z" fill="#F34B4B"/>
</g>
<defs>
<clipPath id="clip0">
<rect width="16" height="16" fill="white" transform="translate(4.14111) rotate(15)"/>
</clipPath>
</defs>
</svg>
