<svg width="16" height="16" viewBox="0 0 16 16" fill="none" xmlns="http://www.w3.org/2000/svg">
<g clip-path="url(#clip0)">
<path d="M9.97071 6.39886C9.71709 6.25213 9.4056 6.25111 9.15199 6.39613L6.03437 8.17758C5.77905 8.32362 5.62109 8.59528 5.62109 8.88975V12.102C5.62109 12.5551 5.98841 12.9224 6.44152 12.9224H9.55914C10.0122 12.9224 10.3796 12.5551 10.3796 12.102V7.10864C10.3792 6.81622 10.2233 6.54558 9.97071 6.39886Z" fill="#AEAEAE"/>
<path d="M4.39095 9.58761C4.13767 9.43952 3.82584 9.43918 3.57223 9.58489L0.413417 11.3902C0.0903528 11.5743 -0.0682855 11.9532 0.0273741 12.3127C0.122693 12.6725 0.44814 12.9228 0.820225 12.9228H3.97937C4.43248 12.9228 4.7998 12.5554 4.7998 12.1023V10.2967C4.80014 10.005 4.64423 9.73399 4.39095 9.58761Z" fill="#AEAEAE"/>
<path d="M15.5909 3.18703C15.3376 3.03996 15.0257 3.03928 14.7721 3.18464L11.6133 4.98958C11.3577 5.13562 11.1997 5.40762 11.1997 5.70209V12.1018C11.1997 12.5549 11.567 12.9222 12.0201 12.9222H15.1789C15.632 12.9222 15.9994 12.5549 15.9994 12.1018V3.89681C15.9997 3.60439 15.8438 3.33375 15.5909 3.18703Z" fill="#AEAEAE"/>
</g>
<defs>
<clipPath id="clip0">
<rect width="16" height="16" fill="white"/>
</clipPath>
</defs>
</svg>
