<svg width="16" height="16" viewBox="0 0 16 16" fill="none" xmlns="http://www.w3.org/2000/svg">
<path d="M15.9731 5.79296C15.9088 5.59465 15.7373 5.45007 15.5309 5.42004L10.6666 4.7132L8.49116 0.30554C8.39901 0.118397 8.2085 0 8.00008 0C7.79154 0 7.60096 0.118397 7.50875 0.30554L5.33332 4.7132L0.469098 5.42004C0.262922 5.45001 0.0912661 5.59453 0.026777 5.79296C-0.0375938 5.9911 0.0161963 6.20886 0.165508 6.35457L3.6854 9.78538L2.85443 14.63C2.81908 14.8354 2.90355 15.0432 3.07225 15.1658C3.24089 15.2884 3.46474 15.3046 3.64922 15.2075L8.00014 12.9202L12.3506 15.2074C12.4308 15.2495 12.5184 15.2703 12.6056 15.2703C12.7192 15.2703 12.8324 15.2351 12.9278 15.1658C13.0964 15.0432 13.1808 14.8354 13.1457 14.6299L12.8338 12.8113L12.5773 11.316L12.3148 9.78538L15.8345 6.35457C15.9839 6.20886 16.0376 5.9911 15.9731 5.79296Z" fill="#AEAEAE"/>
</svg>
