<svg width="28" height="28" viewBox="0 0 28 28" fill="none" xmlns="http://www.w3.org/2000/svg">
<path d="M13.9998 28C21.7317 28 27.9998 21.732 27.9998 14C27.9998 6.26801 21.7317 0 13.9998 0C6.26777 0 -0.000244141 6.26801 -0.000244141 14C-0.000244141 21.732 6.26777 28 13.9998 28Z" fill="#2E2E2E"/>
<path d="M20.2749 9.78983L21.4665 8.6499V8.40039H17.3386L14.3967 15.7228L11.0497 8.40039H6.72149V8.6499L8.11342 10.3256C8.24907 10.4494 8.32 10.6305 8.30196 10.8128V17.3978C8.34489 17.6349 8.26774 17.8788 8.10098 18.0512L6.53296 19.9515V20.1979H10.9788V19.9483L9.41077 18.0512C9.2409 17.8782 9.16063 17.6386 9.19486 17.3978V11.7019L13.0975 20.201H13.5511L16.9068 11.7019V18.4724C16.9068 18.651 16.9068 18.6877 16.7898 18.8047L15.5827 19.9726V20.2228H21.4391V19.9732L20.2755 18.8339C20.1735 18.7568 20.1206 18.6274 20.1424 18.5017V10.1221C20.1206 9.99579 20.1729 9.86636 20.2749 9.78983Z" fill="white"/>
</svg>
