<svg width="60" height="60" viewBox="0 0 60 60" fill="none" xmlns="http://www.w3.org/2000/svg">
<path d="M58.2844 8.20226C57.4017 7.31808 55.9696 7.31656 55.0869 8.19851L27.9588 35.255L18.1711 24.6246C17.3253 23.7065 15.8954 23.647 14.9759 24.4926C14.057 25.3384 13.9982 26.769 14.8439 27.6878L26.2259 40.0489C26.6427 40.5019 27.226 40.765 27.8412 40.7778C27.8577 40.7785 27.8736 40.7785 27.8894 40.7785C28.4872 40.7785 29.0623 40.5411 29.4859 40.119L58.2799 11.4004C59.1648 10.5186 59.1663 9.08644 58.2844 8.20226Z" fill="#72F34B"/>
<path d="M57.7386 27.7386C56.4896 27.7386 55.4774 28.7509 55.4774 30C55.4774 44.0488 44.0488 55.4774 30 55.4774C15.952 55.4774 4.52262 44.0488 4.52262 30C4.52262 15.952 15.952 4.52262 30 4.52262C31.249 4.52262 32.2614 3.51035 32.2614 2.26137C32.2614 1.01227 31.249 0 30 0C13.4578 0 0 13.4578 0 30C0 46.5415 13.4578 60 30 60C46.5415 60 60 46.5415 60 30C60 28.751 58.9877 27.7386 57.7386 27.7386Z" fill="#72F34B"/>
</svg>
