<svg width="28" height="28" viewBox="0 0 28 28" fill="none" xmlns="http://www.w3.org/2000/svg">
<path d="M28 14C28 21.7321 21.7321 28 14 28C6.26791 28 0 21.7321 0 14C0 6.26791 6.26791 0 14 0C21.7321 0 28 6.26791 28 14Z" fill="#2E2E2E"/>
<path d="M28 14C28 21.7321 21.7321 28 14 28C6.26791 28 0 21.7321 0 14C0 6.26791 6.26791 0 14 0C21.7321 0 28 6.26791 28 14Z" fill="#2E2E2E"/>
<path d="M10.5028 21.6587C17.6156 21.6587 21.5053 15.7659 21.5053 10.6562C21.5053 10.4887 21.5019 10.3223 21.4942 10.1566C22.2491 9.61053 22.9054 8.9295 23.4232 8.15427C22.7302 8.4621 21.9846 8.66952 21.2024 8.76288C22.0009 8.28436 22.6138 7.52686 22.903 6.62387C22.1555 7.06693 21.3284 7.38885 20.4476 7.56253C19.7418 6.811 18.7369 6.34082 17.625 6.34082C15.4892 6.34082 13.7574 8.07266 13.7574 10.2074C13.7574 10.511 13.7914 10.806 13.8576 11.0892C10.644 10.9275 7.7941 9.38858 5.88708 7.04898C5.55469 7.62042 5.36349 8.28436 5.36349 8.99252C5.36349 10.3341 6.04623 11.5186 7.08423 12.2114C6.44998 12.192 5.85397 12.0174 5.33295 11.7275C5.33209 11.7438 5.33209 11.76 5.33209 11.7769C5.33209 13.6499 6.6651 15.2134 8.43433 15.5678C8.10962 15.6563 7.76782 15.7039 7.41492 15.7039C7.16583 15.7039 6.92358 15.6791 6.68796 15.6343C7.18036 17.1704 8.60779 18.2885 10.3005 18.3202C8.97671 19.3573 7.3096 19.9753 5.49786 19.9753C5.18597 19.9753 4.87814 19.9576 4.57544 19.9217C6.28677 21.0184 8.31876 21.6587 10.5028 21.6587Z" fill="white"/>
</svg>
