<svg width="24" height="24" viewBox="0 0 24 24" fill="none" xmlns="http://www.w3.org/2000/svg">
<circle cx="12" cy="12" r="12" fill="#DCC70B"/>
<path fill-rule="evenodd" clip-rule="evenodd" d="M9.22194 7.21999C8.92723 7.51331 8.92723 7.98888 9.22194 8.2822L12.9574 11.9999L9.22183 15.7178C8.92711 16.0111 8.92711 16.4867 9.22183 16.78C9.51654 17.0733 9.99437 17.0733 10.2891 16.78L14.5581 12.5312C14.5783 12.5111 14.5971 12.4902 14.6145 12.4685C14.8516 12.1736 14.8329 11.7421 14.5583 11.4688L10.2892 7.21999C9.99449 6.92667 9.51666 6.92667 9.22194 7.21999Z" fill="black"/>
<path fill-rule="evenodd" clip-rule="evenodd" d="M9.22194 7.21999C8.92723 7.51331 8.92723 7.98888 9.22194 8.2822L12.9574 11.9999L9.22183 15.7178C8.92711 16.0111 8.92711 16.4867 9.22183 16.78C9.51654 17.0733 9.99437 17.0733 10.2891 16.78L14.5581 12.5312C14.5783 12.5111 14.5971 12.4902 14.6145 12.4685C14.8516 12.1736 14.8329 11.7421 14.5583 11.4688L10.2892 7.21999C9.99449 6.92667 9.51666 6.92667 9.22194 7.21999Z" fill="black"/>
</svg>
