<svg width="24" height="24" viewBox="0 0 24 24" fill="none" xmlns="http://www.w3.org/2000/svg">
<circle r="12" transform="matrix(-1 0 0 1 12 12)" fill="#F3E24B"/>
<path fill-rule="evenodd" clip-rule="evenodd" d="M14.7781 7.21999C15.0728 7.51331 15.0728 7.98888 14.7781 8.2822L11.0426 11.9999L14.7782 15.7178C15.0729 16.0111 15.0729 16.4867 14.7782 16.78C14.4835 17.0733 14.0056 17.0733 13.7109 16.78L9.44186 12.5312C9.42169 12.5111 9.4029 12.4902 9.38549 12.4685C9.1484 12.1736 9.16715 11.7421 9.44174 11.4688L13.7108 7.21999C14.0055 6.92667 14.4833 6.92667 14.7781 7.21999Z" fill="black"/>
<path fill-rule="evenodd" clip-rule="evenodd" d="M14.7781 7.21999C15.0728 7.51331 15.0728 7.98888 14.7781 8.2822L11.0426 11.9999L14.7782 15.7178C15.0729 16.0111 15.0729 16.4867 14.7782 16.78C14.4835 17.0733 14.0056 17.0733 13.7109 16.78L9.44186 12.5312C9.42169 12.5111 9.4029 12.4902 9.38549 12.4685C9.1484 12.1736 9.16715 11.7421 9.44174 11.4688L13.7108 7.21999C14.0055 6.92667 14.4833 6.92667 14.7781 7.21999Z" fill="black"/>
</svg>
