<svg width="16" height="17" viewBox="0 0 16 17" fill="none" xmlns="http://www.w3.org/2000/svg">
<g clip-path="url(#clip0_164:9135)">
<path d="M3.66337 7.35631C2.84534 7.35631 2.02731 7.35631 1.20928 7.35631C0.510453 7.35631 0.0172512 6.90929 0.010546 6.2127C-0.0028643 4.52102 -0.0028643 2.82933 0.010546 1.13764C0.0165062 0.452971 0.512688 0 1.1981 0H6.16216C6.86992 0 7.35419 0.479791 7.35419 1.19203C7.35816 2.85292 7.35816 4.51381 7.35419 6.17471C7.35419 6.88098 6.86322 7.35556 6.15396 7.35631C5.32352 7.3573 4.49332 7.3573 3.66337 7.35631Z" fill="white"/>
<path d="M15.994 3.69603C15.994 4.5081 15.994 5.31943 15.994 6.1315C15.994 6.89663 15.5298 7.3563 14.7662 7.3563C13.1361 7.3563 11.5062 7.3563 9.87662 7.3563C9.12415 7.3563 8.65628 6.89514 8.65479 6.14416C8.65479 4.50214 8.65479 2.85987 8.65479 1.21736C8.65553 0.465636 9.12266 0 9.87214 0H14.7803C15.5201 0 15.9902 0.465636 15.9932 1.20395C15.9962 2.03539 15.994 2.86534 15.994 3.69603Z" fill="white"/>
<path d="M3.69948 8.65576C4.519 8.65576 5.33851 8.65576 6.15356 8.65576C6.87847 8.65576 7.35453 9.1281 7.35602 9.85151C7.359 11.5059 7.359 13.1606 7.35602 14.8156C7.35602 15.5285 6.87698 16.0031 6.16399 16.0039C4.50956 16.0069 2.85487 16.0069 1.19994 16.0039C0.49292 16.0039 0.0116384 15.5412 0.00791327 14.8349C-3.35891e-05 13.1616 -3.35891e-05 11.4886 0.00791327 9.81575C0.0123834 9.11916 0.4959 8.65874 1.19249 8.65651C2.02617 8.65427 2.86282 8.65576 3.69948 8.65576Z" fill="white"/>
<path d="M12.3096 16.006C11.4975 16.006 10.6857 16.006 9.87415 16.006C9.11721 16.006 8.6553 15.5486 8.65381 14.7939C8.65381 13.1519 8.65381 11.5098 8.65381 9.86781C8.65381 9.11311 9.11646 8.65716 9.87415 8.65716C11.5035 8.65716 13.1336 8.6728 14.763 8.64971C15.5519 8.63779 16.0064 9.24572 15.9997 9.87675C15.9818 11.5158 15.9945 13.1481 15.993 14.7842C15.993 15.5493 15.5318 16.0053 14.763 16.006C13.9459 16.007 13.1281 16.007 12.3096 16.006Z" fill="white"/>
</g>
<defs>
<clipPath id="clip0_164:9135">
<rect width="16" height="16.0067" fill="white"/>
</clipPath>
</defs>
</svg>
