<svg width="26" height="16" viewBox="0 0 26 16" fill="none" xmlns="http://www.w3.org/2000/svg">
<path d="M16.0853 11.1798H9.61417C9.53484 11.6197 9.49166 12.0535 9.37617 12.4672C8.78168 14.6192 6.76524 16.1075 4.62026 15.994C2.30959 15.8715 0.458837 14.2467 0.0591632 11.9942C-0.0824296 11.2029 0.0591632 10.4327 0.199752 9.65945C0.537165 7.84686 0.857506 6.03025 1.20496 4.21766C1.64882 1.86581 3.78978 0.034143 6.18782 0.0200841C10.6063 -0.0066947 15.0268 -0.0066947 19.4493 0.0200841C21.9538 0.0331388 24.1058 1.96322 24.5186 4.43859C24.8359 6.33955 25.1713 8.2385 25.5599 10.1254C26.1313 12.902 24.374 15.2288 22.1406 15.8313C19.3047 16.5965 16.4257 14.6202 16.1355 11.696C16.1194 11.5243 16.1023 11.3596 16.0853 11.1798ZM6.45394 6.73822C6.45394 7.19111 6.44389 7.60685 6.45394 8.02259C6.45556 8.13202 6.4814 8.23974 6.5296 8.33799C6.5778 8.43625 6.64717 8.52261 6.73271 8.59087C6.81825 8.65914 6.91785 8.70761 7.02436 8.7328C7.13086 8.75799 7.24162 8.75929 7.34868 8.73658C7.70618 8.6693 7.95121 8.36202 7.95824 7.95431C7.96526 7.5466 7.95824 7.15898 7.95824 6.73822C8.39908 6.73822 8.80679 6.73822 9.2145 6.73822C9.41345 6.73822 9.60425 6.65918 9.74493 6.51851C9.8856 6.37783 9.96464 6.18703 9.96464 5.98808C9.96464 5.78913 9.8856 5.59832 9.74493 5.45764C9.60425 5.31697 9.41345 5.23793 9.2145 5.23793C8.80076 5.22588 8.38603 5.23793 7.95623 5.23793C7.95623 4.81014 7.96225 4.4185 7.95623 4.02686C7.94719 3.57095 7.6389 3.24258 7.22316 3.23053C7.12273 3.22657 7.02255 3.24308 6.92871 3.27906C6.83486 3.31503 6.74932 3.36972 6.67727 3.4398C6.60522 3.50987 6.54818 3.59386 6.50962 3.68667C6.47105 3.77948 6.45177 3.87917 6.45293 3.97967C6.4439 4.3944 6.45293 4.80914 6.45293 5.23793C6.02213 5.23793 5.63049 5.23793 5.23785 5.23793C4.7729 5.23793 4.44051 5.55928 4.44151 5.99109C4.44252 6.4229 4.76989 6.73721 5.23785 6.74123C5.62949 6.74123 6.02514 6.73822 6.45394 6.73822ZM17.2039 6.00314C17.2062 5.9029 17.1884 5.80322 17.1516 5.70997C17.1147 5.61673 17.0596 5.5318 16.9894 5.46021C16.9192 5.38861 16.8354 5.33179 16.7429 5.2931C16.6504 5.25441 16.5511 5.23463 16.4508 5.23492C16.2485 5.2394 16.0562 5.32338 15.9154 5.46868C15.7746 5.61397 15.6967 5.80887 15.6986 6.01117C15.6965 6.11324 15.7149 6.2147 15.7527 6.30952C15.7906 6.40434 15.8471 6.49057 15.919 6.56308C15.9908 6.6356 16.0766 6.69292 16.171 6.73164C16.2655 6.77035 16.3668 6.78966 16.4689 6.78843C16.5693 6.78708 16.6684 6.76547 16.7603 6.72488C16.8522 6.6843 16.9349 6.62559 17.0036 6.55226C17.0722 6.47893 17.1253 6.39249 17.1598 6.29814C17.1942 6.20378 17.2092 6.10344 17.2039 6.00314ZM21.2288 6.00314C21.2304 5.903 21.2121 5.80354 21.1749 5.71053C21.1378 5.61752 21.0825 5.53283 21.0123 5.46136C20.9422 5.38988 20.8585 5.33306 20.7662 5.29419C20.6739 5.25532 20.5748 5.23517 20.4746 5.23492C20.2726 5.23914 20.0803 5.32294 19.9397 5.4681C19.799 5.61326 19.7213 5.80806 19.7235 6.01017C19.724 6.10907 19.7439 6.20692 19.7822 6.29812C19.8204 6.38932 19.8763 6.47209 19.9466 6.5417C20.0168 6.61131 20.1001 6.6664 20.1917 6.70382C20.2832 6.74124 20.3813 6.76027 20.4802 6.75981C20.5791 6.75935 20.6769 6.73941 20.7681 6.70113C20.8593 6.66286 20.9421 6.60699 21.0117 6.53673C21.0813 6.46646 21.1364 6.38318 21.1738 6.29163C21.2112 6.20007 21.2303 6.10204 21.2298 6.00314H21.2288ZM18.4582 8.74663C18.5561 8.74876 18.6535 8.73138 18.7447 8.69549C18.8358 8.65961 18.9189 8.60594 18.9891 8.53761C19.0593 8.46929 19.1152 8.38768 19.1535 8.29753C19.1918 8.20738 19.2118 8.11051 19.2124 8.01255C19.2148 7.91236 19.1971 7.81271 19.1603 7.71946C19.1236 7.62622 19.0685 7.54129 18.9984 7.46968C18.9283 7.39807 18.8446 7.34123 18.7521 7.30253C18.6597 7.26383 18.5604 7.24404 18.4602 7.24434C18.2623 7.24897 18.0738 7.32993 17.9342 7.47029C17.7946 7.61065 17.7146 7.79955 17.7111 7.99749C17.7129 8.19526 17.7921 8.38445 17.9318 8.52449C18.0715 8.66453 18.2604 8.74427 18.4582 8.74663ZM19.2124 3.98167C19.2138 3.88379 19.1959 3.78657 19.1598 3.6956C19.1236 3.60463 19.0698 3.52169 19.0015 3.45154C18.9332 3.38139 18.8518 3.3254 18.7618 3.28679C18.6719 3.24817 18.5752 3.22769 18.4773 3.22651C18.3772 3.22558 18.2778 3.24447 18.1851 3.28208C18.0923 3.31969 18.0078 3.37529 17.9366 3.44566C17.8654 3.51604 17.8088 3.59981 17.7701 3.69214C17.7314 3.78448 17.7113 3.88356 17.7111 3.98368C17.717 4.18133 17.7989 4.36908 17.9397 4.50787C18.0806 4.64666 18.2695 4.72579 18.4672 4.7288C18.5653 4.72907 18.6625 4.70991 18.7532 4.67243C18.8438 4.63496 18.9261 4.5799 18.9954 4.51044C19.0647 4.44099 19.1195 4.3585 19.1568 4.26775C19.194 4.17699 19.2129 4.07977 19.2124 3.98167Z" fill="white"/>
</svg>
