<?xml version="1.0" encoding="UTF-8"?>
<svg xmlns="http://www.w3.org/2000/svg" xmlns:xlink="http://www.w3.org/1999/xlink" width="24px" height="px"
     viewBox="0 0 24 24" version="1.1">
    <g id="surface1">
        <path style="stroke:none;fill-rule:nonzero;fill:#72F34B;fill-opacity:1;"
              d="M 16.5 9.757812 L 23.246094 9.757812 C 23.671875 9.757812 23.988281 9.421875 23.988281 8.996094 C 23.988281 8.570312 23.671875 8.257812 23.246094 8.261719 L 17.25 8.261719 L 17.25 2.253906 C 17.25 1.828125 16.925781 1.503906 16.5 1.503906 C 16.078125 1.503906 15.753906 1.828125 15.753906 2.253906 L 15.753906 8.996094 C 15.753906 9 15.753906 9 15.753906 9.003906 C 15.753906 9.003906 15.753906 9.007812 15.753906 9.007812 C 15.753906 9.425781 16.082031 9.757812 16.5 9.757812 Z M 16.5 9.757812"/>
        <path style=" stroke:none;fill-rule:nonzero;fill:#72F34B;fill-opacity:1;"
              d="M 7.492188 1.511719 C 7.066406 1.511719 6.753906 1.828125 6.753906 2.253906 L 6.753906 8.246094 L 0.75 8.246094 C 0.324219 8.246094 0 8.570312 0 8.996094 C 0 9.421875 0.324219 9.746094 0.75 9.746094 L 7.492188 9.746094 C 7.496094 9.746094 7.496094 9.746094 7.5 9.746094 C 7.5 9.746094 7.5 9.746094 7.503906 9.746094 C 7.921875 9.746094 8.253906 9.414062 8.253906 8.996094 L 8.253906 2.253906 C 8.253906 1.828125 7.917969 1.511719 7.492188 1.511719 Z M 7.492188 1.511719"/>
        <path style="stroke:none;fill-rule:nonzero;fill:#72F34B;fill-opacity:1;"
              d="M 7.5 14.242188 L 0.753906 14.242188 C 0.328125 14.242188 0.0117188 14.578125 0.0117188 15.003906 C 0.0117188 15.429688 0.328125 15.742188 0.753906 15.742188 L 6.75 15.742188 L 6.75 21.746094 C 6.75 22.171875 7.074219 22.496094 7.5 22.496094 C 7.921875 22.496094 8.246094 22.171875 8.246094 21.746094 L 8.246094 15.003906 C 8.246094 15 8.246094 15 8.246094 14.996094 C 8.246094 14.996094 8.246094 14.992188 8.246094 14.992188 C 8.246094 14.574219 7.917969 14.242188 7.5 14.242188 Z M 7.5 14.242188"/>
        <path style="stroke:none;fill-rule:nonzero;fill:#72F34B;fill-opacity:1;"
              d="M 23.25 14.242188 L 16.507812 14.242188 C 16.503906 14.242188 16.503906 14.242188 16.5 14.242188 C 16.5 14.242188 16.5 14.242188 16.496094 14.242188 C 16.078125 14.242188 15.746094 14.574219 15.746094 14.992188 L 15.746094 21.734375 C 15.746094 22.160156 16.082031 22.476562 16.507812 22.480469 C 16.933594 22.480469 17.246094 22.160156 17.246094 21.734375 L 17.246094 15.742188 L 23.25 15.742188 C 23.675781 15.742188 24 15.417969 24 14.992188 C 24 14.566406 23.675781 14.242188 23.25 14.242188 Z M 23.25 14.242188"/>
    </g>
</svg>
