<?xml version="1.0" encoding="UTF-8"?>
<svg xmlns="http://www.w3.org/2000/svg" xmlns:xlink="http://www.w3.org/1999/xlink" width="24px" height="px" viewBox="0 0 24 24" version="1.1">
<g id="surface1">
<path style=" stroke:none;fill-rule:nonzero;fill:#72F34B;fill-opacity:1;" d="M 24 0.75 C 24 0.332031 23.667969 0 23.25 0 L 16.511719 0 C 16.085938 0 15.769531 0.335938 15.765625 0.761719 C 15.765625 1.1875 16.085938 1.5 16.511719 1.5 L 22.5 1.5 L 22.488281 7.515625 C 22.488281 7.941406 22.8125 8.265625 23.238281 8.265625 C 23.664062 8.265625 23.988281 7.941406 23.988281 7.515625 L 24 0.761719 C 24 0.757812 24 0.757812 24 0.757812 C 24 0.753906 24 0.753906 24 0.75 Z M 24 0.75 "/>
<path style=" stroke:none;fill-rule:nonzero;fill:#72F34B;fill-opacity:1;" d="M 7.511719 0 L 0.773438 0 C 0.769531 0 0.769531 0 0.765625 0 C 0.765625 0 0.761719 0 0.761719 0 C 0.34375 0 0.0117188 0.332031 0.0117188 0.75 L 0 7.507812 C 0 7.933594 0.335938 8.25 0.761719 8.25 C 1.1875 8.25 1.5 7.933594 1.5 7.507812 L 1.511719 1.5 L 7.511719 1.5 C 7.9375 1.5 8.261719 1.175781 8.261719 0.75 C 8.261719 0.324219 7.9375 0 7.511719 0 Z M 7.511719 0 "/>
<path style=" stroke:none;fill-rule:nonzero;fill:#72F34B;fill-opacity:1;" d="M 7.488281 22.5 L 1.5 22.5 L 1.5 16.5 C 1.5 16.074219 1.175781 15.75 0.75 15.75 C 0.324219 15.75 0 16.074219 0 16.5 L 0 23.238281 C 0 23.242188 0 23.242188 0 23.242188 C 0 23.246094 0 23.246094 0 23.25 C 0 23.667969 0.332031 24 0.75 24 L 7.488281 24 C 7.914062 24 8.230469 23.664062 8.234375 23.238281 C 8.234375 22.8125 7.914062 22.5 7.488281 22.5 Z M 7.488281 22.5 "/>
<path style=" stroke:none;fill-rule:nonzero;fill:#72F34B;fill-opacity:1;" d="M 23.238281 15.765625 C 22.8125 15.765625 22.5 16.085938 22.5 16.511719 L 22.5 22.5 L 16.5 22.5 C 16.074219 22.5 15.75 22.824219 15.75 23.25 C 15.75 23.675781 16.074219 24 16.5 24 L 23.238281 24 C 23.242188 24 23.242188 24 23.242188 24 C 23.246094 24 23.246094 24 23.25 24 C 23.667969 24 24 23.667969 24 23.25 L 24 16.511719 C 24 16.085938 23.664062 15.765625 23.238281 15.765625 Z M 23.238281 15.765625 "/>
</g>
</svg>
