<svg width="150" height="21" viewBox="0 0 150 21" fill="none" xmlns="http://www.w3.org/2000/svg">
<path d="M18.8004 13.2732H9.6826C9.44054 13.2732 9.31951 13.1522 9.31951 12.9101V8.06884C9.31951 7.79988 9.44054 7.6654 9.6826 7.6654H21.7052C22.1355 7.6654 22.5524 7.77298 22.9558 7.98815C23.3862 8.17642 23.7627 8.44538 24.0855 8.79503C24.4351 9.14468 24.7041 9.53468 24.8924 9.96501C25.1075 10.3954 25.2151 10.8257 25.2151 11.256V17.1866C25.2151 17.6439 25.1075 18.0876 24.8924 18.518C24.7041 18.9214 24.4351 19.298 24.0855 19.6476C23.7627 19.9704 23.3862 20.2393 22.9558 20.4545C22.5524 20.6428 22.1355 20.7369 21.7052 20.7369H3.55029C3.11995 20.7369 2.68961 20.6428 2.25927 20.4545C1.85583 20.2393 1.47929 19.9704 1.12964 19.6476C0.806884 19.298 0.537923 18.9214 0.322754 18.518C0.107584 18.0876 0 17.6439 0 17.1866V3.79235C0 3.36202 0.107584 2.93168 0.322754 2.50134C0.537923 2.071 0.806884 1.69446 1.12964 1.3717C1.47929 1.02205 1.85583 0.753091 2.25927 0.564819C2.68961 0.349649 3.11995 0.242064 3.55029 0.242064H24.852C25.0941 0.242064 25.2151 0.363097 25.2151 0.605162V5.93059C25.2151 6.17266 25.0941 6.29369 24.852 6.29369H6.45507V14.6449H18.8004V13.2732Z" fill="#72F34B"/>
<path d="M45.8767 7.22161C45.8767 7.00644 45.7153 6.89886 45.3926 6.89886C45.1774 6.89886 44.9353 7.01989 44.6664 7.26195C44.4243 7.47712 44.1957 7.70574 43.9805 7.94781L44.0209 7.90746L40.7126 11.9419H45.8767V7.22161ZM52.2914 5.08337V20.3335C52.2914 20.6024 52.1704 20.7369 51.9283 20.7369H46.2801C46.0112 20.7369 45.8767 20.6024 45.8767 20.3335V17.469H36.5572L34.0962 20.5755C34.0693 20.6831 33.9617 20.7369 33.7734 20.7369H27.157C26.9687 20.7369 26.8477 20.6697 26.7939 20.5352C26.7401 20.3738 26.7536 20.2259 26.8342 20.0914L40.6723 1.69445C41.3447 1.15653 42.2054 0.779987 43.2543 0.564819C44.3033 0.349649 45.3926 0.242064 46.5222 0.242064C47.3829 0.242064 48.1629 0.322753 48.8622 0.484129C49.5884 0.61861 50.1935 0.874124 50.6777 1.25067C51.1887 1.62722 51.5787 2.12479 51.8476 2.7434C52.1435 3.36202 52.2914 4.142 52.2914 5.08337Z" fill="#72F34B"/>
<path d="M61.6818 20.7369H56.0337C55.7647 20.7369 55.6302 20.6024 55.6302 20.3335V3.1065C55.6302 2.75685 55.7244 2.4072 55.9126 2.05755C56.1009 1.7079 56.3564 1.3986 56.6792 1.12964C57.0288 0.860675 57.4188 0.645506 57.8492 0.484129C58.2795 0.322753 58.7367 0.242064 59.2208 0.242064H60.7943C61.5743 0.322753 62.3274 0.605163 63.0536 1.08929C63.7797 1.54653 64.358 2.12479 64.7884 2.82409L70.6786 12.5874L76.6092 2.82409C77.0395 2.12479 77.6044 1.54653 78.3037 1.08929C79.0299 0.605163 79.7829 0.322753 80.5629 0.242064H82.1363C82.6205 0.242064 83.0777 0.322753 83.5081 0.484129C83.9653 0.645506 84.3553 0.860675 84.678 1.12964C85.0277 1.3986 85.2966 1.7079 85.4849 2.05755C85.6732 2.4072 85.7673 2.75685 85.7673 3.1065V20.3335C85.7673 20.6024 85.6328 20.7369 85.3639 20.7369H79.7157C79.4467 20.7369 79.3123 20.6024 79.3123 20.3335V10.8122C78.1826 12.695 77.1337 14.3491 76.1654 15.7746C75.2241 17.1732 74.4978 18.2221 73.9868 18.9214C73.3951 19.7014 72.8437 20.199 72.3327 20.4142C71.8217 20.6293 71.4182 20.7369 71.1224 20.7369H70.2752C69.791 20.7369 69.3338 20.6293 68.9035 20.4142C68.5 20.199 68.0024 19.7014 67.4107 18.9214C66.8728 18.2221 66.1197 17.1732 65.1514 15.7746C64.2101 14.3491 63.1746 12.695 62.0449 10.8122V20.3335C62.0449 20.6024 61.9239 20.7369 61.6818 20.7369Z" fill="#72F34B"/>
<path d="M107.695 7.6654H97.3269C97.0848 7.6654 96.9638 7.79988 96.9638 8.06884V12.9101C96.9638 13.1522 97.0848 13.2732 97.3269 13.2732H110.6C111.03 13.2732 111.447 13.1791 111.851 12.9908C112.281 12.7757 112.658 12.5067 112.98 12.1839C113.33 11.8343 113.599 11.4577 113.787 11.0543C114.002 10.624 114.11 10.1802 114.11 9.72295V3.79235C114.11 3.36202 114.002 2.93168 113.787 2.50134C113.599 2.071 113.33 1.69446 112.98 1.3717C112.658 1.02205 112.281 0.753091 111.851 0.564819C111.447 0.349649 111.03 0.242064 110.6 0.242064H92.6873C92.257 0.242064 91.8266 0.349649 91.3963 0.564819C90.9928 0.753091 90.6163 1.02205 90.2666 1.3717C89.9439 1.69446 89.6749 2.071 89.4598 2.50134C89.2446 2.93168 89.137 3.36202 89.137 3.79235V17.1866C89.137 17.6439 89.2446 18.0876 89.4598 18.518C89.6749 18.9214 89.9439 19.298 90.2666 19.6476C90.6163 19.9704 90.9928 20.2393 91.3963 20.4545C91.8266 20.6428 92.257 20.7369 92.6873 20.7369H113.747C113.989 20.7369 114.11 20.6024 114.11 20.3335V15.0484C114.11 14.7794 113.989 14.6449 113.747 14.6449H95.5921V6.29369H107.695V7.6654Z" fill="#72F34B"/>
<path d="M117.929 19.9704H123.416V12.7084H139.392V8.02849H123.416V5.93059H139.433V0.766538H120.955C120.578 0.766538 120.215 0.860675 119.866 1.04895C119.516 1.21032 119.193 1.43894 118.897 1.7348C118.602 2.03066 118.36 2.36686 118.171 2.7434C118.01 3.11995 117.929 3.4965 117.929 3.87304V19.9704ZM123.416 20.7369H117.929C117.418 20.7369 117.163 20.4814 117.163 19.9704V3.87304C117.163 3.38891 117.27 2.91823 117.485 2.461C117.727 2.00376 118.023 1.60032 118.373 1.25067C118.75 0.874124 119.153 0.578267 119.583 0.363098C120.041 0.121033 120.498 0 120.955 0H139.433C139.944 0 140.199 0.255513 140.199 0.766538V5.93059C140.199 6.44162 139.944 6.69713 139.433 6.69713H124.183V7.26195H139.392C139.903 7.26195 140.159 7.51747 140.159 8.02849V12.7084C140.159 13.2194 139.903 13.475 139.392 13.475H124.183V19.9704C124.183 20.4814 123.927 20.7369 123.416 20.7369Z" fill="#72F34B"/>
<path d="M149.274 19.9704V1.21032H143.827V19.9704H149.274ZM150 1.21032V19.9704C150 20.4814 149.758 20.7369 149.274 20.7369H143.827C143.343 20.7369 143.101 20.4814 143.101 19.9704V1.21032C143.101 0.699298 143.343 0.443785 143.827 0.443785H149.274C149.758 0.443785 150 0.699298 150 1.21032Z" fill="#72F34B"/>
</svg>
