<svg width="19" height="16" viewBox="0 0 19 16" fill="none" xmlns="http://www.w3.org/2000/svg">
<path d="M9.23461 2.44081C9.53199 2.09205 9.81346 1.70567 10.1514 1.3779C12.0905 -0.503353 15.0998 -0.462833 16.9347 1.52768C18.5953 3.32789 18.9144 5.40957 17.9976 7.66924C17.5099 8.87541 16.7357 9.89635 15.8704 10.8529C14.4638 12.4049 12.8452 13.7095 11.1238 14.8918C10.6173 15.2391 10.0949 15.5596 9.57975 15.8925C9.48359 15.961 9.36877 15.9985 9.25069 16C9.13261 16.0014 9.01692 15.9667 8.91914 15.9004C6.7065 14.5503 4.63929 13.0149 2.84704 11.1315C1.88109 10.112 1.04104 9.0042 0.475214 7.70542C-0.542109 5.36832 0.170596 2.846 1.69658 1.37428C3.64585 -0.502629 6.61678 -0.443297 8.48645 1.52478C8.76285 1.81638 8.99584 2.14704 9.23461 2.44081Z" fill="#72F34B"/>
</svg>
