<svg width="24" height="21" viewBox="0 0 24 21" fill="none" xmlns="http://www.w3.org/2000/svg">
<g clip-path="url(#clip0)">
<path d="M2.99891 15.572C2.99891 14.1833 2.99891 12.7946 2.99891 11.4059C2.99336 11.2542 3.02514 11.1034 3.09148 10.9669C3.15782 10.8303 3.25668 10.7121 3.37937 10.6227C5.14448 9.25854 6.90802 7.89259 8.66998 6.52483C9.65571 5.75895 10.641 4.9942 11.6258 4.23058C11.9002 4.01839 12.0988 4.01636 12.3732 4.23058C14.5987 5.9538 16.8234 7.67837 19.0471 9.40429C19.5708 9.80975 20.0932 10.2199 20.6196 10.6207C20.7429 10.7097 20.8423 10.8277 20.9091 10.9643C20.9758 11.101 21.0077 11.2519 21.0021 11.4039C21.0021 14.1818 21.0021 16.9594 21.0021 19.7368C21.0021 20.1159 20.8751 20.2443 20.5 20.2443H14.7803C14.3546 20.2443 14.2444 20.1342 14.2444 19.7037C14.2444 17.8088 14.2444 15.914 14.2444 14.0191C14.2444 13.6137 14.1363 13.5049 13.7383 13.5055H10.3135C9.84042 13.5055 9.75662 13.5934 9.75662 14.0698V19.6179C9.75662 19.6794 9.75662 19.7416 9.75662 19.803C9.74986 20.1038 9.60863 20.2443 9.30588 20.245H4.90188C4.41803 20.245 3.93486 20.245 3.451 20.245C3.1415 20.245 2.99959 20.1011 2.99959 19.7889C2.99869 18.3833 2.99846 16.9776 2.99891 15.572Z" fill="white"/>
<path d="M16.4978 3.17618V2.40175C16.4978 2.23348 16.4978 2.06386 16.4978 1.89627C16.5032 1.66651 16.6478 1.50432 16.8735 1.50229C17.6209 1.49599 18.3687 1.49599 19.117 1.50229C19.3509 1.50229 19.4914 1.6638 19.4975 1.91114C19.5036 2.17469 19.4975 2.43959 19.4975 2.70382C19.4975 3.57488 19.5022 4.44663 19.4975 5.3177C19.4937 5.38394 19.5073 5.45003 19.5371 5.50934C19.5669 5.56864 19.6117 5.61908 19.6671 5.65558C20.9524 6.64671 22.2364 7.64145 23.519 8.63979C23.9921 9.00673 24.1272 9.56627 23.8799 10.067C23.5528 10.7259 22.7405 10.8888 22.1283 10.4144C21.0889 9.60974 20.0505 8.80332 19.013 7.9951L12.6472 3.05454L12.6371 3.04102C12.1309 2.65043 11.8789 2.64908 11.3761 3.04102C8.20717 5.49678 5.04119 7.95208 1.87813 10.4069C1.21655 10.9232 0.344128 10.6941 0.0677372 9.93389C-0.0998539 9.47436 0.0582765 8.97226 0.479282 8.64452C1.39698 7.9309 2.3158 7.21796 3.23575 6.5057L11.2382 0.295368C11.7478 -0.0992821 12.2519 -0.0986063 12.7628 0.295368C13.9526 1.21847 15.1426 2.14067 16.3329 3.06197C16.3754 3.09644 16.4214 3.12347 16.4978 3.17618Z" fill="white"/>
</g>
<defs>
<clipPath id="clip0">
<rect width="24" height="20.2454" fill="white"/>
</clipPath>
</defs>
</svg>
