<svg width="150" height="56" viewBox="0 0 150 56" fill="none" xmlns="http://www.w3.org/2000/svg">
<path d="M19.3908 27.0833L23.8301 33.9413L25.4645 15.6775L19.166 22.908L19.3908 27.0833Z" fill="#A30018"/>
<path d="M29.3107 12.0517L24.9805 35.7161L25.9068 37.1464C26.0796 37.4125 26.2771 37.6642 26.5122 37.8771C26.8669 38.1964 27.2684 38.4326 27.6919 38.5883L39.6913 0.212402L29.3107 12.0517Z" fill="#A30018"/>
<path d="M24.2031 39.6142L24.3266 39.5155L24.2421 39.4143L24.2031 39.6142Z" fill="#A30018"/>
<path d="M2.49447 15.4903L23.4675 41.0651L22.8971 41.5194L2.82966 20.7441L4.37961 30.172L19.1892 44.2475L18.7072 44.6525L4.65114 34.6172L5.59566 42.3617L12.6114 46.0204C13.9703 46.5552 14.0288 48.4553 12.7062 49.0731L2.51655 55.0265L12.2346 55.4132L25.2318 48.7785L33.5843 44.5136L33.6064 44.5032C34.3782 44.1658 35.8696 43.4909 37.1533 42.7718C38.9825 41.7439 40.1609 43.5726 40.1609 43.5726C41.0171 41.666 38.3264 39.9515 35.6683 38.8263C35.6319 38.8107 35.5981 38.7964 35.563 38.7834C36.5777 39.579 37.5222 40.4577 37.9185 41.2131C37.8236 41.1547 34.7848 39.2753 31.1756 38.7601C29.8647 40.7822 26.8051 40.9613 25.2214 38.9716L0 0L2.49447 15.4903Z" fill="#A30018"/>
<path d="M56.6749 37.1349H54.4807V43.7672H50.2793V24.8164H57.489C58.9895 24.8164 60.2587 25.1064 61.2968 25.6838C62.3348 26.2613 63.1072 27.0231 63.6139 27.9716C64.1207 28.9202 64.3716 29.9449 64.3716 31.0433C64.3716 32.272 64.0641 33.3753 63.4492 34.3607C62.8341 35.3436 61.9314 36.0808 60.7384 36.5673L64.8045 43.7697H60.3892L56.6749 37.1349ZM54.4807 33.6972H56.8126C57.7891 33.6972 58.6107 33.4932 59.2798 33.0877C59.9489 32.6822 60.2834 32.0016 60.2834 31.0433C60.2834 30.1218 59.9538 29.4682 59.2945 29.0798C58.6352 28.6916 57.8088 28.4975 56.8151 28.4975H54.4831V33.6972H54.4807Z" fill="#A30018"/>
<path d="M71.3395 28.4975V32.5323H78.5492V35.8081H71.3395V40.0862H79.9045V43.7672H67.084V24.8164H79.902V28.4975H71.3395Z" fill="#A30018"/>
<path d="M82.4204 24.7893H89.9007C91.5808 24.7893 93.0615 25.1653 94.3457 25.9124C95.6272 26.6618 96.6259 27.7455 97.3392 29.1608C98.0526 30.5788 98.4092 32.2694 98.4092 34.2377C98.4092 36.2404 98.0476 37.9556 97.3245 39.3809C96.6012 40.8061 95.5952 41.8899 94.3014 42.6295C93.01 43.3692 91.5242 43.7401 89.8442 43.7401H82.418V24.7893H82.4204ZM89.0595 39.951C90.5403 39.951 91.7161 39.5284 92.5819 38.6781C93.4503 37.8303 93.8832 36.351 93.8832 34.2377C93.8832 32.1269 93.4527 30.6451 92.5967 29.7973C91.7382 28.9496 90.5599 28.5245 89.0595 28.5245H86.5111V39.951H89.0595Z" fill="#A30018"/>
<path d="M104.48 24.8164H106.35V33.4538H106.485L114.29 24.8164H116.676L109.006 33.0189L117.382 43.7672H115.158L107.868 34.4L106.35 36.0243V43.7672H104.48V24.8164Z" fill="white"/>
<path d="M119.604 24.8164H121.5V43.7672H119.604V24.8164Z" fill="white"/>
<path d="M136.731 26.5218H130.985V43.7672H129.115V26.5218H123.369V24.8164H136.731V26.5218Z" fill="white"/>
<path d="M140.227 26.5218V33.2893H148.685V34.8594H140.227V42.0619H149.767V43.7672H138.357V24.8164H149.767V26.5218H140.227Z" fill="white"/>
</svg>
