<svg width="16" height="17" viewBox="0 0 16 17" fill="none" xmlns="http://www.w3.org/2000/svg">
<path d="M15.7567 15.3751L11.8125 11.1967C12.8266 9.96876 13.3823 8.42375 13.3823 6.81533C13.3823 3.05742 10.3806 0 6.69113 0C3.0017 0 0 3.05742 0 6.81533C0 10.5732 3.0017 13.6307 6.69113 13.6307C8.07619 13.6307 9.39609 13.2052 10.5246 12.3974L14.4988 16.6075C14.6649 16.7832 14.8883 16.8801 15.1278 16.8801C15.3544 16.8801 15.5694 16.7921 15.7326 16.6321C16.0794 16.2922 16.0904 15.7286 15.7567 15.3751ZM6.69113 1.77791C9.4182 1.77791 11.6367 4.03764 11.6367 6.81533C11.6367 9.59302 9.4182 11.8528 6.69113 11.8528C3.96406 11.8528 1.74551 9.59302 1.74551 6.81533C1.74551 4.03764 3.96406 1.77791 6.69113 1.77791Z" fill="white"/>
</svg>
