<svg width="16" height="16" viewBox="0 0 16 16" fill="none" xmlns="http://www.w3.org/2000/svg">
<path d="M8.00282 0C12.412 0.00313026 16.0031 3.59729 16 8.00282C15.9969 12.4083 12.4026 16.0038 7.99656 16C3.59053 15.9962 0 12.4027 0 7.99718C0 3.59166 3.59742 0 8.00282 0ZM6.75924 9.32316C6.71981 9.28872 6.69165 9.26681 6.66536 9.2424C6.26982 8.88054 5.87345 8.51847 5.47624 8.1562C5.16331 7.87197 4.85852 7.58148 4.53745 7.3104C4.30714 7.11695 4.03301 7.1013 3.75826 7.21399C3.63086 7.26326 3.52009 7.34774 3.43886 7.45759C3.35764 7.56744 3.30931 7.69813 3.29951 7.83441C3.26321 8.13929 3.38713 8.37782 3.60931 8.57941C4.46465 9.35613 5.31998 10.1343 6.17532 10.914C6.60904 11.309 7.02085 11.3015 7.43579 10.8895C9.07678 9.2618 10.7176 7.63407 12.3581 6.00634C12.4132 5.95124 12.4695 5.89615 12.519 5.83668C12.5946 5.74673 12.6494 5.6412 12.6795 5.52762C12.7096 5.41403 12.7143 5.2952 12.6932 5.1796C12.6721 5.064 12.6257 4.95448 12.5574 4.85888C12.4891 4.76327 12.4006 4.68393 12.2981 4.62652C11.9551 4.42931 11.5871 4.49568 11.2673 4.81434L7.79879 8.28203C7.45707 8.62323 7.1166 8.96693 6.75924 9.32316Z" fill="#72F34B"/>
</svg>
