<svg width="17" height="14" viewBox="0 0 17 14" fill="none" xmlns="http://www.w3.org/2000/svg">
<path d="M13.0625 12.813H15.6875V9.99634C15.6875 9.80128 15.6223 9.61181 15.5023 9.45804C15.3823 9.30426 15.2143 9.19499 15.0251 9.14759L12.1875 8.43797L11.9661 6.88572C12.4234 6.67675 12.811 6.34089 13.0829 5.91805C13.3548 5.49521 13.4996 5.00319 13.5 4.50047V3.73572C13.512 3.11125 13.3071 2.50193 12.9202 2.01162C12.5333 1.52131 11.9883 1.18035 11.3781 1.04684C10.9177 0.959284 10.4423 0.994902 10 1.15009" stroke="#F3BA2F" stroke-width="1.5" stroke-linecap="round" stroke-linejoin="round"/>
<path d="M9.55312 10.3189L7.125 9.625L6.90363 8.07275C7.32725 8.13986 7.7602 8.11804 8.17493 8.00868C8.58965 7.89931 8.97706 7.70479 9.3125 7.4375C8.66339 6.55444 8.35289 5.46769 8.4375 4.375C8.4375 3.67881 8.16094 3.01113 7.66866 2.51884C7.17637 2.02656 6.50869 1.75 5.8125 1.75C5.11631 1.75 4.44863 2.02656 3.95634 2.51884C3.46406 3.01113 3.1875 3.67881 3.1875 4.375C3.27211 5.46769 2.96161 6.55444 2.3125 7.4375C2.64794 7.70479 3.03535 7.89931 3.45007 8.00868C3.8648 8.11804 4.29775 8.13986 4.72137 8.07275L4.5 9.625L2.07188 10.3189C1.88917 10.3711 1.72844 10.4815 1.61399 10.6332C1.49953 10.7849 1.43758 10.9697 1.4375 11.1597V12.6875H10.1875V11.1597C10.1874 10.9697 10.1255 10.7849 10.011 10.6332C9.89656 10.4815 9.73583 10.3711 9.55312 10.3189V10.3189Z" stroke="#F3BA2F" stroke-width="1.5" stroke-linecap="round" stroke-linejoin="round"/>
</svg>
