<svg width="12" height="12" viewBox="0 0 12 12" fill="none" xmlns="http://www.w3.org/2000/svg">
<path d="M5.9998 10.5C8.6998 10.5 10.7998 8.175 11.6998 6.825C12.0748 6.3 12.0748 5.625 11.6998 5.1C10.7998 3.825 8.6998 1.5 5.9998 1.5C3.2998 1.5 1.1998 3.825 0.299805 5.175C-0.0751953 5.7 -0.0751953 6.375 0.299805 6.825C1.1998 8.175 3.2998 10.5 5.9998 10.5ZM5.9998 3.75C7.2748 3.75 8.24981 4.725 8.24981 6C8.24981 7.275 7.2748 8.25 5.9998 8.25C4.7248 8.25 3.7498 7.275 3.7498 6C3.7498 4.725 4.7248 3.75 5.9998 3.75Z" fill="white"/>
</svg>
