<svg width="14" height="14" viewBox="0 0 14 14" fill="none" xmlns="http://www.w3.org/2000/svg">
<g clip-path="url(#clip0_299_2856)">
<path d="M7.875 0.875C7.875 0.642936 7.78281 0.420376 7.61872 0.256282C7.45462 0.0921872 7.23206 0 7 0C6.76794 0 6.54538 0.0921872 6.38128 0.256282C6.21719 0.420376 6.125 0.642936 6.125 0.875V3.5H7.875V0.875Z" fill="#606976"/>
<path d="M13.0865 5.7365C13.0047 5.15609 12.73 4.6201 12.3065 4.21484C11.8831 3.80958 11.3355 3.55866 10.7521 3.50248C10.1686 3.4463 9.58327 3.58813 9.09025 3.90513C8.59723 4.22214 8.22526 4.69586 8.03425 5.25H5.96575C5.77474 4.69586 5.40277 4.22214 4.90976 3.90513C4.41674 3.58813 3.83137 3.4463 3.24793 3.50248C2.66449 3.55866 2.11694 3.80958 1.69347 4.21484C1.27 4.6201 0.995263 5.15609 0.913503 5.7365C0.913503 5.7365 2.79001e-06 11.7075 2.79001e-06 11.8125C-0.000501161 12.0564 0.0672745 12.2955 0.195658 12.5029C0.324042 12.7103 0.507907 12.8775 0.726442 12.9858C0.944978 13.0941 1.18946 13.139 1.43221 13.1155C1.67496 13.092 1.90628 13.001 2.1 12.8529L5.61663 10.5H8.38338L11.9 12.8529C12.0937 13.001 12.3251 13.092 12.5678 13.1155C12.8105 13.139 13.055 13.0941 13.2736 12.9858C13.4921 12.8775 13.676 12.7103 13.8043 12.5029C13.9327 12.2955 14.0005 12.0564 14 11.8125C14 11.7075 13.0865 5.7365 13.0865 5.7365ZM3.5 7C3.32694 7 3.15777 6.94868 3.01388 6.85254C2.86999 6.75639 2.75783 6.61973 2.69161 6.45985C2.62538 6.29996 2.60805 6.12403 2.64182 5.9543C2.67558 5.78456 2.75891 5.62865 2.88128 5.50628C3.00366 5.38391 3.15957 5.30058 3.3293 5.26681C3.49903 5.23305 3.67497 5.25038 3.83485 5.31661C3.99474 5.38283 4.13139 5.49498 4.22754 5.63888C4.32369 5.78277 4.375 5.95194 4.375 6.125C4.375 6.35706 4.28282 6.57962 4.11872 6.74372C3.95463 6.90781 3.73207 7 3.5 7ZM10.5 7C10.3269 7 10.1578 6.94868 10.0139 6.85254C9.86999 6.75639 9.75784 6.61973 9.69161 6.45985C9.62538 6.29996 9.60805 6.12403 9.64182 5.9543C9.67558 5.78456 9.75891 5.62865 9.88128 5.50628C10.0037 5.38391 10.1596 5.30058 10.3293 5.26681C10.499 5.23305 10.675 5.25038 10.8349 5.31661C10.9947 5.38283 11.1314 5.49498 11.2275 5.63888C11.3237 5.78277 11.375 5.95194 11.375 6.125C11.375 6.35706 11.2828 6.57962 11.1187 6.74372C10.9546 6.90781 10.7321 7 10.5 7Z" fill="#606976"/>
</g>
<defs>
<clipPath id="clip0_299_2856">
<rect width="14" height="14" fill="white"/>
</clipPath>
</defs>
</svg>
