<svg width="12" height="10" viewBox="0 0 12 10" fill="none" xmlns="http://www.w3.org/2000/svg">
<path d="M5.9998 9.5C8.6998 9.5 10.7998 7.175 11.6998 5.825C12.0748 5.3 12.0748 4.625 11.6998 4.1C10.7998 2.825 8.6998 0.5 5.9998 0.5C3.2998 0.5 1.1998 2.825 0.299805 4.175C-0.0751953 4.7 -0.0751953 5.375 0.299805 5.825C1.1998 7.175 3.2998 9.5 5.9998 9.5ZM5.9998 2.75C7.2748 2.75 8.2498 3.725 8.2498 5C8.2498 6.275 7.2748 7.25 5.9998 7.25C4.7248 7.25 3.7498 6.275 3.7498 5C3.7498 3.725 4.7248 2.75 5.9998 2.75Z" fill="#6CDB00"/>
</svg>
