<svg width="14" height="16" viewBox="0 0 14 16" fill="none" xmlns="http://www.w3.org/2000/svg">
  <path d="M12.6875 6.66663V13.7777C12.6875 14.0135 12.5953 14.2396 12.4312 14.4063C12.2671 14.573 12.0446 14.6666 11.8125 14.6666H2.1875C1.95544 14.6666 1.73288 14.573 1.56878 14.4063C1.40469 14.2396 1.3125 14.0135 1.3125 13.7777V7.55551C1.3125 7.31977 1.40469 7.09367 1.56878 6.92698C1.73288 6.76028 1.95544 6.66663 2.1875 6.66663H10" stroke="#6CDB00" stroke-width="1.5" stroke-linecap="round" stroke-linejoin="round"/>
  <path d="M3.9375 4.44442C3.9375 3.61931 4.26016 2.82798 4.83449 2.24454C5.40882 1.66109 6.18777 1.33331 7 1.33331C7.81223 1.33331 8.59118 1.66109 9.16551 2.24454C9.73984 2.82798 10.0625 3.61931 10.0625 4.44442V6.66665" stroke="#6CDB00" stroke-width="1.5" stroke-linecap="round" stroke-linejoin="round"/>
  <path d="M7 12C7.72487 12 8.3125 11.403 8.3125 10.6666C8.3125 9.93027 7.72487 9.33331 7 9.33331C6.27513 9.33331 5.6875 9.93027 5.6875 10.6666C5.6875 11.403 6.27513 12 7 12Z" stroke="#6CDB00" stroke-width="1.5" stroke-linecap="round" stroke-linejoin="round"/>
</svg>
