<svg width="40" height="40" viewBox="0 0 40 40" fill="none" xmlns="http://www.w3.org/2000/svg">
<path d="M34.414 4.45703L21.9219 13.7351L24.232 8.26117L34.414 4.45703Z" fill="#E2761B" stroke="#E2761B" stroke-linecap="round" stroke-linejoin="round"/>
<path d="M5.57422 4.45703L17.9659 13.823L15.7688 8.26118L5.57422 4.45703Z" fill="#E4761B" stroke="#E4761B" stroke-linecap="round" stroke-linejoin="round"/>
<path d="M29.9189 25.9639L26.5918 31.0612L33.7104 33.0197L35.7569 26.0769L29.9189 25.9639Z" fill="#E4761B" stroke="#E4761B" stroke-linecap="round" stroke-linejoin="round"/>
<path d="M4.25586 26.0769L6.28976 33.0197L13.4084 31.0612L10.0813 25.9639L4.25586 26.0769Z" fill="#E4761B" stroke="#E4761B" stroke-linecap="round" stroke-linejoin="round"/>
<path d="M13.0071 17.3511L11.0234 20.3517L18.0919 20.6656L17.8408 13.0698L13.0071 17.3511Z" fill="#E4761B" stroke="#E4761B" stroke-linecap="round" stroke-linejoin="round"/>
<path d="M26.9795 17.351L22.0831 12.9819L21.9199 20.6656L28.9758 20.3517L26.9795 17.351Z" fill="#E4761B" stroke="#E4761B" stroke-linecap="round" stroke-linejoin="round"/>
<path d="M13.4082 31.061L17.6518 28.9895L13.9857 26.127L13.4082 31.061Z" fill="#E4761B" stroke="#E4761B" stroke-linecap="round" stroke-linejoin="round"/>
<path d="M22.334 28.9895L26.5901 31.061L26 26.127L22.334 28.9895Z" fill="#E4761B" stroke="#E4761B" stroke-linecap="round" stroke-linejoin="round"/>
<path d="M26.5901 31.0608L22.334 28.9893L22.673 31.7639L22.6353 32.9315L26.5901 31.0608Z" fill="#D7C1B3" stroke="#D7C1B3" stroke-linecap="round" stroke-linejoin="round"/>
<path d="M13.4082 31.0608L17.363 32.9315L17.3379 31.7639L17.6518 28.9893L13.4082 31.0608Z" fill="#D7C1B3" stroke="#D7C1B3" stroke-linecap="round" stroke-linejoin="round"/>
<path d="M17.4272 24.2939L13.8867 23.2519L16.3852 22.1094L17.4272 24.2939Z" fill="#233447" stroke="#233447" stroke-linecap="round" stroke-linejoin="round"/>
<path d="M22.5605 24.2939L23.6026 22.1094L26.1136 23.2519L22.5605 24.2939Z" fill="#233447" stroke="#233447" stroke-linecap="round" stroke-linejoin="round"/>
<path d="M13.4091 31.0607L14.0117 25.9634L10.082 26.0764L13.4091 31.0607Z" fill="#CD6116" stroke="#CD6116" stroke-linecap="round" stroke-linejoin="round"/>
<path d="M25.9883 25.9634L26.5909 31.0607L29.918 26.0764L25.9883 25.9634Z" fill="#CD6116" stroke="#CD6116" stroke-linecap="round" stroke-linejoin="round"/>
<path d="M28.9777 20.3516L21.9219 20.6654L22.5747 24.2938L23.6168 22.1093L26.1278 23.2517L28.9777 20.3516Z" fill="#CD6116" stroke="#CD6116" stroke-linecap="round" stroke-linejoin="round"/>
<path d="M13.886 23.2517L16.3969 22.1093L17.4265 24.2938L18.0919 20.6654L11.0234 20.3516L13.886 23.2517Z" fill="#CD6116" stroke="#CD6116" stroke-linecap="round" stroke-linejoin="round"/>
<path d="M11.0234 20.3516L13.9864 26.1268L13.886 23.2517L11.0234 20.3516Z" fill="#E4751F" stroke="#E4751F" stroke-linecap="round" stroke-linejoin="round"/>
<path d="M26.1275 23.2517L26.002 26.1268L28.9775 20.3516L26.1275 23.2517Z" fill="#E4751F" stroke="#E4751F" stroke-linecap="round" stroke-linejoin="round"/>
<path d="M18.0912 20.6655L17.4258 24.2939L18.2544 28.5751L18.4427 22.938L18.0912 20.6655Z" fill="#E4751F" stroke="#E4751F" stroke-linecap="round" stroke-linejoin="round"/>
<path d="M21.921 20.6655L21.582 22.9254L21.7327 28.5751L22.5739 24.2939L21.921 20.6655Z" fill="#E4751F" stroke="#E4751F" stroke-linecap="round" stroke-linejoin="round"/>
<path d="M22.5736 24.294L21.7324 28.5753L22.3351 28.9896L26.0011 26.127L26.1266 23.252L22.5736 24.294Z" fill="#F6851B" stroke="#F6851B" stroke-linecap="round" stroke-linejoin="round"/>
<path d="M13.8867 23.252L13.9872 26.127L17.6532 28.9896L18.2558 28.5753L17.4272 24.294L13.8867 23.252Z" fill="#F6851B" stroke="#F6851B" stroke-linecap="round" stroke-linejoin="round"/>
<path d="M22.6361 32.9317L22.6737 31.7641L22.3599 31.4879H17.6267L17.3379 31.7641L17.363 32.9317L13.4082 31.061L14.7892 32.191L17.589 34.137H22.3975L25.2098 32.191L26.5909 31.061L22.6361 32.9317Z" fill="#C0AD9E" stroke="#C0AD9E" stroke-linecap="round" stroke-linejoin="round"/>
<path d="M22.3348 28.9895L21.7321 28.5752H18.2544L17.6518 28.9895L17.3379 31.7641L17.6267 31.4879H22.3599L22.6737 31.7641L22.3348 28.9895Z" fill="#161616" stroke="#161616" stroke-linecap="round" stroke-linejoin="round"/>
<path d="M34.9391 14.3378L36.0063 9.21535L34.4118 4.45703L22.334 13.4213L26.9793 17.3509L33.5455 19.2718L35.0019 17.5769L34.3742 17.125L35.3786 16.2084L34.6002 15.6058L35.6045 14.84L34.9391 14.3378Z" fill="#763D16" stroke="#763D16" stroke-linecap="round" stroke-linejoin="round"/>
<path d="M3.99219 9.21535L5.05936 14.3378L4.38139 14.84L5.38579 15.6058L4.61993 16.2084L5.62433 17.125L4.99658 17.5769L6.4404 19.2718L13.0066 17.3509L17.652 13.4213L5.57411 4.45703L3.99219 9.21535Z" fill="#763D16" stroke="#763D16" stroke-linecap="round" stroke-linejoin="round"/>
<path d="M33.5475 19.272L26.9812 17.3511L28.9775 20.3517L26.002 26.127L29.9191 26.0767H35.7571L33.5475 19.272Z" fill="#F6851B" stroke="#F6851B" stroke-linecap="round" stroke-linejoin="round"/>
<path d="M13.0066 17.3511L6.44042 19.272L4.25586 26.0767H10.0813L13.9859 26.127L11.023 20.3517L13.0066 17.3511Z" fill="#F6851B" stroke="#F6851B" stroke-linecap="round" stroke-linejoin="round"/>
<path d="M21.9214 20.6655L22.3358 13.4213L24.2441 8.26123H15.7695L17.6528 13.4213L18.0922 20.6655L18.2429 22.9505L18.2554 28.5751H21.7331L21.7582 22.9505L21.9214 20.6655Z" fill="#F6851B" stroke="#F6851B" stroke-linecap="round" stroke-linejoin="round"/>
</svg>
