<svg width="37" height="32" viewBox="0 0 37 32" fill="none" xmlns="http://www.w3.org/2000/svg">
<path d="M27.4746 10.3012C27.1311 10.1185 26.7478 10.023 26.3584 10.023C25.9691 10.023 25.5858 10.1185 25.2423 10.3012L20.0334 13.3613L16.4989 15.3086L11.3831 18.3687C11.0396 18.5513 10.6562 18.6469 10.2669 18.6469C9.87757 18.6469 9.49424 18.5513 9.15072 18.3687L5.15108 15.9577C4.81131 15.7578 4.52967 15.4731 4.33393 15.1316C4.1382 14.7901 4.03513 14.4037 4.0349 14.0104V9.37389C4.03786 8.98113 4.14208 8.59572 4.33755 8.2547C4.53301 7.91368 4.81316 7.6285 5.15108 7.42656L9.15072 5.10831C9.49424 4.92566 9.87757 4.83012 10.2669 4.83012C10.6562 4.83012 11.0396 4.92566 11.3831 5.10831L15.3827 7.51929C15.7225 7.71917 16.0041 8.00389 16.1999 8.34537C16.3956 8.68686 16.4987 9.07331 16.4989 9.46662V12.5267L20.0334 10.4866V7.33383C20.0305 6.94107 19.9263 6.55566 19.7308 6.21464C19.5353 5.87362 19.2552 5.58844 18.9173 5.3865L11.4761 1.02819C11.1326 0.845541 10.7492 0.75 10.3599 0.75C9.97059 0.75 9.58725 0.845541 9.24373 1.02819L1.61652 5.47923C1.27481 5.65299 0.988973 5.91901 0.791616 6.24693C0.594259 6.57485 0.493329 6.95147 0.500342 7.33383V16.0504C0.503298 16.4432 0.607516 16.8286 0.802984 17.1696C0.998452 17.5107 1.2786 17.7958 1.61652 17.9978L9.15072 22.3561C9.49424 22.5387 9.87757 22.6343 10.2669 22.6343C10.6562 22.6343 11.0396 22.5387 11.3831 22.3561L16.4989 19.3887L20.0334 17.3487L25.1493 14.3813C25.4928 14.1987 25.8761 14.1031 26.2654 14.1031C26.6548 14.1031 27.0381 14.1987 27.3816 14.3813L31.3812 16.6996C31.721 16.8994 32.0027 17.1842 32.1984 17.5256C32.3941 17.8671 32.4972 18.2536 32.4974 18.6469V23.2834C32.4945 23.6761 32.3903 24.0616 32.1948 24.4026C31.9993 24.7436 31.7192 25.0288 31.3812 25.2307L27.4746 27.549C27.1311 27.7316 26.7478 27.8272 26.3584 27.8272C25.9691 27.8272 25.5858 27.7316 25.2423 27.549L21.2426 25.2307C20.9029 25.0308 20.6212 24.7461 20.4255 24.4046C20.2298 24.0631 20.1267 23.6767 20.1265 23.2834V20.316L16.5919 22.3561V25.4162C16.5949 25.8089 16.6991 26.1943 16.8945 26.5354C17.09 26.8764 17.3702 27.1616 17.7081 27.3635L25.2423 31.7218C25.5858 31.9045 25.9691 32 26.3584 32C26.7478 32 27.1311 31.9045 27.4746 31.7218L35.0088 27.3635C35.3486 27.1636 35.6302 26.8789 35.826 26.5374C36.0217 26.1959 36.1248 25.8095 36.125 25.4162V16.6068C36.122 16.2141 36.0178 15.8287 35.8224 15.4876C35.6269 15.1466 35.3467 14.8614 35.0088 14.6595L27.4746 10.3012Z" fill="#AA83EB"/>
</svg>
