<svg width="16" height="17" viewBox="0 0 16 17" fill="none" xmlns="http://www.w3.org/2000/svg">
<path d="M8.33366 6.33333C9.80642 6.33333 11.0003 5.13943 11.0003 3.66667C11.0003 2.19391 9.80642 1 8.33366 1C6.8609 1 5.66699 2.19391 5.66699 3.66667C5.66699 5.13943 6.8609 6.33333 8.33366 6.33333Z" stroke="#F3BA2F" stroke-width="1.5" stroke-linecap="round" stroke-linejoin="round"/>
<path d="M8.33398 3V4.33333" stroke="#F3BA2F" stroke-width="1.5" stroke-linecap="round" stroke-linejoin="round"/>
<path d="M5 11.6667H11.6667L11 15.6667H5.66667L5 11.6667Z" stroke="#F3BA2F" stroke-width="1.5" stroke-linecap="round" stroke-linejoin="round"/>
<path d="M4.33367 9.66664C3.36126 9.66699 2.42238 9.31126 1.69434 8.66664C2.27119 8.15745 2.98281 7.82565 3.74368 7.71113C4.50455 7.59661 5.28231 7.70423 5.98349 8.02106C6.68467 8.33789 7.27945 8.85046 7.69636 9.49716C8.11327 10.1439 8.33457 10.8972 8.33367 11.6666" stroke="#F3BA2F" stroke-width="1.5" stroke-linecap="round" stroke-linejoin="round"/>
<path d="M12.334 9.66664C13.3064 9.66699 14.2453 9.31126 14.9733 8.66664C14.3965 8.15745 13.6848 7.82565 12.924 7.71113C12.1631 7.59661 11.3854 7.70423 10.6842 8.02106C9.98298 8.33789 9.3882 8.85046 8.97129 9.49716C8.55438 10.1439 8.33309 10.8972 8.33399 11.6666" stroke="#F3BA2F" stroke-width="1.5" stroke-linecap="round" stroke-linejoin="round"/>
</svg>
