
<svg width="40" height="40" viewBox="0 0 40 40" fill="none" xmlns="http://www.w3.org/2000/svg">
<path d="M8.28269 12.6026C14.7659 6.25356 25.2749 6.25356 31.7666 12.6026L32.5466 13.3658C32.8737 13.6845 32.8737 14.1961 32.5466 14.5149L29.8795 17.1316C29.7201 17.291 29.4517 17.291 29.2924 17.1316L28.2188 16.0832C23.6982 11.6549 16.3595 11.6549 11.8388 16.0832L10.6898 17.2071C10.5304 17.3665 10.262 17.3665 10.1027 17.2071L7.4272 14.5903C7.10011 14.2716 7.10011 13.76 7.4272 13.4413L8.28269 12.6026ZM37.2853 18.0039L39.6588 20.3271C39.9859 20.6458 39.9859 21.1574 39.6588 21.4761L28.9485 31.9684C28.6214 32.2871 28.1014 32.2871 27.7743 31.9684L20.1672 24.5207C20.0833 24.4452 19.9575 24.4452 19.8737 24.5207L12.2749 31.9684C11.9478 32.2871 11.4278 32.2871 11.1008 31.9684L0.382041 21.4845C0.0549446 21.1658 0.0549446 20.6542 0.382041 20.3355L2.75559 18.0123C3.08269 17.6936 3.60269 17.6936 3.92978 18.0123L11.5369 25.46C11.6208 25.5355 11.7466 25.5355 11.8304 25.46L19.4291 18.0123C19.7562 17.6936 20.2762 17.6936 20.6033 18.0123L28.2104 25.46C28.2943 25.5355 28.4201 25.5355 28.504 25.46L36.1111 18.0123C36.4298 17.6852 36.9582 17.6852 37.2853 18.0039Z" fill="#3A99FB"/>
</svg>
